<svg width="42" height="43" viewBox="0 0 42 43" fill="none" xmlns="http://www.w3.org/2000/svg">
<path d="M21 27.4282C22.701 27.4282 24.15 26.7982 25.431 25.5592C26.67 24.2782 27.3 22.8292 27.3 21.1282C27.3 19.4272 26.67 17.9782 25.431 16.6972C24.15 15.4582 22.701 14.8282 21 14.8282C19.299 14.8282 17.85 15.4582 16.569 16.6972C15.33 17.9782 14.7 19.4272 14.7 21.1282C14.7 22.8292 15.33 24.2782 16.569 25.5592C17.85 26.7982 19.299 27.4282 21 27.4282ZM21 0.128174C26.775 0.128174 31.71 2.22817 35.805 6.32317C39.9 10.4182 42 15.3532 42 21.1282V24.1732C42 26.2732 41.265 28.0582 39.9 29.5282C38.43 30.9352 36.75 31.6282 34.65 31.6282C32.13 31.6282 30.051 30.5782 28.476 28.4782C26.376 30.5782 23.898 31.6282 21 31.6282C18.123 31.6282 15.645 30.5782 13.566 28.5622C11.55 26.4832 10.5 24.0262 10.5 21.1282C10.5 18.2512 11.55 15.7732 13.566 13.6942C15.645 11.6782 18.123 10.6282 21 10.6282C23.898 10.6282 26.355 11.6782 28.434 13.6942C30.45 15.7732 31.5 18.2512 31.5 21.1282V24.1732C31.5 25.0342 31.836 25.7902 32.466 26.4412C33.096 27.0922 33.831 27.4282 34.65 27.4282C35.532 27.4282 36.267 27.0922 36.897 26.4412C37.527 25.7902 37.8 25.0342 37.8 24.1732V21.1282C37.8 16.5292 36.183 12.5812 32.865 9.26317C29.547 5.94517 25.599 4.32817 21 4.32817C16.401 4.32817 12.453 5.94517 9.135 9.26317C5.817 12.5812 4.2 16.5292 4.2 21.1282C4.2 25.7272 5.817 29.6752 9.135 32.9932C12.453 36.3112 16.401 37.9282 21 37.9282H31.5V42.1282H21C15.225 42.1282 10.29 40.0282 6.195 35.9332C2.1 31.8382 0 26.9032 0 21.1282C0 15.3532 2.1 10.4182 6.195 6.32317C10.29 2.22817 15.225 0.128174 21 0.128174Z" fill="#D9D9D9"/>
</svg>
