<svg width="115" height="113" viewBox="0 0 115 113" xmlns="http://www.w3.org/2000/svg">
<circle cx="8" cy="8.12814" r="8" fill="#3590DF"/>
<circle cx="40" cy="8.12814" r="7" stroke="#3590DF" stroke-width="2"/>
<circle cx="72" cy="8.12814" r="7" stroke="#3590DF" stroke-width="2"/>
<circle cx="104" cy="8.12814" r="7" stroke="#3590DF" stroke-width="2"/>
<circle cx="8" cy="40.1281" r="8" fill="#3590DF"/>
<circle cx="40" cy="40.1281" r="7" stroke="#3590DF" stroke-width="2"/>
<circle cx="72" cy="40.1281" r="8" fill="#3590DF"/>
<circle cx="104" cy="40.1281" r="7" stroke="#3590DF" stroke-width="2"/>
<circle cx="8" cy="72.1281" r="7" stroke="#3590DF" stroke-width="2"/>
<circle cx="40" cy="72.1281" r="8" fill="#3590DF"/>
<circle cx="72" cy="72.1281" r="7" stroke="#3590DF" stroke-width="2"/>
<circle cx="104" cy="72.1281" r="8" fill="#3590DF"/>
<circle cx="8" cy="104.128" r="7" stroke="#3590DF" stroke-width="2"/>
<circle cx="40" cy="104.128" r="7" stroke="#3590DF" stroke-width="2"/>
<circle cx="72" cy="104.128" r="7" stroke="#3590DF" stroke-width="2"/>
<circle cx="104" cy="104.128" r="8" fill="#3590DF"/>
<line x1="8.5" y1="8.12814" x2="8.5" y2="40.1281" stroke="#3590DF"/>
<line x1="8.35355" y1="39.7746" x2="40.3536" y2="71.7746" stroke="#3590DF"/>
<line x1="72.3536" y1="40.4817" x2="40.3536" y2="72.4817" stroke="#3590DF"/>
<line x1="72.3536" y1="39.7746" x2="104.354" y2="71.7746" stroke="#3590DF"/>
<line x1="104.5" y1="72.1281" x2="104.5" y2="104.128" stroke="#3590DF"/>
</svg>
