<svg width="442" height="119" viewBox="0 0 442 119" fill="none" xmlns="http://www.w3.org/2000/svg">
<path d="M145.345 46.1281V11.2191H159.766C162.379 11.2191 164.635 11.7304 166.533 12.7531C168.442 13.7645 169.913 15.1793 170.947 16.9975C171.982 18.8043 172.499 20.9066 172.499 23.3043C172.499 25.7134 171.97 27.8213 170.913 29.6281C169.868 31.4236 168.374 32.8156 166.43 33.8043C164.487 34.7929 162.18 35.2872 159.51 35.2872H150.612V28.6395H157.942C159.214 28.6395 160.277 28.4179 161.129 27.9747C161.993 27.5316 162.646 26.9122 163.089 26.1168C163.533 25.31 163.754 24.3725 163.754 23.3043C163.754 22.2247 163.533 21.2929 163.089 20.5088C162.646 19.7134 161.993 19.0997 161.129 18.6679C160.266 18.2361 159.203 18.0202 157.942 18.0202H153.783V46.1281H145.345ZM176.658 46.1281V11.2191H191.078C193.692 11.2191 195.947 11.6906 197.845 12.6338C199.754 13.5656 201.226 14.9066 202.26 16.6566C203.294 18.3952 203.811 20.4577 203.811 22.8441C203.811 25.2645 203.283 27.3213 202.226 29.0145C201.169 30.6963 199.669 31.9804 197.726 32.8668C195.783 33.7418 193.482 34.1793 190.822 34.1793H181.703V27.5316H189.254C190.527 27.5316 191.589 27.3668 192.442 27.0372C193.305 26.6963 193.959 26.185 194.402 25.5031C194.845 24.81 195.067 23.9236 195.067 22.8441C195.067 21.7645 194.845 20.8725 194.402 20.1679C193.959 19.452 193.305 18.9179 192.442 18.5656C191.578 18.202 190.516 18.0202 189.254 18.0202H185.095V46.1281H176.658ZM196.311 30.1736L205.004 46.1281H195.8L187.277 30.1736H196.311ZM216.876 11.2191V46.1281H208.439V11.2191H216.876ZM222.173 11.2191H232.622L241.486 32.8327H241.895L250.759 11.2191H261.207V46.1281H252.991V24.685H252.702L244.315 45.9066H239.065L230.679 24.5656H230.389V46.1281H222.173V11.2191ZM266.47 46.1281V11.2191H290.811V18.0713H274.908V25.2304H289.567V32.0997H274.908V39.2759H290.811V46.1281H266.47ZM305.266 18.0713V11.2191H334.771V18.0713H324.186V46.1281H315.868V18.0713H305.266ZM338.892 46.1281V11.2191H363.233V18.0713H347.33V25.2304H361.989V32.0997H347.33V39.2759H363.233V46.1281H338.892ZM400.205 23.8668H391.682C391.568 22.9918 391.335 22.202 390.983 21.4975C390.631 20.7929 390.165 20.1906 389.585 19.6906C389.006 19.1906 388.318 18.81 387.523 18.5486C386.739 18.2759 385.869 18.1395 384.915 18.1395C383.222 18.1395 381.761 18.5543 380.534 19.3838C379.318 20.2134 378.381 21.4122 377.722 22.9804C377.074 24.5486 376.75 26.4463 376.75 28.6736C376.75 30.9918 377.08 32.935 377.739 34.5031C378.409 36.06 379.347 37.2361 380.551 38.0316C381.767 38.8156 383.205 39.2077 384.864 39.2077C385.795 39.2077 386.642 39.0884 387.403 38.8497C388.176 38.6111 388.852 38.2645 389.432 37.81C390.023 37.3441 390.506 36.7816 390.881 36.1225C391.267 35.452 391.534 34.6963 391.682 33.8554L400.205 33.9066C400.057 35.452 399.608 36.9747 398.858 38.4747C398.119 39.9747 397.102 41.3441 395.807 42.5827C394.511 43.81 392.932 44.7872 391.068 45.5145C389.216 46.2418 387.091 46.6054 384.693 46.6054C381.534 46.6054 378.705 45.9122 376.205 44.5259C373.716 43.1281 371.75 41.0941 370.307 38.4236C368.864 35.7531 368.142 32.5031 368.142 28.6736C368.142 24.8327 368.875 21.577 370.341 18.9066C371.807 16.2361 373.79 14.2077 376.29 12.8213C378.79 11.435 381.591 10.7418 384.693 10.7418C386.807 10.7418 388.761 11.0372 390.557 11.6281C392.352 12.2077 393.932 13.06 395.295 14.185C396.659 15.2986 397.767 16.6679 398.619 18.2929C399.472 19.9179 400 21.7759 400.205 23.8668ZM405.033 46.1281V11.2191H413.47V25.2304H427.226V11.2191H435.646V46.1281H427.226V32.0997H413.47V46.1281H405.033ZM162.832 97.3381C160.844 97.3381 159.122 97.0861 157.666 96.5821C156.238 96.0501 155.132 95.2101 154.348 94.0621C153.564 92.8861 153.116 91.3181 153.004 89.3581L152.248 72.4321H158.17L158.884 87.3001C158.94 88.4481 159.122 89.3301 159.43 89.9461C159.766 90.5341 160.242 90.9401 160.858 91.1641C161.474 91.3601 162.272 91.4581 163.252 91.4581C164.316 91.4581 165.072 91.7381 165.52 92.2981C165.968 92.8301 166.192 93.5021 166.192 94.3141C166.192 95.1821 165.898 95.9101 165.31 96.4981C164.75 97.0581 163.924 97.3381 162.832 97.3381ZM155.146 93.4321C153.27 93.8521 151.464 94.0481 149.728 94.0201C147.992 93.9641 146.438 93.6561 145.066 93.0961C143.694 92.5081 142.602 91.6681 141.79 90.5761C141.006 89.4841 140.614 88.0981 140.614 86.4181C140.614 84.9341 140.936 83.5901 141.58 82.3861C142.252 81.1541 143.176 80.0761 144.352 79.1521C145.556 78.2281 146.956 77.4441 148.552 76.8001C150.148 76.1561 151.884 75.6661 153.76 75.3301L154.348 81.2941C153.144 81.3501 152.052 81.5181 151.072 81.7981C150.12 82.0501 149.294 82.3861 148.594 82.8061C147.922 83.2261 147.404 83.7021 147.04 84.2341C146.676 84.7381 146.494 85.2841 146.494 85.8721C146.494 86.3481 146.662 86.7401 146.998 87.0481C147.334 87.3561 147.782 87.6081 148.342 87.8041C148.902 87.9721 149.546 88.0701 150.274 88.0981C151.002 88.1261 151.744 88.0841 152.5 87.9721C153.284 87.8601 154.054 87.6781 154.81 87.4261L155.146 93.4321ZM155.272 68.1061C154.46 68.1061 153.76 67.8261 153.172 67.2661C152.612 66.6781 152.332 65.9921 152.332 65.2081C152.332 64.3961 152.612 63.6961 153.172 63.1081C153.76 62.5201 154.46 62.2261 155.272 62.2261C156.056 62.2261 156.728 62.5201 157.288 63.1081C157.848 63.6961 158.128 64.3961 158.128 65.2081C158.128 65.9921 157.848 66.6781 157.288 67.2661C156.728 67.8261 156.056 68.1061 155.272 68.1061ZM148.006 68.0641C147.194 68.0641 146.494 67.7841 145.906 67.2241C145.346 66.6361 145.066 65.9501 145.066 65.1661C145.066 64.3541 145.346 63.6541 145.906 63.0661C146.494 62.4781 147.194 62.1841 148.006 62.1841C148.79 62.1841 149.462 62.4781 150.022 63.0661C150.582 63.6541 150.862 64.3541 150.862 65.1661C150.862 65.9501 150.582 66.6361 150.022 67.2241C149.462 67.7841 148.79 68.0641 148.006 68.0641ZM162.818 97.3381L163.238 91.4581C164.246 91.4581 165.114 91.3601 165.842 91.1641C166.57 90.9681 167.186 90.5761 167.69 89.9881C168.194 89.3721 168.614 88.4761 168.95 87.3001C169.314 86.1241 169.636 84.5561 169.916 82.5961L175.418 83.5201C175.362 83.9401 175.278 84.4301 175.166 84.9901C175.082 85.5501 174.998 86.1241 174.914 86.7121C174.858 87.2721 174.83 87.8041 174.83 88.3081C174.83 88.8121 174.928 89.2601 175.124 89.6521C175.32 90.0441 175.628 90.3801 176.048 90.6601C176.496 90.9121 177.07 91.1081 177.77 91.2481C178.498 91.3881 179.38 91.4581 180.416 91.4581C181.48 91.4581 182.236 91.7381 182.684 92.2981C183.132 92.8301 183.356 93.5021 183.356 94.3141C183.356 95.1821 183.062 95.9101 182.474 96.4981C181.914 97.0581 181.088 97.3381 179.996 97.3381C178.736 97.3381 177.588 97.2401 176.552 97.0441C175.544 96.8481 174.662 96.5261 173.906 96.0781C173.178 95.6021 172.576 94.9861 172.1 94.2301C171.652 93.4461 171.372 92.4941 171.26 91.3741H173.276C172.772 92.7181 172.128 93.7961 171.344 94.6081C170.588 95.3921 169.734 95.9801 168.782 96.3721C167.83 96.7641 166.836 97.0161 165.8 97.1281C164.792 97.2681 163.798 97.3381 162.818 97.3381ZM174.536 107.082C173.724 107.082 173.024 106.788 172.436 106.2C171.876 105.64 171.596 104.968 171.596 104.184C171.596 103.372 171.876 102.672 172.436 102.084C173.024 101.496 173.724 101.202 174.536 101.202C175.32 101.202 175.992 101.496 176.552 102.084C177.112 102.672 177.392 103.372 177.392 104.184C177.392 104.968 177.112 105.64 176.552 106.2C175.992 106.788 175.32 107.082 174.536 107.082ZM167.27 107.082C166.458 107.082 165.758 106.788 165.17 106.2C164.61 105.64 164.33 104.968 164.33 104.184C164.33 103.372 164.61 102.672 165.17 102.084C165.758 101.496 166.458 101.202 167.27 101.202C168.054 101.202 168.726 101.496 169.286 102.084C169.846 102.672 170.126 103.372 170.126 104.184C170.126 104.968 169.846 105.64 169.286 106.2C168.726 106.788 168.054 107.082 167.27 107.082ZM180.004 97.3381L180.424 91.4581C181.348 91.4581 182.104 91.3881 182.692 91.2481C183.28 91.0801 183.756 90.7301 184.12 90.1981C184.512 89.6381 184.848 88.8121 185.128 87.7201C185.436 86.6001 185.772 85.0881 186.136 83.1841L191.596 84.1921C191.512 84.6121 191.414 85.1021 191.302 85.6621C191.19 86.2221 191.092 86.7961 191.008 87.3841C190.924 87.9441 190.882 88.4481 190.882 88.8961C190.882 89.6801 191.134 90.3101 191.638 90.7861C192.142 91.2341 193.094 91.4581 194.494 91.4581C195.194 91.4581 195.796 91.3881 196.3 91.2481C196.832 91.0801 197.28 90.7301 197.644 90.1981C198.036 89.6381 198.372 88.7841 198.652 87.6361C198.96 86.4601 199.254 84.8781 199.534 82.8901L205.078 83.7721C204.966 84.4161 204.854 85.1021 204.742 85.8301C204.63 86.5581 204.532 87.2301 204.448 87.8461C204.364 88.4621 204.322 88.9661 204.322 89.3581C204.322 89.7221 204.42 90.0721 204.616 90.4081C204.84 90.7161 205.232 90.9681 205.792 91.1641C206.38 91.3601 207.206 91.4581 208.27 91.4581C209.026 91.4581 209.67 91.3601 210.202 91.1641C210.762 90.9681 211.182 90.6461 211.462 90.1981C211.77 89.7501 211.924 89.1621 211.924 88.4341C211.924 87.3981 211.686 86.0401 211.21 84.3601C210.734 82.6801 210.174 80.9161 209.53 79.0681L215.452 77.3041C215.9 78.5081 216.292 79.7961 216.628 81.1681C216.992 82.5121 217.272 83.8281 217.468 85.1161C217.692 86.3761 217.804 87.4821 217.804 88.4341C217.804 89.8621 217.58 91.1361 217.132 92.2561C216.684 93.3481 216.054 94.2721 215.242 95.0281C214.43 95.7841 213.464 96.3581 212.344 96.7501C211.224 97.1421 209.992 97.3381 208.648 97.3381C207.024 97.3381 205.694 97.1841 204.658 96.8761C203.622 96.5401 202.824 95.9941 202.264 95.2381C201.732 94.4541 201.382 93.3901 201.214 92.0461H202.642C202.054 93.6981 201.396 94.9021 200.668 95.6581C199.94 96.3861 199.072 96.8481 198.064 97.0441C197.084 97.2401 195.852 97.3381 194.368 97.3381C193.444 97.3381 192.492 97.2401 191.512 97.0441C190.56 96.8201 189.706 96.3161 188.95 95.5321C188.194 94.7481 187.634 93.5301 187.27 91.8781L189.538 91.7941C188.95 93.4461 188.18 94.6641 187.228 95.4481C186.304 96.2321 185.24 96.7501 184.036 97.0021C182.832 97.2261 181.488 97.3381 180.004 97.3381ZM233.226 97.3381C230.622 97.3381 228.606 97.0721 227.178 96.5401C225.778 96.0081 224.798 95.1821 224.238 94.0621C223.678 92.9141 223.356 91.4721 223.272 89.7361L222.39 66.3841H228.27L229.152 86.9221C229.208 88.2101 229.348 89.1761 229.572 89.8201C229.796 90.4641 230.216 90.8981 230.832 91.1221C231.476 91.3461 232.414 91.4581 233.646 91.4581C234.71 91.4581 235.466 91.7381 235.914 92.2981C236.39 92.8301 236.628 93.5021 236.628 94.3141C236.628 95.1821 236.334 95.9101 235.746 96.4981C235.158 97.0581 234.318 97.3381 233.226 97.3381ZM233.283 97.3381L233.703 91.4581C234.627 91.4581 235.383 91.3881 235.971 91.2481C236.559 91.0801 237.035 90.7301 237.399 90.1981C237.791 89.6381 238.127 88.8121 238.407 87.7201C238.715 86.6001 239.051 85.0881 239.415 83.1841L244.875 84.1921C244.791 84.6121 244.693 85.1021 244.581 85.6621C244.469 86.2221 244.371 86.7961 244.287 87.3841C244.203 87.9441 244.161 88.4481 244.161 88.8961C244.161 89.6801 244.413 90.3101 244.917 90.7861C245.421 91.2341 246.373 91.4581 247.773 91.4581C248.473 91.4581 249.075 91.3881 249.579 91.2481C250.111 91.0801 250.559 90.7301 250.923 90.1981C251.315 89.6381 251.651 88.7841 251.931 87.6361C252.239 86.4601 252.533 84.8781 252.813 82.8901L258.357 83.7721C258.245 84.4161 258.133 85.1021 258.021 85.8301C257.909 86.5581 257.811 87.2301 257.727 87.8461C257.643 88.4621 257.601 88.9661 257.601 89.3581C257.601 89.7221 257.699 90.0721 257.895 90.4081C258.119 90.7161 258.511 90.9681 259.071 91.1641C259.659 91.3601 260.485 91.4581 261.549 91.4581C262.305 91.4581 262.949 91.3601 263.481 91.1641C264.041 90.9681 264.461 90.6461 264.741 90.1981C265.049 89.7501 265.203 89.1621 265.203 88.4341C265.203 87.3981 264.965 86.0401 264.489 84.3601C264.013 82.6801 263.453 80.9161 262.809 79.0681L268.731 77.3041C269.179 78.5081 269.571 79.7961 269.907 81.1681C270.271 82.5121 270.551 83.8281 270.747 85.1161C270.971 86.3761 271.083 87.4821 271.083 88.4341C271.083 89.8621 270.859 91.1361 270.411 92.2561C269.963 93.3481 269.333 94.2721 268.521 95.0281C267.709 95.7841 266.743 96.3581 265.623 96.7501C264.503 97.1421 263.271 97.3381 261.927 97.3381C260.303 97.3381 258.973 97.1841 257.937 96.8761C256.901 96.5401 256.103 95.9941 255.543 95.2381C255.011 94.4541 254.661 93.3901 254.493 92.0461H255.921C255.333 93.6981 254.675 94.9021 253.947 95.6581C253.219 96.3861 252.351 96.8481 251.343 97.0441C250.363 97.2401 249.131 97.3381 247.647 97.3381C246.723 97.3381 245.771 97.2401 244.791 97.0441C243.839 96.8201 242.985 96.3161 242.229 95.5321C241.473 94.7481 240.913 93.5301 240.549 91.8781L242.817 91.7941C242.229 93.4461 241.459 94.6641 240.507 95.4481C239.583 96.2321 238.519 96.7501 237.315 97.0021C236.111 97.2261 234.767 97.3381 233.283 97.3381ZM289.739 74.6161C289.739 73.6921 289.683 72.7681 289.571 71.8441C289.487 70.9201 289.375 70.0521 289.235 69.2401C289.095 68.4001 288.969 67.6721 288.857 67.0561L294.737 66.2161C294.849 66.7761 294.961 67.5181 295.073 68.4421C295.185 69.3661 295.283 70.3461 295.367 71.3821C295.451 72.3901 295.493 73.3561 295.493 74.2801C295.493 75.7361 295.367 77.1081 295.115 78.3961C294.863 79.6841 294.485 80.9021 293.981 82.0501C293.477 83.1701 292.847 84.2481 292.091 85.2841L291.335 86.2921C290.607 87.1881 289.753 88.0701 288.773 88.9381C287.821 89.8061 286.771 90.6461 285.623 91.4581H288.353C289.305 91.4581 290.033 91.4021 290.537 91.2901C291.041 91.1781 291.377 91.0241 291.545 90.8281C291.741 90.6041 291.839 90.3521 291.839 90.0721C291.839 89.5681 291.405 88.8261 290.537 87.8461C289.669 86.8381 288.465 85.6901 286.925 84.4021C285.385 83.0861 283.579 81.7001 281.507 80.2441C279.463 78.7601 277.251 77.2761 274.871 75.7921L277.937 71.2981C281.241 73.3421 284.027 75.2181 286.295 76.9261C288.591 78.6341 290.467 80.1881 291.923 81.5881C293.407 82.9881 294.555 84.2621 295.367 85.4101C296.179 86.5581 296.739 87.5941 297.047 88.5181C297.355 89.4141 297.509 90.2261 297.509 90.9541C297.509 91.7661 297.383 92.5501 297.131 93.3061C296.879 94.0341 296.473 94.6921 295.913 95.2801C295.353 95.8401 294.625 96.2881 293.729 96.6241C292.833 96.9601 291.727 97.1281 290.411 97.1281H278.063V91.5001C280.947 89.4281 283.229 87.4681 284.909 85.6201C286.617 83.7721 287.849 81.9521 288.605 80.1601C289.361 78.3681 289.739 76.5201 289.739 74.6161ZM274.493 70.6681L273.779 67.7281C274.759 67.5601 275.487 67.4201 275.963 67.3081C276.467 67.1961 276.999 67.0701 277.559 66.9301L277.139 67.9801C276.411 67.7281 275.711 67.2381 275.039 66.5101C274.395 65.7541 274.073 64.9001 274.073 63.9481C274.073 62.9401 274.297 62.1281 274.745 61.5121C275.193 60.8961 275.767 60.4481 276.467 60.1681C277.167 59.8881 277.895 59.7481 278.651 59.7481C279.071 59.7481 279.463 59.7761 279.827 59.8321C280.219 59.8881 280.569 59.9721 280.877 60.0841L280.541 63.1081C280.261 63.0521 279.981 62.9961 279.701 62.9401C279.421 62.8841 279.113 62.8561 278.777 62.8561C278.413 62.8561 278.077 62.9821 277.769 63.2341C277.489 63.4581 277.349 63.7381 277.349 64.0741C277.349 64.5501 277.517 64.9701 277.853 65.3341C278.189 65.6981 278.581 65.9921 279.029 66.2161C279.505 66.4121 279.897 66.5241 280.205 66.5521L277.895 66.8041C278.651 66.6081 279.365 66.4121 280.037 66.2161C280.709 65.9921 281.339 65.7681 281.927 65.5441L282.767 68.3581C282.067 68.6101 281.241 68.8901 280.289 69.1981C279.365 69.4781 278.399 69.7441 277.391 69.9961C276.411 70.2481 275.445 70.4721 274.493 70.6681ZM304.36 97.1281L303.478 66.3841H309.358L310.24 97.1281H304.36ZM344.86 97.3381C342.872 97.3381 341.15 97.0861 339.694 96.5821C338.266 96.0501 337.16 95.2101 336.376 94.0621C335.592 92.8861 335.144 91.3181 335.032 89.3581L334.276 72.4321H340.198L340.912 87.3001C340.968 88.4481 341.15 89.3301 341.458 89.9461C341.794 90.5341 342.27 90.9401 342.886 91.1641C343.502 91.3601 344.3 91.4581 345.28 91.4581C346.344 91.4581 347.1 91.7381 347.548 92.2981C347.996 92.8301 348.22 93.5021 348.22 94.3141C348.22 95.1821 347.926 95.9101 347.338 96.4981C346.778 97.0581 345.952 97.3381 344.86 97.3381ZM337.174 93.4321C335.298 93.8521 333.492 94.0481 331.756 94.0201C330.02 93.9641 328.466 93.6561 327.094 93.0961C325.722 92.5081 324.63 91.6681 323.818 90.5761C323.034 89.4841 322.642 88.0981 322.642 86.4181C322.642 84.9341 322.964 83.5901 323.608 82.3861C324.28 81.1541 325.204 80.0761 326.38 79.1521C327.584 78.2281 328.984 77.4441 330.58 76.8001C332.176 76.1561 333.912 75.6661 335.788 75.3301L336.376 81.2941C335.172 81.3501 334.08 81.5181 333.1 81.7981C332.148 82.0501 331.322 82.3861 330.622 82.8061C329.95 83.2261 329.432 83.7021 329.068 84.2341C328.704 84.7381 328.522 85.2841 328.522 85.8721C328.522 86.3481 328.69 86.7401 329.026 87.0481C329.362 87.3561 329.81 87.6081 330.37 87.8041C330.93 87.9721 331.574 88.0701 332.302 88.0981C333.03 88.1261 333.772 88.0841 334.528 87.9721C335.312 87.8601 336.082 87.6781 336.838 87.4261L337.174 93.4321ZM337.3 68.1061C336.488 68.1061 335.788 67.8261 335.2 67.2661C334.64 66.6781 334.36 65.9921 334.36 65.2081C334.36 64.3961 334.64 63.6961 335.2 63.1081C335.788 62.5201 336.488 62.2261 337.3 62.2261C338.084 62.2261 338.756 62.5201 339.316 63.1081C339.876 63.6961 340.156 64.3961 340.156 65.2081C340.156 65.9921 339.876 66.6781 339.316 67.2661C338.756 67.8261 338.084 68.1061 337.3 68.1061ZM330.034 68.0641C329.222 68.0641 328.522 67.7841 327.934 67.2241C327.374 66.6361 327.094 65.9501 327.094 65.1661C327.094 64.3541 327.374 63.6541 327.934 63.0661C328.522 62.4781 329.222 62.1841 330.034 62.1841C330.818 62.1841 331.49 62.4781 332.05 63.0661C332.61 63.6541 332.89 64.3541 332.89 65.1661C332.89 65.9501 332.61 66.6361 332.05 67.2241C331.49 67.7841 330.818 68.0641 330.034 68.0641ZM344.846 97.3381L345.266 91.4581C346.274 91.4581 347.142 91.3601 347.87 91.1641C348.598 90.9681 349.214 90.5761 349.718 89.9881C350.222 89.3721 350.642 88.4761 350.978 87.3001C351.342 86.1241 351.664 84.5561 351.944 82.5961L357.446 83.5201C357.39 83.9401 357.306 84.4301 357.194 84.9901C357.11 85.5501 357.026 86.1241 356.942 86.7121C356.886 87.2721 356.858 87.8041 356.858 88.3081C356.858 88.8121 356.956 89.2601 357.152 89.6521C357.348 90.0441 357.656 90.3801 358.076 90.6601C358.524 90.9121 359.098 91.1081 359.798 91.2481C360.526 91.3881 361.408 91.4581 362.444 91.4581C363.508 91.4581 364.264 91.7381 364.712 92.2981C365.16 92.8301 365.384 93.5021 365.384 94.3141C365.384 95.1821 365.09 95.9101 364.502 96.4981C363.942 97.0581 363.116 97.3381 362.024 97.3381C360.764 97.3381 359.616 97.2401 358.58 97.0441C357.572 96.8481 356.69 96.5261 355.934 96.0781C355.206 95.6021 354.604 94.9861 354.128 94.2301C353.68 93.4461 353.4 92.4941 353.288 91.3741H355.304C354.8 92.7181 354.156 93.7961 353.372 94.6081C352.616 95.3921 351.762 95.9801 350.81 96.3721C349.858 96.7641 348.864 97.0161 347.828 97.1281C346.82 97.2681 345.826 97.3381 344.846 97.3381ZM356.564 107.082C355.752 107.082 355.052 106.788 354.464 106.2C353.904 105.64 353.624 104.968 353.624 104.184C353.624 103.372 353.904 102.672 354.464 102.084C355.052 101.496 355.752 101.202 356.564 101.202C357.348 101.202 358.02 101.496 358.58 102.084C359.14 102.672 359.42 103.372 359.42 104.184C359.42 104.968 359.14 105.64 358.58 106.2C358.02 106.788 357.348 107.082 356.564 107.082ZM349.298 107.082C348.486 107.082 347.786 106.788 347.198 106.2C346.638 105.64 346.358 104.968 346.358 104.184C346.358 103.372 346.638 102.672 347.198 102.084C347.786 101.496 348.486 101.202 349.298 101.202C350.082 101.202 350.754 101.496 351.314 102.084C351.874 102.672 352.154 103.372 352.154 104.184C352.154 104.968 351.874 105.64 351.314 106.2C350.754 106.788 350.082 107.082 349.298 107.082ZM362.031 97.3381L362.451 91.4581C363.515 91.4581 364.355 91.3601 364.971 91.1641C365.615 90.9681 366.119 90.5761 366.483 89.9881C366.875 89.3721 367.197 88.4761 367.449 87.3001C367.729 86.1241 368.009 84.5561 368.289 82.5961L373.791 83.5201C373.735 83.9401 373.651 84.4301 373.539 84.9901C373.455 85.5501 373.371 86.1241 373.287 86.7121C373.231 87.2721 373.203 87.8041 373.203 88.3081C373.203 88.9801 373.343 89.5541 373.623 90.0301C373.931 90.4781 374.463 90.8281 375.219 91.0801C376.003 91.3321 377.123 91.4581 378.579 91.4581C379.643 91.4581 380.399 91.7381 380.847 92.2981C381.295 92.8301 381.519 93.5021 381.519 94.3141C381.519 95.1821 381.225 95.9101 380.637 96.4981C380.077 97.0581 379.251 97.3381 378.159 97.3381C376.227 97.3381 374.659 97.1561 373.455 96.7921C372.251 96.4281 371.355 95.8121 370.767 94.9441C370.179 94.0761 369.801 92.8861 369.633 91.3741H371.649C371.145 92.7181 370.557 93.7961 369.885 94.6081C369.213 95.3921 368.457 95.9801 367.617 96.3721C366.777 96.7641 365.881 97.0161 364.929 97.1281C364.005 97.2681 363.039 97.3381 362.031 97.3381ZM370.599 78.3121C369.731 78.3121 368.989 78.0181 368.373 77.4301C367.785 76.8421 367.491 76.1141 367.491 75.2461C367.491 74.3781 367.785 73.6361 368.373 73.0201C368.989 72.4041 369.731 72.0961 370.599 72.0961C371.439 72.0961 372.153 72.4041 372.741 73.0201C373.357 73.6361 373.665 74.3781 373.665 75.2461C373.665 76.1141 373.357 76.8421 372.741 77.4301C372.153 78.0181 371.439 78.3121 370.599 78.3121ZM378.15 97.3381L378.57 91.5001C379.662 91.5281 380.67 91.5141 381.594 91.4581C382.518 91.4021 383.344 91.3181 384.072 91.2061C384.828 91.0941 385.486 90.9681 386.046 90.8281C386.634 90.6881 387.124 90.5621 387.516 90.4501C388.468 90.1421 389.28 89.7781 389.952 89.3581C390.624 88.9101 391.142 88.4061 391.506 87.8461C391.87 87.2861 392.052 86.6841 392.052 86.0401C392.052 85.5361 391.94 85.0321 391.716 84.5281C391.52 83.9961 391.226 83.5621 390.834 83.2261C390.442 82.8901 389.98 82.7221 389.448 82.7221C388.944 82.7221 388.482 82.8761 388.062 83.1841C387.642 83.4921 387.306 83.9121 387.054 84.4441C386.802 84.9481 386.676 85.5361 386.676 86.2081C386.676 86.7961 386.816 87.3561 387.096 87.8881C387.376 88.3921 387.768 88.8821 388.272 89.3581C388.776 89.8341 389.378 90.2821 390.078 90.7021L384.492 92.8441C383.876 92.2561 383.288 91.6261 382.728 90.9541C382.196 90.2821 381.748 89.5261 381.384 88.6861C381.048 87.8181 380.88 86.8521 380.88 85.7881C380.88 84.5001 381.132 83.3241 381.636 82.2601C382.14 81.1961 382.812 80.2861 383.652 79.5301C384.492 78.7461 385.43 78.1441 386.466 77.7241C387.502 77.3041 388.538 77.0941 389.574 77.0941C391.254 77.0941 392.71 77.4861 393.942 78.2701C395.174 79.0541 396.126 80.0761 396.798 81.3361C397.498 82.5961 397.848 83.9681 397.848 85.4521C397.848 86.8241 397.596 88.0561 397.092 89.1481C396.588 90.2121 395.902 91.1641 395.034 92.0041C394.194 92.8161 393.256 93.5301 392.22 94.1461C391.212 94.7621 390.19 95.2801 389.154 95.7001C388.65 95.9241 388.02 96.1341 387.264 96.3301C386.508 96.5261 385.654 96.7081 384.702 96.8761C383.75 97.0161 382.728 97.1281 381.636 97.2121C380.544 97.2961 379.382 97.3381 378.15 97.3381ZM400.326 97.3381C398.702 97.3381 397.106 97.2541 395.538 97.0861C393.97 96.9181 392.514 96.6661 391.17 96.3301C389.854 95.9941 388.706 95.5881 387.726 95.1121L390.624 90.5761C391.464 90.8001 392.444 90.9821 393.564 91.1221C394.712 91.2341 395.902 91.3181 397.134 91.3741C398.394 91.4301 399.598 91.4581 400.746 91.4581C401.81 91.4581 402.566 91.7381 403.014 92.2981C403.49 92.8301 403.728 93.5021 403.728 94.3141C403.728 95.1821 403.434 95.9101 402.846 96.4981C402.258 97.0581 401.418 97.3381 400.326 97.3381ZM393.27 73.2721C392.458 73.2721 391.758 72.9921 391.17 72.4321C390.61 71.8441 390.33 71.1581 390.33 70.3741C390.33 69.5621 390.61 68.8621 391.17 68.2741C391.758 67.6861 392.458 67.3921 393.27 67.3921C394.054 67.3921 394.726 67.6861 395.286 68.2741C395.846 68.8621 396.126 69.5621 396.126 70.3741C396.126 71.1581 395.846 71.8441 395.286 72.4321C394.726 72.9921 394.054 73.2721 393.27 73.2721ZM386.004 73.2301C385.192 73.2301 384.492 72.9501 383.904 72.3901C383.344 71.8021 383.064 71.1161 383.064 70.3321C383.064 69.5201 383.344 68.8201 383.904 68.2321C384.492 67.6441 385.192 67.3501 386.004 67.3501C386.788 67.3501 387.46 67.6441 388.02 68.2321C388.58 68.8201 388.86 69.5201 388.86 70.3321C388.86 71.1161 388.58 71.8021 388.02 72.3901C387.46 72.9501 386.788 73.2301 386.004 73.2301ZM400.381 97.3381L400.801 91.4581C401.809 91.4581 402.677 91.3601 403.405 91.1641C404.133 90.9681 404.749 90.5761 405.253 89.9881C405.757 89.3721 406.177 88.4761 406.513 87.3001C406.877 86.1241 407.199 84.5561 407.479 82.5961L412.981 83.5201C412.925 83.9401 412.841 84.4301 412.729 84.9901C412.645 85.5501 412.561 86.1241 412.477 86.7121C412.421 87.2721 412.393 87.8041 412.393 88.3081C412.393 88.8121 412.491 89.2601 412.687 89.6521C412.883 90.0441 413.191 90.3801 413.611 90.6601C414.059 90.9121 414.633 91.1081 415.333 91.2481C416.061 91.3881 416.943 91.4581 417.979 91.4581C419.043 91.4581 419.799 91.7381 420.247 92.2981C420.695 92.8301 420.919 93.5021 420.919 94.3141C420.919 95.1821 420.625 95.9101 420.037 96.4981C419.477 97.0581 418.651 97.3381 417.559 97.3381C416.299 97.3381 415.151 97.2401 414.115 97.0441C413.107 96.8481 412.225 96.5261 411.469 96.0781C410.741 95.6021 410.139 94.9861 409.663 94.2301C409.215 93.4461 408.935 92.4941 408.823 91.3741H410.839C410.335 92.7181 409.691 93.7961 408.907 94.6081C408.151 95.3921 407.297 95.9801 406.345 96.3721C405.393 96.7641 404.399 97.0161 403.363 97.1281C402.355 97.2681 401.361 97.3381 400.381 97.3381ZM413.863 78.8161C413.051 78.8161 412.351 78.5361 411.763 77.9761C411.203 77.3881 410.923 76.7021 410.923 75.9181C410.923 75.1061 411.203 74.4061 411.763 73.8181C412.351 73.2301 413.051 72.9361 413.863 72.9361C414.647 72.9361 415.319 73.2301 415.879 73.8181C416.439 74.4061 416.719 75.1061 416.719 75.9181C416.719 76.7021 416.439 77.3881 415.879 77.9761C415.319 78.5361 414.647 78.8161 413.863 78.8161ZM406.597 78.7741C405.785 78.7741 405.085 78.4941 404.497 77.9341C403.937 77.3461 403.657 76.6601 403.657 75.8761C403.657 75.0641 403.937 74.3641 404.497 73.7761C405.085 73.1881 405.785 72.8941 406.597 72.8941C407.381 72.8941 408.053 73.1881 408.613 73.7761C409.173 74.3641 409.453 75.0641 409.453 75.8761C409.453 76.6601 409.173 77.3461 408.613 77.9341C408.053 78.4941 407.381 78.7741 406.597 78.7741ZM417.566 97.3381L417.986 91.4581C419.274 91.4581 420.198 91.3321 420.758 91.0801C421.318 90.8001 421.654 90.2961 421.766 89.5681C421.878 88.8121 421.906 87.7201 421.85 86.2921L421.094 66.3841H427.016L427.856 86.7121C427.912 88.3361 427.842 89.8061 427.646 91.1221C427.478 92.4101 427.044 93.5161 426.344 94.4401C425.672 95.3641 424.622 96.0781 423.194 96.5821C421.794 97.0861 419.918 97.3381 417.566 97.3381ZM433.395 97.1281L432.513 66.3841H438.393L439.275 97.1281H433.395Z" fill="#3590DF"/>
<circle cx="8" cy="14.1281" r="8" fill="#3590DF"/>
<circle cx="40" cy="14.1281" r="7" stroke="#3590DF" stroke-width="2"/>
<circle cx="72" cy="14.1281" r="7" stroke="#3590DF" stroke-width="2"/>
<circle cx="104" cy="14.1281" r="7" stroke="#3590DF" stroke-width="2"/>
<circle cx="8" cy="46.1281" r="8" fill="#3590DF"/>
<circle cx="40" cy="46.1281" r="7" stroke="#3590DF" stroke-width="2"/>
<circle cx="72" cy="46.1281" r="8" fill="#3590DF"/>
<circle cx="104" cy="46.1281" r="7" stroke="#3590DF" stroke-width="2"/>
<circle cx="8" cy="78.1281" r="7" stroke="#3590DF" stroke-width="2"/>
<circle cx="40" cy="78.1281" r="8" fill="#3590DF"/>
<circle cx="72" cy="78.1281" r="7" stroke="#3590DF" stroke-width="2"/>
<circle cx="104" cy="78.1281" r="8" fill="#3590DF"/>
<circle cx="8" cy="110.128" r="7" stroke="#3590DF" stroke-width="2"/>
<circle cx="40" cy="110.128" r="7" stroke="#3590DF" stroke-width="2"/>
<circle cx="72" cy="110.128" r="7" stroke="#3590DF" stroke-width="2"/>
<circle cx="104" cy="110.128" r="8" fill="#3590DF"/>
<line x1="8.5" y1="14.1281" x2="8.5" y2="46.1281" stroke="#3590DF"/>
<line x1="8.35355" y1="45.7746" x2="40.3536" y2="77.7746" stroke="#3590DF"/>
<line x1="72.3536" y1="46.4817" x2="40.3536" y2="78.4817" stroke="#3590DF"/>
<line x1="72.3536" y1="45.7746" x2="104.354" y2="77.7746" stroke="#3590DF"/>
<line x1="104.5" y1="78.1281" x2="104.5" y2="110.128" stroke="#3590DF"/>
</svg>
