<svg width="40" height="41" viewBox="0 0 40 41" fill="none" xmlns="http://www.w3.org/2000/svg">
<path d="M11.6634 0.128174C5.23174 0.128174 0 5.36476 0 11.7981V28.4648C0 34.8964 5.23659 40.1282 11.6699 40.1282H28.3366C34.7683 40.1282 40 34.8916 40 28.4583V11.7916C40 5.35992 34.7634 0.128174 28.3301 0.128174H11.6634ZM31.6667 6.79484C32.5867 6.79484 33.3333 7.54151 33.3333 8.46151C33.3333 9.38151 32.5867 10.1282 31.6667 10.1282C30.7467 10.1282 30 9.38151 30 8.46151C30 7.54151 30.7467 6.79484 31.6667 6.79484ZM20 10.1282C25.515 10.1282 30 14.6132 30 20.1282C30 25.6432 25.515 30.1282 20 30.1282C14.485 30.1282 10 25.6432 10 20.1282C10 14.6132 14.485 10.1282 20 10.1282ZM20 13.4615C18.2319 13.4615 16.5362 14.1639 15.286 15.4141C14.0357 16.6644 13.3333 18.3601 13.3333 20.1282C13.3333 21.8963 14.0357 23.592 15.286 24.8422C16.5362 26.0925 18.2319 26.7948 20 26.7948C21.7681 26.7948 23.4638 26.0925 24.714 24.8422C25.9643 23.592 26.6667 21.8963 26.6667 20.1282C26.6667 18.3601 25.9643 16.6644 24.714 15.4141C23.4638 14.1639 21.7681 13.4615 20 13.4615Z" fill="#D9D9D9"/>
</svg>
