<svg width="42" height="43" viewBox="0 0 42 43" fill="none" xmlns="http://www.w3.org/2000/svg">
<path d="M38.1818 0.128174H3.81818C1.70864 0.128174 0 1.83681 0 3.94636V38.31C0 40.4195 1.70864 42.1282 3.81818 42.1282H38.1818C40.2914 42.1282 42 40.4195 42 38.31V3.94636C42 1.83681 40.2914 0.128174 38.1818 0.128174ZM13.2758 34.4918H7.644V16.3707H13.2758V34.4918ZM10.4026 13.7801C8.58709 13.7801 7.119 12.3082 7.119 10.4964C7.119 8.68472 8.589 7.21472 10.4026 7.21472C12.2125 7.21472 13.6844 8.68663 13.6844 10.4964C13.6844 12.3082 12.2125 13.7801 10.4026 13.7801ZM34.3713 34.4918H28.7433V25.6794C28.7433 23.5775 28.7051 20.8743 25.8166 20.8743C22.8862 20.8743 22.4356 23.1633 22.4356 25.5267V34.4918H16.8076V16.3707H22.2104V18.8468H22.2867C23.0389 17.4226 24.8755 15.9202 27.615 15.9202C33.3175 15.9202 34.3713 19.6734 34.3713 24.5531V34.4918Z" fill="#D9D9D9"/>
</svg>
