<svg width="54" height="55" viewBox="0 0 54 55" fill="none" xmlns="http://www.w3.org/2000/svg">
<path d="M39.3707 6.01335L33.6016 11.7825V14.7778V17.7626L29.9523 21.5067L26.2926 25.2508L25.491 25.2719C24.4891 25.2825 23.6875 25.6411 23.0652 26.3583C21.6836 27.9192 22.0527 30.4399 23.8141 31.4524C25.6387 32.486 27.7375 31.811 28.6129 29.902C28.8449 29.4063 28.8766 29.2165 28.8344 28.4149L28.8027 27.4973L32.473 23.7321L36.1539 19.9563H39.0121H41.8809L47.6711 14.1661L53.4613 8.37585L52.9445 8.31257C52.1535 8.2071 48.3566 7.82741 48.1141 7.82741C47.9559 7.82741 48.2934 7.42663 49.348 6.37194L50.793 4.92702L49.6012 3.73522L48.4094 2.54343L47.1016 3.86179C46.3844 4.58952 45.7832 5.1696 45.7516 5.1485C45.7305 5.12741 45.6039 4.03054 45.4773 2.72272C45.3402 1.40436 45.2137 0.307489 45.182 0.286396C45.1609 0.265301 42.5453 2.83874 39.3707 6.01335Z" fill="white"/>
<path d="M24.6367 4.42076C15.1235 4.72662 6.47502 10.6645 2.6887 19.4817C-0.137866 26.0735 0.0625241 33.7305 3.21604 40.1536C4.46057 42.6848 5.73674 44.4883 7.70901 46.5133C10.177 49.0657 12.7926 50.8587 15.9145 52.1665C26.5035 56.6067 38.5903 53.295 45.509 44.0665C48.0192 40.7231 49.6434 36.6731 50.2129 32.37C50.4133 30.7669 50.4239 27.7294 50.2129 26.1051C50.0125 24.5337 49.4324 22.1606 48.9367 20.8317C48.4621 19.5555 47.9348 18.3743 47.8504 18.3743C47.8188 18.3743 47.0067 19.1547 46.0469 20.1145L44.3172 21.8442L44.6547 22.8778C45.8043 26.4848 46.0047 29.67 45.2981 33.2454C43.6422 41.5669 36.7973 48.0215 28.3176 49.2239C26.8727 49.4243 24.1727 49.4243 22.7489 49.2239C14.227 47.9794 7.46643 41.5563 5.74729 33.0766C5.42034 31.4313 5.34651 28.2567 5.59963 26.4637C6.21135 22.1395 8.20471 18.1317 11.2949 15.052C16.1254 10.211 22.9387 8.1649 29.6781 9.536L30.775 9.75748L32.6102 7.92233C33.6121 6.92037 34.4031 6.06607 34.361 6.02389C34.2028 5.86568 31.7981 5.16959 30.5957 4.92701C28.5707 4.52623 26.6406 4.35748 24.6367 4.42076Z" fill="white"/>
<path d="M24.3731 15.2102C18.4668 15.7376 13.6153 20.0512 12.3918 25.8731C12.1176 27.1809 12.0649 29.5751 12.2864 30.8196C13.2883 36.5044 17.7496 40.913 23.4239 41.8516C25.0586 42.1153 27.2735 42.0098 28.8871 41.5985C33.2008 40.4805 36.734 37.2426 38.2211 33.0344C38.7907 31.4208 38.9278 30.5348 38.9172 28.552C38.9172 27.1176 38.875 26.5692 38.6957 25.8098C38.4742 24.8606 37.9153 23.2048 37.7043 22.9094C37.62 22.7829 37.3668 22.9938 36.3543 24.0591L35.1098 25.3669L35.3102 26.1157C35.5739 27.0649 35.6688 29.0372 35.5106 30.0813C35.3313 31.2204 34.7617 32.8024 34.1711 33.7938C33.5594 34.8063 32.1672 36.2829 31.1864 36.9368C30.3215 37.5169 29.2141 38.0231 28.1594 38.329C27.4422 38.5399 27.0836 38.5716 25.586 38.5716C23.6664 38.5716 23.1813 38.4872 21.6203 37.8438C18.7727 36.6837 16.5262 34.0469 15.7563 30.9673C15.4504 29.7649 15.4293 27.4762 15.7035 26.3477C16.7899 21.9602 20.4496 18.87 24.9532 18.5325C25.7758 18.4692 27.6215 18.6485 28.1278 18.8489C28.2438 18.8911 28.6551 18.5114 29.541 17.5727L30.7961 16.2227L30.3215 16.0223C29.4778 15.6743 27.9485 15.3262 26.6723 15.2208C25.9867 15.1575 25.3856 15.1153 25.3223 15.1259C25.2696 15.1259 24.8371 15.168 24.3731 15.2102Z" fill="white"/>
</svg>
