<svg width="54" height="33" viewBox="0 0 54 33" fill="none" xmlns="http://www.w3.org/2000/svg">
<path d="M24.9947 0.582001C21.8179 0.972502 19.3166 1.65852 16.467 2.91446C11.2216 5.23635 6.06069 9.1097 1.38522 14.239C-0.461741 16.2654 -0.461741 16.4342 1.38522 18.4606C7.46438 25.1308 14.3879 29.6796 21.0369 31.3894C23.4011 31.991 24.467 32.1282 27 32.1282C29.533 32.1282 30.5989 31.991 32.9631 31.3894C39.6121 29.6796 46.5356 25.1308 52.6148 18.4606C54.4617 16.4342 54.4617 16.2654 52.6148 14.239C46.6095 7.65324 39.7493 3.11498 33.1847 1.363C31.0739 0.803637 29.6702 0.603109 27.4222 0.571447C26.2929 0.550339 25.1953 0.560892 24.9947 0.582001ZM27.4855 8.23372C27.6755 8.4448 27.686 8.68754 27.7177 12.0332L27.7493 15.6005L31.3166 15.6321C35.4749 15.6638 35.3377 15.6321 35.3377 16.6348C35.3377 17.9646 34.7467 19.8116 33.9446 20.9619C30.8734 25.4052 24.7098 25.9751 21.0158 22.144C18.6834 19.706 18.0185 16.2232 19.3166 13.1097C20.5092 10.2179 23.6121 8.06485 26.6412 8.02263C27.1689 8.01208 27.3166 8.0543 27.4855 8.23372Z" fill="white"/>
</svg>
