<svg width="30" height="28" viewBox="0 0 30 28" fill="none" xmlns="http://www.w3.org/2000/svg">
<path d="M24.4094 0H5.25738C2.6285 0 0.497375 2.13112 0.497375 4.76V23.1952C0.497375 25.8241 2.6285 27.9552 5.25738 27.9552H24.4094C27.0383 27.9552 29.1694 25.8241 29.1694 23.1952V4.76C29.1694 2.13112 27.0383 0 24.4094 0Z" fill="#470137"/>
<path d="M15.5701 7.35166L11.9925 13.2566L15.8201 19.527C15.8448 19.5709 15.8516 19.6224 15.8394 19.6712C15.8334 19.692 15.8207 19.6972 15.8011 19.698L15.7793 19.6976L15.7529 19.697C15.7386 19.697 15.7226 19.6976 15.7048 19.7006H12.9451L12.8909 19.6997C12.7421 19.6957 12.6349 19.6745 12.5696 19.5654C12.3143 19.0679 12.0578 18.5711 11.8002 18.0748C11.5698 17.6321 11.3331 17.1928 11.0901 16.7569L10.9828 16.5649C10.6923 16.0485 10.407 15.5292 10.1269 15.007H10.1077C9.84906 15.5237 9.58296 16.0366 9.30944 16.5456C9.03355 17.0586 8.76105 17.5683 8.49195 18.0748C8.22265 18.5815 7.94696 19.0849 7.66494 19.5846C7.61958 19.6866 7.54421 19.7078 7.43926 19.7113L7.39558 19.712H4.76056L4.74913 19.7123L4.7115 19.7157C4.69056 19.7169 4.67801 19.7124 4.67398 19.6808C4.66681 19.6339 4.67709 19.586 4.70288 19.5462L8.41501 13.4489L4.79897 7.33262C4.7606 7.28155 4.75417 7.23989 4.77971 7.20763C4.7939 7.1912 4.81173 7.17829 4.83177 7.16994C4.85181 7.16158 4.87352 7.15799 4.89518 7.15947H7.60715C7.66629 7.15627 7.72541 7.16614 7.7803 7.18837C7.82622 7.21446 7.86576 7.25064 7.89566 7.29421C8.12646 7.80717 8.38294 8.32005 8.6651 8.83286C8.94505 9.34236 9.23036 9.84889 9.52101 10.3524C9.8072 10.848 10.0735 11.3549 10.3192 11.8719H10.3385C10.5903 11.3551 10.85 10.8421 11.1175 10.3332C11.3801 9.8331 11.6494 9.32977 11.9252 8.82323C12.1974 8.32326 12.4635 7.81997 12.7234 7.31347C12.7382 7.26598 12.7646 7.22298 12.8004 7.18837C12.8479 7.1643 12.9013 7.15427 12.9543 7.15947H15.4739C15.4971 7.1537 15.5215 7.1556 15.5435 7.1649C15.5655 7.17419 15.5839 7.19038 15.5959 7.21101C15.6079 7.23165 15.6128 7.25563 15.61 7.27934C15.6072 7.30305 15.5968 7.32521 15.5803 7.34248L15.5701 7.35166ZM21.2228 19.9486L21.0902 19.9501C20.2048 19.9636 19.3276 19.7797 18.5223 19.4116C17.7721 19.0644 17.145 18.4976 16.724 17.7863C16.2993 17.081 16.0815 16.2024 16.0704 15.1503L16.07 15.0647C16.0628 14.1819 16.2884 13.3128 16.7241 12.545C17.1601 11.7851 17.7958 11.1589 18.5622 10.7344L18.6282 10.6986C19.4615 10.2369 20.468 10.0061 21.6479 10.0061L21.6994 10.0066L21.7584 10.0085L21.8244 10.0114L21.8979 10.0157L22.0213 10.0244L22.1611 10.0356L22.2634 10.0446V6.25541C22.2634 6.16573 22.3018 6.12086 22.3787 6.12078H24.8023C24.818 6.11854 24.8339 6.11997 24.849 6.12497C24.864 6.12997 24.8776 6.13841 24.8888 6.1496C24.9 6.1608 24.9085 6.17445 24.9135 6.18947C24.9185 6.20449 24.9199 6.22047 24.9176 6.23614V17.6036C24.9176 17.7945 24.925 18 24.9398 18.22L24.9757 18.719L24.9947 19.0076C24.9971 19.0476 24.9873 19.0873 24.9667 19.1217C24.9461 19.156 24.9156 19.1833 24.8792 19.2C24.254 19.4607 23.6028 19.6541 22.9366 19.7769C22.371 19.8814 21.7978 19.9388 21.2228 19.9486ZM22.2634 17.5651V12.3142C22.1594 12.286 22.0533 12.2667 21.9461 12.2565C21.815 12.2432 21.6834 12.2368 21.5517 12.2372C21.085 12.2325 20.6237 12.338 20.2054 12.545C19.7979 12.7477 19.45 13.0525 19.1956 13.4298C18.9416 13.8012 18.8103 14.2861 18.8017 14.8847L18.8012 14.9493C18.7919 15.3685 18.8604 15.7859 19.0032 16.1802C19.1194 16.4979 19.3032 16.7867 19.5419 17.0266C19.7702 17.2472 20.0468 17.4118 20.3496 17.5074C20.6695 17.6109 21.0039 17.6629 21.3401 17.6614C21.5196 17.6614 21.6863 17.6549 21.8402 17.642C21.963 17.6328 22.0848 17.6125 22.204 17.5815L22.2634 17.5651Z" fill="#FF61F6"/>
</svg>
