<svg width="24" height="24" viewBox="0 0 24 24" fill="none" xmlns="http://www.w3.org/2000/svg">
<path d="M12 0C9.62663 0 7.30655 0.703788 5.33316 2.02236C3.35977 3.34094 1.8217 5.21509 0.913451 7.4078C0.00519943 9.60051 -0.232441 12.0133 0.230582 14.3411C0.693605 16.6689 1.83649 18.8071 3.51472 20.4853C5.19295 22.1635 7.33115 23.3064 9.65892 23.7694C11.9867 24.2324 14.3995 23.9948 16.5922 23.0866C18.7849 22.1783 20.6591 20.6402 21.9776 18.6668C23.2962 16.6935 24 14.3734 24 12C24 8.8174 22.7357 5.76516 20.4853 3.51472C18.2349 1.26428 15.1826 0 12 0ZM18.527 15.34H12.5V14.406H18.526L18.527 15.34ZM17.788 6.61C17.788 6.61 17.376 7.153 17.595 8.605C18.005 11.329 16.575 13.755 14.035 13.755H12.165C12.165 13.755 10.33 13.663 9.23201 14.765C5.96901 18.034 5.19201 18.881 4.95801 18.998C4.80801 19.078 4.77001 18.905 4.77001 18.905L14.414 7.014C14.211 4.869 16.754 4.299 17.692 5.884L18.576 5.636L17.788 6.61ZM16.189 5.996C16.0945 5.99481 16.0018 6.02176 15.9227 6.07343C15.8436 6.12509 15.7817 6.19913 15.7448 6.28611C15.7079 6.37309 15.6977 6.46909 15.7156 6.56187C15.7334 6.65465 15.7785 6.74002 15.845 6.80712C15.9115 6.87421 15.9965 6.91998 16.0891 6.93862C16.1818 6.95725 16.2778 6.94789 16.3651 6.91174C16.4524 6.87559 16.527 6.81427 16.5793 6.73561C16.6317 6.65694 16.6594 6.56448 16.659 6.47C16.6585 6.34514 16.6089 6.22547 16.521 6.13681C16.4331 6.04814 16.3139 5.99757 16.189 5.996Z" fill="#00B2A9"/>
</svg>
