<svg width="29" height="28" viewBox="0 0 29 28" fill="none" xmlns="http://www.w3.org/2000/svg">
<path d="M17.6334 13.4312L7.948 11.725V24.3329C7.94788 24.4699 7.97482 24.6056 8.02726 24.7322C8.0797 24.8588 8.15661 24.9738 8.25359 25.0706C8.35057 25.1674 8.46571 25.2442 8.5924 25.2964C8.71909 25.3486 8.85484 25.3753 8.99187 25.375H25.7044C25.8416 25.3756 25.9775 25.349 26.1044 25.2969C26.2313 25.2448 26.3466 25.1681 26.4438 25.0712C26.541 24.9744 26.618 24.8593 26.6706 24.7326C26.7231 24.6059 26.7501 24.47 26.75 24.3329V19.6875L17.6334 13.4312Z" fill="#185C37"/>
<path d="M17.6334 2.625H8.99187C8.85484 2.62466 8.71909 2.65136 8.5924 2.70359C8.46571 2.75582 8.35057 2.83254 8.25359 2.92936C8.15661 3.02617 8.0797 3.14118 8.02726 3.26778C7.97482 3.39439 7.94788 3.53009 7.948 3.66713V8.3125L17.6334 14L22.7617 15.7063L26.75 14V8.3125L17.6334 2.625Z" fill="#21A366"/>
<path d="M7.948 8.3125H17.6334V14H7.948V8.3125Z" fill="#107C41"/>
<path opacity="0.1" d="M14.8797 7.17499H7.948V21.3937H14.8797C15.156 21.3924 15.4205 21.2822 15.6161 21.0871C15.8116 20.8921 15.9224 20.6278 15.9245 20.3516V8.21711C15.9224 7.94091 15.8116 7.67664 15.6161 7.48158C15.4205 7.28651 15.156 7.17636 14.8797 7.17499Z" fill="black"/>
<path opacity="0.2" d="M14.3101 7.74377H7.948V21.9625H14.3101C14.5863 21.9612 14.8509 21.851 15.0464 21.6559C15.242 21.4609 15.3528 21.1966 15.3549 20.9204V8.7859C15.3528 8.5097 15.242 8.24543 15.0464 8.05037C14.8509 7.8553 14.5863 7.74515 14.3101 7.74377Z" fill="black"/>
<path opacity="0.2" d="M14.3101 7.74377H7.948V20.825H14.3101C14.5863 20.8237 14.8509 20.7135 15.0464 20.5184C15.242 20.3234 15.3528 20.0591 15.3549 19.7829V8.7859C15.3528 8.5097 15.242 8.24543 15.0464 8.05037C14.8509 7.8553 14.5863 7.74515 14.3101 7.74377Z" fill="black"/>
<path opacity="0.2" d="M13.7405 7.74377H7.948V20.825H13.7405C14.0167 20.8237 14.2812 20.7135 14.4768 20.5184C14.6724 20.3234 14.7832 20.0591 14.7852 19.7829V8.7859C14.7832 8.5097 14.6724 8.24543 14.4768 8.05037C14.2812 7.8553 14.0167 7.74515 13.7405 7.74377Z" fill="black"/>
<path d="M3.29475 7.74378H13.7405C14.0172 7.74355 14.2827 7.85318 14.4786 8.0486C14.6745 8.24401 14.7848 8.5092 14.7853 8.78591V19.2142C14.7848 19.4909 14.6745 19.7561 14.4786 19.9515C14.2827 20.1469 14.0172 20.2565 13.7405 20.2563H3.29475C3.15764 20.2567 3.0218 20.2301 2.895 20.1779C2.76821 20.1258 2.65297 20.0491 2.5559 19.9522C2.45883 19.8554 2.38184 19.7404 2.32934 19.6137C2.27685 19.487 2.24988 19.3513 2.25 19.2142V8.78591C2.24988 8.6488 2.27685 8.51302 2.32934 8.38636C2.38184 8.2597 2.45883 8.14465 2.5559 8.04782C2.65297 7.951 2.76821 7.87429 2.895 7.82212C3.0218 7.76994 3.15764 7.74332 3.29475 7.74378Z" fill="url(#paint0_linear_118_42)"/>
<path d="M5.48749 17.3889L7.68461 13.9904L5.67211 10.6111H7.28824L8.38636 12.775C8.48786 12.9798 8.56136 13.132 8.59461 13.2335H8.60949C8.68124 13.0696 8.75707 12.9104 8.83699 12.7558L10.0112 10.6146H11.4987L9.43461 13.9746L11.5512 17.3915H9.96836L8.69961 15.0194C8.64087 14.9173 8.59082 14.8105 8.54999 14.7H8.52899C8.4919 14.8077 8.44258 14.9107 8.38199 15.0071L7.07561 17.3889H5.48749Z" fill="white"/>
<path d="M25.7052 2.62501H17.6334V8.31251H26.75V3.66713C26.7501 3.53002 26.7231 3.39424 26.6706 3.26758C26.6181 3.14092 26.5412 3.02588 26.4441 2.92905C26.347 2.83222 26.2318 2.75552 26.105 2.70334C25.9782 2.65117 25.8423 2.62454 25.7052 2.62501Z" fill="#33C481"/>
<path d="M17.6334 14H26.75V19.6875H17.6334V14Z" fill="#107C41"/>
<defs>
<linearGradient id="paint0_linear_118_42" x1="4.43225" y1="6.92478" x2="12.603" y2="21.0753" gradientUnits="userSpaceOnUse">
<stop stop-color="#18884F"/>
<stop offset="0.5" stop-color="#117E43"/>
<stop offset="1" stop-color="#0B6631"/>
</linearGradient>
</defs>
</svg>
