<svg width="20" height="28" viewBox="0 0 20 28" fill="none" xmlns="http://www.w3.org/2000/svg">
<g clip-path="url(#clip0_126_846)">
<path d="M5.33332 28C7.90932 28 9.99999 25.9094 9.99999 23.3334V18.6667H5.33332C2.75732 18.6667 0.666656 20.7574 0.666656 23.3334C0.666656 25.9094 2.75732 28 5.33332 28Z" fill="#0ACF83"/>
<path d="M0.666656 14C0.666656 11.424 2.75732 9.33331 5.33332 9.33331H9.99999V18.6666H5.33332C2.75732 18.6666 0.666656 16.576 0.666656 14Z" fill="#A259FF"/>
<path d="M0.666656 4.66667C0.666656 2.09067 2.75732 0 5.33332 0H9.99999V9.33333H5.33332C2.75732 9.33333 0.666656 7.24267 0.666656 4.66667Z" fill="#F24E1E"/>
<path d="M10 0H14.6667C17.2427 0 19.3333 2.09067 19.3333 4.66667C19.3333 7.24267 17.2427 9.33333 14.6667 9.33333H10V0Z" fill="#FF7262"/>
<path d="M19.3333 14C19.3333 16.576 17.2427 18.6666 14.6667 18.6666C12.0907 18.6666 10 16.576 10 14C10 11.424 12.0907 9.33331 14.6667 9.33331C17.2427 9.33331 19.3333 11.424 19.3333 14Z" fill="#1ABCFE"/>
</g>
<defs>
<clipPath id="clip0_126_846">
<rect width="18.6667" height="28" fill="white" transform="translate(0.666656)"/>
</clipPath>
</defs>
</svg>
