<svg width="29" height="28" viewBox="0 0 29 28" fill="none" xmlns="http://www.w3.org/2000/svg">
<g clip-path="url(#clip0_126_866)">
<path d="M3.98914 22.5916L7.43554 0.538554C7.45618 0.406759 7.51771 0.284779 7.61143 0.189844C7.70515 0.0949087 7.82632 0.031816 7.95784 0.00947728C8.08936 -0.0128614 8.22457 0.00668283 8.34438 0.0653496C8.46419 0.124016 8.56254 0.218841 8.62554 0.336429L12.1899 6.98424L13.6104 4.27918C13.6644 4.17657 13.7454 4.09067 13.8447 4.03074C13.944 3.97081 14.0577 3.93914 14.1737 3.93914C14.2897 3.93914 14.4034 3.97081 14.5027 4.03074C14.6019 4.09067 14.683 4.17657 14.737 4.27918L24.3554 22.5916H3.98914Z" fill="#FFA000"/>
<path d="M15.8955 14.0011L12.1881 6.98096L3.98914 22.5916L15.8955 14.0011Z" fill="#F57C00"/>
<path d="M24.3554 22.5916L21.7158 6.25715C21.6963 6.14201 21.6454 6.03445 21.5689 5.94625C21.4923 5.85805 21.393 5.79261 21.2818 5.75709C21.1705 5.72166 21.0517 5.71749 20.9383 5.74503C20.8249 5.77258 20.7212 5.83078 20.6386 5.91327L3.98914 22.5914L13.2018 27.7579C13.4863 27.9167 13.8067 28.0001 14.1326 28.0001C14.4584 28.0001 14.7788 27.9167 15.0634 27.7579L24.3554 22.5916Z" fill="#FFCA28"/>
<path d="M21.7157 6.25715C21.6962 6.14201 21.6454 6.03445 21.5689 5.94625C21.4923 5.85805 21.393 5.79261 21.2817 5.75709C21.1706 5.72163 21.0517 5.71742 20.9383 5.74493C20.8249 5.77244 20.7212 5.8306 20.6386 5.91305L17.334 9.22646L14.7354 4.27921C14.6814 4.1766 14.6004 4.0907 14.5011 4.03077C14.4019 3.97084 14.2881 3.93917 14.1722 3.93917C14.0562 3.93917 13.9424 3.97084 13.8432 4.03077C13.7439 4.0907 13.6629 4.1766 13.6089 4.27921L12.1883 6.98405L8.624 0.336461C8.56092 0.21871 8.4624 0.123788 8.34238 0.0651342C8.22236 0.00648075 8.08694 -0.0129308 7.95528 0.00964832C7.82371 0.0322212 7.70256 0.0955857 7.60898 0.19078C7.51539 0.285975 7.45411 0.408182 7.43378 0.540117L3.98912 22.5916H3.97797L3.9889 22.6043L4.07969 22.649L20.6338 6.07559C20.7164 5.99267 20.8202 5.9341 20.9338 5.90633C21.0475 5.87856 21.1666 5.88266 21.2781 5.91817C21.3896 5.95369 21.4892 6.01924 21.5658 6.10764C21.6425 6.19603 21.6933 6.30385 21.7127 6.41924L24.33 22.6074L24.3554 22.5914L21.7157 6.25715ZM4.01931 22.5615L7.43531 0.696086C7.45561 0.56408 7.51691 0.441802 7.61054 0.346561C7.70417 0.251321 7.82539 0.187942 7.95703 0.165398C8.08871 0.142838 8.22416 0.162282 8.34417 0.220976C8.46419 0.27967 8.5627 0.374639 8.62575 0.49243L12.1896 7.14024L13.6104 4.43518C13.6644 4.33257 13.7454 4.24667 13.8447 4.18674C13.944 4.12681 14.0577 4.09514 14.1737 4.09514C14.2896 4.09514 14.4034 4.12681 14.5027 4.18674C14.6019 4.24667 14.683 4.33257 14.737 4.43518L17.2828 9.27721L4.01887 22.5615H4.01931Z" fill="white" fill-opacity="0.2"/>
<path opacity="0.2" d="M15.0633 27.6019C14.7788 27.7607 14.4584 27.8441 14.1326 27.8441C13.8067 27.8441 13.4863 27.7607 13.2018 27.6019L4.01099 22.4503L3.98868 22.5919L13.2013 27.7566C13.4859 27.9154 13.8063 27.9988 14.1321 27.9988C14.458 27.9988 14.7784 27.9154 15.0629 27.7566L24.3554 22.5919L24.3313 22.4453L15.0629 27.6023L15.0633 27.6019Z" fill="#A52714"/>
</g>
<defs>
<clipPath id="clip0_126_866">
<rect width="28" height="28" fill="white" transform="translate(0.166687)"/>
</clipPath>
</defs>
</svg>
