<svg width="29" height="28" viewBox="0 0 29 28" fill="none" xmlns="http://www.w3.org/2000/svg">
<g clip-path="url(#clip0_126_873)">
<path d="M9.03393 23.7634C6.0982 22.0431 3.59088 17.89 2.29501 14.2471C1.77449 12.6669 1.59621 10.9727 0.925197 9.45345C0.223283 8.35007 1.04551 7.14383 2.2541 6.79312C2.79223 6.68981 3.73843 6.18226 2.59628 6.54506C1.57237 7.2963 1.47327 5.8631 2.52322 5.77232C3.23979 5.67717 3.5036 5.09053 3.25855 4.56247C2.48937 4.06088 5.12372 3.50957 3.7982 2.76112C2.41734 1.27143 5.72966 0.984595 4.91246 2.67652C4.71684 3.97753 7.22695 2.43808 6.64458 3.9404C7.23652 4.66189 8.86123 4.10463 8.82092 5.11684C9.68324 5.17612 9.9792 5.9016 10.7887 5.95738C11.6276 6.3362 13.1485 6.63474 13.434 7.58018C12.6016 8.23916 10.6743 6.21901 10.5817 8.04306C10.9329 14.4773 11.2657 16.6957 14.3726 20.0664C16.4654 22.4343 19.3411 23.551 21.7688 23.9485C22.2917 23.5485 23.2149 22.0615 24.0307 22.6885C24.0694 23.3931 22.4116 24.1614 23.9527 24.0836C24.8576 23.8106 25.4854 24.7834 26.2305 23.9058C26.9171 24.7191 29.0841 23.3863 28.5956 25.0486C27.9351 25.4747 26.9717 25.2172 26.3101 25.8035C25.2192 25.2586 24.3506 26.291 23.143 26.1604C18.4873 26.9753 12.4202 26.2403 9.03393 23.7634ZM14.506 25.7771C16.5357 26.0594 18.6318 26.4936 20.6687 26.0975C19.7468 25.6812 18.7937 26.2597 17.8753 25.7998C16.7737 26.0369 15.5917 25.7394 14.4718 25.593C13.1984 25.0258 11.8241 24.6357 10.6316 23.8995C9.14145 23.3552 11.4022 24.5975 11.8046 24.6981C12.7362 25.2268 10.7803 24.427 10.5045 24.2072C9.72436 23.7695 9.6052 23.8716 10.4076 24.316C11.6587 25.0911 13.2267 25.6166 14.506 25.7771ZM8.69667 23.0099C9.82783 23.4289 8.69164 22.2144 8.17331 22.285C7.94363 21.8866 7.29591 21.6349 7.75282 21.4209C6.93087 21.7062 6.89182 20.3358 6.5054 20.5315C5.63587 20.257 6.16699 19.2843 5.13121 18.687C5.03666 18.0576 4.1021 17.5118 3.80406 16.5624C3.67237 16.0763 2.7482 14.6805 3.31592 15.9795C3.79935 17.23 4.64985 18.301 5.35762 19.3707C5.90723 20.3891 6.55615 21.4536 7.55704 22.0889C7.89446 22.4126 8.22018 22.9085 8.69667 23.0099ZM10.1534 21.0388C9.53454 20.7089 8.18715 20.5382 9.13795 21.2929C9.74831 21.5395 11.3039 21.6592 10.1535 21.0388M11.1909 22.3505C12.5201 22.7265 10.0731 21.5099 10.8629 22.2121L11.1909 22.3505ZM11.2021 21.6461C12.1678 21.7706 10.0531 20.9893 10.9903 21.5762L11.2021 21.6461ZM14.5583 23.7097C15.4599 23.1707 15.1626 24.9719 16.0879 23.8619C17.0005 23.1955 15.2998 24.6857 16.4246 23.9807C17.238 23.4366 18.4395 24.2386 19.1985 24.5002C19.7444 24.4734 20.2751 24.9723 20.8346 24.6688C21.9119 24.3786 18.7282 24.2384 19.5628 23.7237C18.5771 24.0105 17.8488 23.3817 17.3638 22.7504C16.2582 22.495 14.9799 21.9298 14.4281 20.9514C14.2031 20.584 14.7531 21.0031 14.2339 20.4026C13.5677 19.8101 13.235 19.1374 12.7878 18.4171C12.2535 18.1321 12.1913 17.2932 12.1372 18.389C12.1415 17.6974 11.4922 17.2319 11.3337 17.4254C11.3309 16.7593 12.0286 17.0932 11.5401 16.6004C11.435 15.9101 11.0889 15.1907 10.9849 14.4113C10.8232 14.0356 10.9621 13.2309 10.4331 14.0814C10.2404 14.9803 10.3691 12.9769 10.6688 13.6375C11.0622 12.9633 10.5276 13.0426 10.5057 13.1363C10.7619 12.5674 10.6679 11.7606 10.4389 12.0684C10.5754 11.4656 10.6546 9.84971 10.2345 10.136C10.4892 9.50562 10.7174 7.25134 9.61209 8.11081C9.16409 8.1171 8.38834 8.27345 8.02167 8.45578C9.17142 9.08961 7.906 8.6847 7.43799 8.58397C7.37695 9.17038 6.91342 8.91674 6.33428 8.92249C7.25927 9.03695 5.88382 9.86858 5.35319 9.54554C4.66396 9.87492 5.94792 10.6971 5.36697 10.9513C5.43839 11.3346 4.31117 10.813 4.39966 11.698C3.73061 11.4166 4.30756 12.7479 4.64231 12.2977C5.78024 12.6056 5.44337 13.3078 5.47235 13.9748C5.28696 14.3635 4.55694 13.0612 5.30977 13.1216C4.71586 12.1568 4.65281 12.7728 4.15925 13.221C4.04446 13.2536 5.41816 13.8587 4.55606 14.158C5.31452 14.275 5.33607 14.9387 5.49051 15.3587C5.94633 15.8335 5.85309 14.8344 6.39849 15.405C6.05335 14.8967 4.57023 13.9727 5.76433 14.2691C5.75793 13.7574 5.54831 13.3448 5.91417 13.3549C6.27648 12.6988 5.53475 14.9725 6.3514 14.1387C6.57742 14.04 6.63342 13.4818 7.03975 14.1914C7.62994 14.772 7.25292 15.1927 6.42042 14.6611C6.56938 15.1664 7.53407 15.3469 7.35284 16.1371C7.54501 16.8319 7.81385 16.576 8.04824 16.5358C8.2321 17.211 8.3365 16.7145 8.3452 16.3932C9.18711 16.5734 8.98991 17.0711 9.25334 17.4187C9.83341 17.6806 8.42302 15.6439 9.41893 16.8063C10.4667 17.7523 9.8176 18.0784 8.87156 17.9957C9.65841 18.0601 9.67492 18.761 10.4031 18.7703C11.0359 19.0967 11.5347 20.3209 10.3646 19.8046C9.70478 19.3953 8.52938 19 9.70243 19.696C9.98008 19.8717 11.6463 20.4979 12.6912 21.1276C13.2698 21.5231 13.7621 22.2729 14.0455 22.3939C13.417 22.6942 12.1515 22.1542 13.0913 21.9887C12.5051 21.882 11.8661 21.5813 12.4072 22.3159C12.8725 22.7413 14.0986 22.6723 14.3162 22.7174C14.1317 23.1239 13.8151 23.1562 14.3238 23.1877C13.7564 23.4901 14.5057 23.537 14.5583 23.7097ZM13.3367 19.9842C12.9636 19.3958 13.0528 20.0721 13.398 20.4331C13.9498 21.0893 13.5281 20.0611 13.3367 19.9842ZM11.2766 16.9404C11.2766 16.9404 11.3685 16.3197 11.0848 16.2511C10.8009 16.1824 10.9573 16.2967 11.1844 16.7881C11.2385 16.9053 11.272 16.9459 11.2716 16.9432M8.17014 14.5877C7.88823 13.9564 8.30429 14.2992 8.2437 14.0299C8.11354 13.7592 6.84873 12.3217 7.42486 13.407C7.94625 14.7016 7.09684 13.2444 7.00825 12.8033C6.91031 13.0742 7.21453 13.9614 7.39845 14.2638C7.86663 14.9848 7.65608 13.8689 8.17014 14.5877ZM5.57992 12.0981C4.84788 11.4824 5.80562 12.4016 5.50834 12.3901C4.73686 11.8266 5.05224 12.2258 5.48799 12.6588C5.96006 13.3603 6.3497 12.2385 5.57992 12.0981ZM5.95579 12.204C7.34059 12.5845 4.48202 10.8677 5.7488 11.995L5.95579 12.204ZM9.78807 13.8408C9.3906 13.8488 9.9529 12.9753 9.42002 13.1476C9.23305 11.7899 8.83017 13.7751 9.37835 14.1038C9.54761 14.5901 9.7254 14.392 9.78807 13.8408M6.51858 11.9092C8.36248 12.7603 5.18349 10.5016 5.9973 11.6245C6.09404 11.8409 6.32586 11.8589 6.51858 11.9092ZM6.72989 11.4681C8.12645 12.0454 6.60564 11.0925 6.12199 11.196C6.24394 11.3744 6.57469 11.2964 6.72989 11.4681ZM6.91692 10.9456C7.37028 10.855 6.85677 10.7097 6.58584 10.4944C5.95885 9.55254 6.67909 10.5704 6.48205 10.8596C6.74296 11.1161 7.62999 11.5746 6.91692 10.9456ZM10.1241 9.48429C9.93901 10.4627 9.75017 10.0547 10.0156 9.32515C9.95208 8.3889 9.38311 9.89849 9.63456 10.3416C10.0503 11.0038 10.466 8.71423 10.1241 9.48429ZM10.677 21.1336C11.397 21.3184 11.3934 21.0216 10.7426 20.9334C10.3925 20.6078 9.28795 20.2624 10.2766 20.893C10.3421 21.0588 10.549 21.055 10.677 21.1336ZM8.12027 19.4356C8.51697 19.7314 9.61449 20.2739 8.68541 19.5481C8.99866 19.1842 8.08587 18.9905 8.38867 18.747C7.61845 18.2757 7.78109 18.3176 8.32064 18.3325C7.39506 17.9187 8.4543 17.9497 8.40442 17.7377C8.04748 17.6672 6.63162 17.1083 7.46456 17.7836C6.61778 17.3519 7.26277 17.9444 7.00683 17.8818C6.14096 17.6457 7.77792 18.5413 6.86934 18.3189C7.36607 18.7126 8.2064 19.3273 7.07935 18.7355C6.93081 18.9493 7.88588 19.2733 8.12027 19.4355M17.1172 24.7117C17.497 24.3436 17.1327 25.2979 17.7465 24.6216C17.7531 24.1374 17.7276 23.8515 17.0412 24.4396C16.8519 24.5446 16.7675 24.9908 17.1172 24.7117ZM10.8976 20.7184C11.32 21.0937 12.838 20.9938 11.4107 20.7646C11.1993 20.4521 10.0684 20.5272 10.8976 20.7184ZM3.93881 16.0442C3.32505 15.1685 3.55731 14.7749 2.96542 14.0599C2.85342 13.5132 1.95015 12.2725 2.49823 13.5869C3.00026 14.3556 3.1495 15.5459 3.93881 16.0442ZM22.1225 24.6865C22.7196 24.5655 24.0803 24.9904 24.3002 24.5282C23.5751 24.5106 21.7915 24.0166 21.7071 24.6461L22.1225 24.6865ZM1.7897 9.59788C1.68087 8.97406 1.54929 7.87905 2.59021 8.24906C1.20077 8.52491 3.55184 9.97604 3.25494 8.83034C3.83917 8.85894 4.39785 8.48504 4.09127 9.05248C5.24234 8.92533 6.04039 7.92712 7.1523 8.06701C8.01844 7.95238 8.96541 7.86549 9.8987 7.51685C10.6661 7.46156 11.4049 6.63529 10.9843 6.14562C9.93775 6.05708 8.84225 6.188 7.68561 6.41796C6.40384 6.6844 5.2396 7.19064 3.94635 7.40791C2.68581 7.57723 4.19994 7.87445 3.83884 7.94068C3.18106 8.16889 4.62327 8.32284 3.75352 8.56341C3.21649 8.46131 2.65737 8.27674 2.88678 7.71072C1.67928 7.8674 0.61829 8.36856 1.57226 9.59733L1.7897 9.59788ZM5.01686 8.25459C6.06959 8.97427 4.83595 7.07306 4.55284 8.11606C4.68436 8.08369 4.89113 8.16047 5.01686 8.25459ZM5.31655 7.7723C6.31449 7.8727 5.16364 7.13869 5.12678 7.59954L5.31655 7.7723ZM6.98906 7.16111C8.46206 6.88073 6.44962 6.69309 6.01808 7.2117C6.29152 7.33638 6.59421 6.86388 6.98906 7.16111ZM9.51562 6.6593C10.4468 6.51629 9.66202 6.08885 9.38956 6.80274C9.48833 7.02784 9.53585 6.73526 9.51562 6.6593ZM4.50652 10.4634C5.03283 10.4273 5.32995 9.8828 4.40469 9.91408C2.97073 9.76566 5.66988 10.4051 4.22077 10.2222C4.02603 10.3512 4.4952 10.499 4.50652 10.4634ZM3.76949 6.30602C4.70881 5.98648 5.89465 5.71506 6.42331 6.48572C6.02563 5.92468 6.25471 5.3853 6.681 6.17958C7.28388 6.98327 7.50017 5.97313 7.19353 5.54449C7.48529 6.00589 8.56827 7.01056 7.49267 5.5796C8.20542 4.72227 6.06566 5.69188 5.57932 5.68209C5.34526 5.78709 3.16339 6.23848 3.76949 6.30602ZM4.31998 5.25181C4.8557 4.84745 6.17279 5.49232 5.32759 4.84996C5.24502 4.77695 3.47675 5.33706 4.31998 5.25181ZM6.27303 5.33242C6.89997 5.34844 6.00255 4.49017 6.74969 4.87906C6.62697 4.4782 5.87983 4.40316 5.51457 4.24304C5.30796 4.6095 5.93512 5.33734 6.27303 5.33242ZM3.9702 2.58437C3.25888 1.65561 5.30813 2.74039 4.58532 1.76805C3.97698 1.28363 3.39242 2.31328 3.9702 2.58437ZM13.1 7.50187C13.4263 6.92349 11.7529 6.72219 12.8802 7.2969C12.984 7.33157 12.9605 7.5419 13.1 7.50187Z" fill="white"/>
</g>
<defs>
<clipPath id="clip0_126_873">
<rect width="28" height="28" fill="white" transform="translate(0.666687)"/>
</clipPath>
</defs>
</svg>
