<svg width="29" height="28" viewBox="0 0 29 28" fill="none" xmlns="http://www.w3.org/2000/svg">
<path d="M27.7862 12.7702L15.7296 0.714002C15.0357 0.0196897 13.9096 0.0196897 13.2146 0.714002L10.7113 3.21781L13.8871 6.39363C14.6253 6.14447 15.4715 6.3116 16.0597 6.89981C16.651 7.49175 16.8168 8.3451 16.5615 9.08578L19.6223 12.1468C20.3627 11.8915 21.2174 12.0564 21.8084 12.6488C22.6353 13.475 22.6353 14.8144 21.8084 15.6411C21.6119 15.8377 21.3786 15.9936 21.1218 16.1C20.8651 16.2064 20.5898 16.2612 20.3119 16.2612C20.0339 16.2612 19.7587 16.2064 19.5019 16.1C19.2451 15.9936 19.0118 15.8377 18.8153 15.6411C18.5201 15.3456 18.3189 14.9695 18.237 14.56C18.1551 14.1505 18.1961 13.7259 18.3548 13.3396L15.5006 10.4853L15.5001 17.9974C15.7072 18.0994 15.8963 18.2345 16.0599 18.3973C16.8863 19.2235 16.8863 20.5625 16.0599 21.3905C15.2333 22.2167 13.8934 22.2167 13.0676 21.3905C12.2412 20.5627 12.2412 19.2238 13.0676 18.3973C13.2658 18.1992 13.5013 18.0424 13.7604 17.9358V10.3541C13.501 10.2479 13.2654 10.0909 13.0676 9.89231C12.4416 9.26669 12.2908 8.34794 12.612 7.57881L9.481 4.44785L1.214 12.7144C0.880479 13.048 0.693115 13.5005 0.693115 13.9722C0.693115 14.444 0.880479 14.8964 1.214 15.23L13.2708 27.2862C13.9652 27.9805 15.0908 27.9805 15.7863 27.2862L27.7864 15.286C28.1199 14.9523 28.3072 14.4998 28.3071 14.0281C28.3071 13.5563 28.1197 13.1039 27.7862 12.7702Z" fill="#F34F29"/>
</svg>
