<svg width="26" height="28" viewBox="0 0 26 28" fill="none" xmlns="http://www.w3.org/2000/svg">
<g clip-path="url(#clip0_126_876)">
<path fill-rule="evenodd" clip-rule="evenodd" d="M15.3891 3.20474L21.1394 6.52488C21.3054 6.3492 21.4959 6.19844 21.705 6.07726C22.8976 5.39165 24.4187 5.79872 25.1114 6.99135C25.797 8.18397 25.39 9.70501 24.1973 10.3977C23.9898 10.5172 23.7661 10.6063 23.5332 10.6622V17.3049C23.7636 17.3608 23.9848 17.4493 24.1902 17.5676C25.39 18.2603 25.797 19.7814 25.1043 20.974C24.4187 22.1666 22.8905 22.5736 21.6979 21.8881C21.4668 21.7555 21.2587 21.5866 21.0815 21.3877L15.3662 24.6874C15.4498 24.9409 15.4923 25.2061 15.4921 25.473C15.4921 26.8441 14.3781 27.9654 12.9998 27.9654C11.6214 27.9654 10.5075 26.8512 10.5075 25.473C10.5075 25.228 10.5427 24.9914 10.6083 24.7678L4.85955 21.4487C4.69537 21.6209 4.50754 21.7688 4.30168 21.8881C3.10196 22.5736 1.58082 22.1666 0.895212 20.974C0.209698 19.7814 0.616767 18.2603 1.8093 17.5676C2.01473 17.4492 2.23596 17.3608 2.46632 17.3048V10.6622C2.23342 10.6063 2.00975 10.5172 1.8022 10.3977C0.609573 9.71221 0.202504 8.18397 0.888115 6.99135C1.57373 5.79872 3.10186 5.39165 4.29449 6.07726C4.50247 6.19779 4.69205 6.34758 4.85741 6.52206L10.6094 3.20104C10.5416 2.97091 10.5072 2.73221 10.5075 2.49229C10.5075 1.11417 11.6214 0 12.9998 0C14.3781 0 15.4921 1.11407 15.4921 2.49229C15.4921 2.74001 15.4561 2.97908 15.3891 3.20474ZM14.79 4.22771L20.554 7.55562C20.4623 7.87646 20.4359 8.21248 20.4766 8.5437C20.5173 8.87492 20.6242 9.19457 20.791 9.48364C21.1418 10.094 21.7134 10.4986 22.3478 10.6563V17.3073C22.3154 17.3152 22.2832 17.3238 22.2512 17.333L14.723 4.29431C14.7458 4.27253 14.7681 4.25026 14.79 4.22771ZM11.2781 4.29586L3.74995 17.3343C3.7174 17.3249 3.68466 17.3162 3.65175 17.3081V10.6564C4.28613 10.4987 4.8577 10.0941 5.20857 9.48374C5.37564 9.19411 5.48264 8.87379 5.52318 8.5419C5.56372 8.21001 5.53697 7.87335 5.44453 7.55203L11.2069 4.22508C11.2302 4.24913 11.2539 4.27279 11.2781 4.29586ZM13.6962 4.88639L21.2225 17.9219C21.0501 18.0865 20.9024 18.275 20.7838 18.4817C20.6655 18.6871 20.577 18.9083 20.5211 19.1387H5.47866C5.42264 18.9083 5.33413 18.6871 5.21577 18.4817C5.0968 18.2764 4.9493 18.089 4.77768 17.9252L12.3055 4.88697C12.5312 4.95198 12.7649 4.98484 12.9998 4.98458C13.2416 4.98458 13.4752 4.95036 13.6962 4.88639ZM14.8429 23.794L20.5695 20.4876C20.5523 20.4337 20.537 20.3791 20.5235 20.3241H5.47545C5.46748 20.3565 5.45886 20.3886 5.44959 20.4206L11.2042 23.7431C11.4366 23.5015 11.7154 23.3094 12.024 23.1784C12.3326 23.0473 12.6645 22.9801 12.9998 22.9807C13.3467 22.9801 13.69 23.0521 14.0074 23.1922C14.3249 23.3323 14.6095 23.5373 14.8429 23.794Z" fill="#E535AB"/>
</g>
<defs>
<clipPath id="clip0_126_876">
<rect width="24.8889" height="28" fill="white" transform="translate(0.555542)"/>
</clipPath>
</defs>
</svg>
