<svg width="28" height="28" viewBox="0 0 28 28" fill="none" xmlns="http://www.w3.org/2000/svg">
<path d="M15.575 1.85937L23.6031 6.51874C24.5438 7.06562 25.1344 8.09374 25.1344 9.18749V18.7469C25.1344 19.9719 24.4781 21.0875 23.4281 21.6781L15.4656 26.1625C14.4156 26.7531 13.125 26.7531 12.075 26.1406L4.74689 21.9187C3.58751 21.2625 2.88751 20.0375 2.88751 18.7031V9.64687C2.88751 8.31249 3.58751 7.06562 4.72501 6.36562L11.9 1.92499C13.0156 1.22499 14.4375 1.20312 15.575 1.85937Z" fill="#FF4088"/>
<path d="M13.7812 27.5625C13.0156 27.5625 12.2719 27.3656 11.5937 26.9719L4.26561 22.75C2.82186 21.9188 1.92499 20.3656 1.92499 18.7031V9.64689C1.92499 7.96252 2.77811 6.45314 4.19999 5.55627L11.3969 1.11564C12.8187 0.240643 14.5906 0.218768 16.0344 1.05002L24.0625 5.70939C25.3094 6.43127 26.075 7.76564 26.075 9.18752V18.7469C26.075 20.3 25.2437 21.7438 23.8875 22.5094L15.925 26.9938C15.2687 27.3656 14.525 27.5625 13.7812 27.5625ZM13.7812 2.34064C13.3 2.34064 12.8187 2.47189 12.4031 2.73439L5.18436 7.17502C4.30936 7.70002 3.80624 8.64064 3.80624 9.64689V18.725C3.80624 19.7094 4.33124 20.6281 5.18436 21.1313L12.5125 25.3531C13.2781 25.7906 14.2187 25.7906 14.9844 25.375L22.9469 20.8906C23.7125 20.4531 24.1719 19.6656 24.1719 18.7906V9.20939C24.1719 8.44377 23.7562 7.74377 23.1 7.35002L15.0937 2.69064C14.7 2.45002 14.2406 2.34064 13.7812 2.34064Z" fill="#C9177E"/>
<path d="M8.44376 21.1969V6.67188H11.4844V11.9656H16.5156V6.67188H19.5563V21.1969H16.5156V14.8531H11.4844V21.1969H8.44376Z" fill="white"/>
</svg>
