<svg width="28" height="28" viewBox="0 0 28 28" fill="none" xmlns="http://www.w3.org/2000/svg">
<g clip-path="url(#clip0_126_832)">
<path d="M0 0H28V28H0V0Z" fill="#F7DF1E"/>
<path d="M7.36223 23.3988L9.50489 22.1021C9.91833 22.835 10.2944 23.4551 11.1964 23.4551C12.061 23.4551 12.6062 23.1169 12.6062 21.8014V12.8547H15.2374V21.8386C15.2374 24.5639 13.6399 25.8044 11.3091 25.8044C9.20422 25.8044 7.98239 24.7143 7.36212 23.3986M16.6667 23.1168L18.8091 21.8764C19.3731 22.7975 20.1062 23.4741 21.4029 23.4741C22.4933 23.4741 23.1885 22.9289 23.1885 22.1771C23.1885 21.275 22.4742 20.9554 21.2713 20.4293L20.6137 20.1471C18.7152 19.3391 17.456 18.3241 17.456 16.1815C17.456 14.2079 18.9596 12.7042 21.3091 12.7042C22.9819 12.7042 24.1848 13.287 25.0493 14.8094L23.0005 16.1251C22.5493 15.317 22.0608 14.9975 21.309 14.9975C20.5383 14.9975 20.0496 15.4862 20.0496 16.1251C20.0496 16.9145 20.5383 17.2342 21.666 17.7229L22.3237 18.0048C24.5605 18.9634 25.8197 19.9407 25.8197 22.1396C25.8197 24.508 23.959 25.8047 21.4592 25.8047C19.0159 25.8047 17.4371 24.6394 16.6665 23.1169" fill="black"/>
</g>
<defs>
<clipPath id="clip0_126_832">
<rect width="28" height="28" fill="white"/>
</clipPath>
</defs>
</svg>
