<svg width="29" height="28" viewBox="0 0 29 28" fill="none" xmlns="http://www.w3.org/2000/svg">
<path fill-rule="evenodd" clip-rule="evenodd" d="M19.7583 9.36511C20.1094 10.3808 20.3623 11.4176 20.4454 12.4924C20.5487 13.8256 20.5014 15.1495 20.2203 16.4609C20.2127 16.497 20.1965 16.5309 20.1844 16.5659C20.0963 16.5661 20.0064 16.5552 19.9202 16.5685C19.192 16.683 18.4644 16.8015 17.7369 16.9194C16.9848 17.0413 16.2316 17.1583 15.4809 17.2885C15.2149 17.3344 14.8857 17.2795 14.7783 17.6474C14.7752 17.6575 14.7446 17.6592 14.7269 17.6649L14.7632 15.4663L14.7262 10.1611L15.0766 10.101C15.6498 10.0071 16.2229 9.91199 16.7964 9.82077C17.4809 9.71205 18.166 9.60639 18.8509 9.5003C19.153 9.45327 19.4556 9.41017 19.7583 9.36511Z" fill="#439934"/>
<path fill-rule="evenodd" clip-rule="evenodd" d="M14.0032 24.0743C13.6335 23.7565 13.2509 23.4526 12.8966 23.1184C10.9897 21.3198 9.59498 19.203 8.9081 16.6508C8.71889 15.9484 8.59267 15.2346 8.5522 14.5088C8.52376 14.0009 8.48264 13.4883 8.51851 12.983C8.6141 11.639 8.80835 10.3079 9.20254 9.01337L9.2242 8.98318C9.26248 9.03415 9.3176 9.07922 9.33707 9.13675C9.72178 10.2699 10.104 11.4038 10.4838 12.5385C11.6777 16.1042 12.8701 19.6707 14.066 23.2354C14.0894 23.305 14.15 23.3621 14.1935 23.4248L14.0032 24.0743Z" fill="#45A538"/>
<path fill-rule="evenodd" clip-rule="evenodd" d="M19.7583 9.36514C19.4555 9.4102 19.1528 9.45329 18.8507 9.49989C18.1658 9.60598 17.4807 9.71164 16.7962 9.82036C16.2226 9.91158 15.6495 10.0067 15.0764 10.1006L14.7259 10.1607L14.7233 9.93214C14.7117 9.74423 14.6918 9.55654 14.6896 9.36864C14.6745 8.17032 14.6651 6.97201 14.6503 5.7737C14.6411 5.02361 14.6273 4.27373 14.612 3.52386C14.6026 3.05792 14.5925 2.59176 14.5715 2.12648C14.5601 1.87645 14.5199 1.62773 14.5035 1.3777C14.4943 1.23398 14.507 1.08917 14.5098 0.944794C14.6885 1.29107 14.8633 1.63998 15.0471 1.98364C15.3373 2.52701 15.7998 2.92732 16.2161 3.36417C17.8617 5.09054 19.0301 7.09779 19.7583 9.36514Z" fill="#46A037"/>
<path fill-rule="evenodd" clip-rule="evenodd" d="M14.7266 17.6647C14.7443 17.659 14.7752 17.6573 14.778 17.6472C14.8854 17.2793 15.2147 17.3342 15.4807 17.2883C16.2314 17.1583 16.9846 17.0411 17.7366 16.9192C18.4642 16.8013 19.1918 16.6828 19.92 16.5683C20.0062 16.5548 20.0961 16.5659 20.1842 16.5657C20.0482 17.0513 19.941 17.5475 19.7684 18.0198C19.5724 18.5555 19.3353 19.0783 19.0835 19.5908C18.7068 20.3554 18.2403 21.0724 17.6938 21.7265C17.274 22.2313 16.8061 22.6979 16.3371 23.1589C16.0778 23.4137 15.7723 23.6213 15.4879 23.8503L15.4142 23.8L15.1486 23.5729L14.8738 22.9707C14.6862 22.2682 14.5838 21.5457 14.5689 20.8187L14.5739 20.6959L14.6113 20.1653C14.6238 19.9841 14.6404 19.8032 14.6481 19.6217C14.6763 18.9693 14.7008 18.317 14.7266 17.6647Z" fill="#409433"/>
<path fill-rule="evenodd" clip-rule="evenodd" d="M14.7266 17.6647C14.7008 18.317 14.6763 18.9694 14.6485 19.6219C14.6409 19.8034 14.6243 19.9844 14.6118 20.1655L14.4444 20.2287C14.0728 19.1345 13.7009 18.0519 13.3371 16.9665C12.7356 15.1708 12.1412 13.3722 11.5405 11.576C11.0554 10.1263 10.5668 8.67763 10.0749 7.23014C10.0519 7.16232 9.98588 7.10939 9.93994 7.04945L11.0109 5.08026C11.0477 5.14414 11.0963 5.20385 11.1194 5.27254C11.6155 6.73863 12.109 8.20557 12.5999 9.67335C13.2378 11.583 13.8718 13.4943 14.5092 15.4042C14.5346 15.4805 14.5766 15.5509 14.6166 15.6365L14.7632 15.4659L14.7266 17.6647Z" fill="#4FAA41"/>
<path fill-rule="evenodd" clip-rule="evenodd" d="M9.94018 7.04965C9.98611 7.10959 10.052 7.16253 10.0751 7.23034C10.5671 8.67783 11.0556 10.1265 11.5408 11.5762C12.1415 13.3724 12.7358 15.171 13.3374 16.9667C13.7009 18.0519 14.0728 19.1347 14.4447 20.2289L14.612 20.1657L14.5746 20.6964L14.5407 20.8187C14.4825 21.3997 14.4335 21.982 14.3626 22.5617C14.327 22.8522 14.2513 23.1374 14.1938 23.4251C14.1505 23.3623 14.0896 23.3052 14.0662 23.2356C12.8703 19.6707 11.6779 16.1044 10.484 12.5387C10.1042 11.404 9.72192 10.2701 9.3373 9.13696C9.31783 9.07943 9.26293 9.03437 9.22443 8.9834L9.94018 7.04965Z" fill="#4AA73C"/>
<path fill-rule="evenodd" clip-rule="evenodd" d="M14.763 15.4661L14.6164 15.6367C14.5764 15.5512 14.5344 15.4805 14.509 15.4044C13.8718 13.4945 13.2376 11.5833 12.5997 9.67357C12.1088 8.20579 11.6153 6.73885 11.1192 5.27276C11.0963 5.20407 11.0477 5.14413 11.0107 5.08048L12.3353 3.33813C12.3771 3.39392 12.4366 3.44357 12.4582 3.50635C12.8257 4.5829 13.1905 5.66046 13.5526 6.73904C13.891 7.74617 14.2244 8.75482 14.5667 9.76063C14.5897 9.82801 14.6696 9.8757 14.7229 9.93257L14.7256 10.1612C14.7382 11.9292 14.7507 13.6976 14.763 15.4661Z" fill="#57AE47"/>
<path fill-rule="evenodd" clip-rule="evenodd" d="M14.7234 9.93212C14.67 9.87525 14.5901 9.82756 14.5672 9.76019C14.2248 8.75437 13.8914 7.74572 13.553 6.73859C13.1909 5.66016 12.8261 4.58259 12.4586 3.50591C12.437 3.44312 12.3775 3.39347 12.3357 3.33769C12.7664 2.91594 13.1838 2.47909 13.6318 2.07681C14.0301 1.71937 14.3504 1.33612 14.365 0.771312C14.3657 0.747906 14.3779 0.7245 14.3968 0.658875L14.5103 0.944562C14.5074 1.08916 14.4945 1.23375 14.5039 1.37747C14.5203 1.6275 14.5606 1.87622 14.572 2.12625C14.593 2.59153 14.603 3.05769 14.6124 3.52362C14.6275 4.2735 14.6413 5.02337 14.6507 5.77347C14.6654 6.97178 14.675 8.17009 14.6901 9.36841C14.6919 9.55675 14.7115 9.74422 14.7234 9.93212Z" fill="#60B24F"/>
<path fill-rule="evenodd" clip-rule="evenodd" d="M14.1933 23.4248C14.2508 23.1372 14.3265 22.8517 14.3622 22.5614C14.4333 21.982 14.4821 21.3994 14.5402 20.8184L14.5547 20.8163L14.5691 20.8187C14.584 21.5457 14.6864 22.2682 14.8741 22.9707C14.8356 23.0215 14.7811 23.0668 14.7607 23.1241C14.6017 23.5725 14.4519 24.0244 14.292 24.4729C14.2701 24.5341 14.2093 24.5818 14.1664 24.6356L14.003 24.0743L14.1933 23.4248Z" fill="#A9AA88"/>
<path fill-rule="evenodd" clip-rule="evenodd" d="M14.1666 24.6359C14.2095 24.582 14.2705 24.5344 14.2922 24.4731C14.4521 24.0247 14.6022 23.5729 14.761 23.1243C14.7813 23.067 14.8356 23.0217 14.8743 22.9709L15.1488 23.5734C15.0946 23.6504 15.0198 23.7197 14.9896 23.8055L14.4637 25.3496C14.442 25.4115 14.3681 25.4553 14.3187 25.5076L14.1666 24.6359Z" fill="#B6B598"/>
<path fill-rule="evenodd" clip-rule="evenodd" d="M14.3187 25.5073C14.3683 25.4553 14.442 25.4113 14.4637 25.3494L14.9896 23.8052C15.0195 23.7197 15.0946 23.6502 15.1488 23.5732L15.4146 23.8C15.2862 23.9269 15.2149 24.0734 15.2578 24.2587L15.177 24.523C15.1403 24.5682 15.0871 24.6076 15.069 24.6595C14.8854 25.1851 14.7102 25.7136 14.5254 26.2393C14.502 26.306 14.437 26.3583 14.3911 26.4169C14.3672 26.1137 14.343 25.8105 14.3187 25.5073Z" fill="#C2C1A7"/>
<path fill-rule="evenodd" clip-rule="evenodd" d="M14.3913 26.4169C14.437 26.3581 14.502 26.3058 14.5256 26.2393C14.7104 25.7139 14.8857 25.1854 15.0692 24.6595C15.0874 24.6079 15.1403 24.5683 15.1773 24.523L15.0659 25.7359C15.0362 25.7703 14.9931 25.8003 14.9789 25.8403C14.8531 26.1934 14.7345 26.549 14.6083 26.9021C14.5823 26.9749 14.5324 27.0393 14.4935 27.1073C14.4589 27.062 14.397 27.0183 14.3941 26.971C14.383 26.787 14.3906 26.6018 14.3913 26.4169Z" fill="#CECDB7"/>
<path fill-rule="evenodd" clip-rule="evenodd" d="M14.4932 27.1073C14.5322 27.039 14.582 26.9747 14.6081 26.9021C14.7345 26.5492 14.8529 26.1936 14.9786 25.8403C14.9929 25.8002 15.0362 25.7705 15.0657 25.7359L15.0683 26.5322L14.8019 27.2156L14.4932 27.1073Z" fill="#DBDAC7"/>
<path fill-rule="evenodd" clip-rule="evenodd" d="M14.8019 27.2158L15.0683 26.5324L15.1232 27.3409L14.8019 27.2158Z" fill="#EBE9DC"/>
<path fill-rule="evenodd" clip-rule="evenodd" d="M15.2577 24.259C15.2149 24.0737 15.286 23.9269 15.4146 23.8002L15.4883 23.8505L15.2577 24.259Z" fill="#CECDB7"/>
<path fill-rule="evenodd" clip-rule="evenodd" d="M14.5691 20.8189L14.5547 20.8165L14.5402 20.8187L14.5741 20.6964L14.5691 20.8189Z" fill="#4FAA41"/>
</svg>
