<svg width="28" height="28" viewBox="0 0 28 28" fill="none" xmlns="http://www.w3.org/2000/svg">
<g clip-path="url(#clip0_126_843)">
<path d="M8.4 8.4L9.156 7.85307C9.04036 7.69333 8.87709 7.57434 8.68963 7.51314C8.50216 7.45195 8.30013 7.4517 8.11252 7.51245C7.92491 7.57319 7.76135 7.69179 7.64532 7.85124C7.52929 8.01069 7.46675 8.2028 7.46667 8.4H8.4ZM14 26.1333C10.782 26.1333 7.69588 24.855 5.42044 22.5796C3.145 20.3041 1.86667 17.218 1.86667 14H0C0 17.713 1.475 21.274 4.10051 23.8995C6.72601 26.525 10.287 28 14 28V26.1333ZM26.1333 14C26.1333 15.5934 25.8195 17.1711 25.2097 18.6432C24.6 20.1153 23.7062 21.4529 22.5796 22.5796C21.4529 23.7062 20.1153 24.6 18.6432 25.2097C17.1711 25.8195 15.5934 26.1333 14 26.1333V28C17.713 28 21.274 26.525 23.8995 23.8995C26.525 21.274 28 17.713 28 14H26.1333ZM14 1.86667C15.5934 1.86667 17.1711 2.1805 18.6432 2.79026C20.1153 3.40002 21.4529 4.29375 22.5796 5.42044C23.7062 6.54712 24.6 7.88469 25.2097 9.35677C25.8195 10.8289 26.1333 12.4066 26.1333 14H28C28 10.287 26.525 6.72601 23.8995 4.10051C21.274 1.475 17.713 0 14 0V1.86667ZM14 0C10.287 0 6.72601 1.475 4.10051 4.10051C1.475 6.72601 0 10.287 0 14H1.86667C1.86667 10.782 3.145 7.69588 5.42044 5.42044C7.69588 3.145 10.782 1.86667 14 1.86667V0ZM9.33333 22.4V8.4H7.46667V22.4H9.33333ZM7.644 8.94693L19.7773 25.7469L21.2893 24.6531L9.156 7.85307L7.644 8.94693ZM18.6667 7.46667V18.6667H20.5333V7.46667H18.6667Z" fill="white"/>
</g>
<defs>
<clipPath id="clip0_126_843">
<rect width="28" height="28" fill="white"/>
</clipPath>
</defs>
</svg>
