<svg width="28" height="28" viewBox="0 0 28 28" fill="none" xmlns="http://www.w3.org/2000/svg">
<g clip-path="url(#clip0_126_905)">
<path d="M14.6471 0.180452C14.4462 0.0653287 14.2186 0.00476074 13.987 0.00476074C13.7554 0.00476074 13.5279 0.0653287 13.3269 0.180452L2.42881 6.50998C2.01428 6.74448 1.78131 7.18701 1.78131 7.65623V20.3411C1.78131 20.8099 2.04009 21.2526 2.42837 21.4874L13.3265 27.8167C13.5275 27.9318 13.7551 27.9924 13.9867 27.9924C14.2183 27.9924 14.4459 27.9318 14.6469 27.8167L25.545 21.4871C25.9593 21.2526 26.1921 20.8099 26.1921 20.3409V7.65623C26.1921 7.18723 25.9333 6.7447 25.545 6.50998L14.6471 0.180452Z" fill="url(#paint0_linear_126_905)"/>
<path d="M25.5712 6.50998L14.6215 0.180449C14.5141 0.125576 14.4012 0.0819588 14.2848 0.050293L2.01471 21.1745C2.11636 21.2992 2.23903 21.405 2.37718 21.4874L13.3271 27.8167C13.6378 27.9989 14 28.0512 14.3367 27.9468L25.8561 6.74448C25.7804 6.64543 25.683 6.56518 25.5712 6.50998Z" fill="url(#paint1_linear_126_905)"/>
<path d="M25.5715 21.4867C25.8821 21.3045 26.115 20.9919 26.2185 20.6533L14.2332 0.0236206C13.9226 -0.0284419 13.5859 -0.00241068 13.3013 0.180027L2.42902 6.48353L14.1553 27.9987C14.3106 27.9724 14.4922 27.9204 14.6475 27.8423L25.5715 21.4867Z" fill="url(#paint2_linear_126_905)"/>
</g>
<defs>
<linearGradient id="paint0_linear_126_905" x1="18.4251" y1="4.89398" x2="8.47228" y2="25.0716" gradientUnits="userSpaceOnUse">
<stop stop-color="#3F873F"/>
<stop offset="0.33" stop-color="#3F8B3D"/>
<stop offset="0.637" stop-color="#3E9638"/>
<stop offset="0.934" stop-color="#3DA92E"/>
<stop offset="1" stop-color="#3DAE2B"/>
</linearGradient>
<linearGradient id="paint1_linear_126_905" x1="12.3311" y1="15.48" x2="40.1004" y2="-4.91135" gradientUnits="userSpaceOnUse">
<stop offset="0.138" stop-color="#3F873F"/>
<stop offset="0.402" stop-color="#52A044"/>
<stop offset="0.713" stop-color="#64B749"/>
<stop offset="0.908" stop-color="#6ABF4B"/>
</linearGradient>
<linearGradient id="paint2_linear_126_905" x1="1.38245" y1="13.9944" x2="26.6" y2="13.9944" gradientUnits="userSpaceOnUse">
<stop offset="0.092" stop-color="#6ABF4B"/>
<stop offset="0.287" stop-color="#64B749"/>
<stop offset="0.598" stop-color="#52A044"/>
<stop offset="0.862" stop-color="#3F873F"/>
</linearGradient>
<clipPath id="clip0_126_905">
<rect width="28" height="28" fill="white"/>
</clipPath>
</defs>
</svg>
