<svg width="28" height="28" viewBox="0 0 28 28" fill="none" xmlns="http://www.w3.org/2000/svg">
<path d="M16.8353 28C14.8576 28 14.231 26.4338 13.9746 25.7933C13.5993 24.8546 13.5184 21.2119 13.602 18.2246C13.6032 18.1742 13.6144 18.1246 13.6349 18.0786C13.6554 18.0325 13.6849 17.991 13.7215 17.9564C13.7581 17.9218 13.8012 17.8947 13.8483 17.8769C13.8955 17.859 13.9456 17.8506 13.996 17.8522C14.0463 17.8536 14.0959 17.8648 14.1418 17.8854C14.1878 17.9059 14.2292 17.9353 14.2638 17.9719C14.2984 18.0085 14.3255 18.0515 14.3434 18.0985C14.3613 18.1456 14.3698 18.1957 14.3684 18.246C14.2721 21.6914 14.4088 24.8138 14.6865 25.5086C15.1199 26.5919 15.7772 27.5394 17.6356 27.1413C19.3998 26.7629 20.0605 26.0941 20.3548 24.388C20.5806 23.0789 21.0272 19.3545 21.0823 18.6196C21.0859 18.5693 21.0995 18.5203 21.1221 18.4754C21.1448 18.4304 21.1761 18.3903 21.2143 18.3575C21.2524 18.3246 21.2967 18.2996 21.3446 18.2839C21.3924 18.2682 21.4429 18.2621 21.4931 18.2659C21.5944 18.2736 21.6886 18.3212 21.7549 18.3982C21.8212 18.4752 21.8542 18.5754 21.8467 18.6768C21.7893 19.442 21.3449 23.1591 21.1104 24.5185C20.763 26.5335 19.8647 27.4474 17.7963 27.8909C17.4448 27.9661 17.1255 27.9998 16.8353 28ZM6.11139 20.3501C5.93852 20.3496 5.76686 20.3212 5.60301 20.266C4.31838 19.8374 3.09478 17.7453 1.96607 14.0471C1.10692 11.232 0.562512 8.29374 0.514701 7.33874C0.373192 4.5076 1.10212 2.50461 2.68178 1.38576C5.80675 -0.828412 11.0637 1.28005 11.286 1.37086C11.3801 1.40932 11.4551 1.48359 11.4945 1.57736C11.5339 1.67112 11.5344 1.77668 11.4959 1.87083C11.4575 1.96497 11.3832 2.03999 11.2894 2.07936C11.1957 2.11874 11.0901 2.11926 10.996 2.08081C10.9453 2.06015 5.90429 0.0405818 3.12337 2.01234C1.77266 2.96998 1.15257 4.7493 1.28015 7.30054C1.32027 8.10515 1.82888 10.9728 2.69908 13.8232C3.7067 17.1247 4.85343 19.2079 5.84543 19.5388C6.00111 19.5907 6.47489 19.7485 7.15216 18.9341C7.94195 17.9855 8.76138 17.062 9.60923 16.1649C9.68017 16.0941 9.77599 16.054 9.87618 16.053C9.97638 16.052 10.073 16.0902 10.1453 16.1595C10.2177 16.2289 10.26 16.3238 10.2633 16.4239C10.2665 16.5241 10.2304 16.6215 10.1628 16.6954C10.1512 16.7074 8.99827 17.9127 7.74174 19.4244C7.14664 20.1401 6.57628 20.3501 6.11139 20.3501ZM22.7919 17.1199C22.7224 17.1198 22.6542 17.1008 22.5947 17.065C22.5351 17.0292 22.4865 16.9778 22.4538 16.9164C22.4212 16.8551 22.4059 16.786 22.4095 16.7166C22.4131 16.6472 22.4355 16.5801 22.4743 16.5224C26.0452 11.2236 27.2986 4.82113 26.2251 3.44929C24.8739 1.72283 22.9661 0.821163 20.5542 0.769028C18.7684 0.730588 17.349 1.18659 17.1169 1.26611L17.0585 1.2899C16.8252 1.36317 16.6462 1.23536 16.5787 1.08592C16.5402 1.0003 16.5344 0.903559 16.5623 0.813936C16.5902 0.724313 16.65 0.648007 16.7303 0.59941C16.7414 0.592923 16.7765 0.578027 16.8334 0.557125C17.2276 0.412733 18.6687 -0.0197217 20.4535 0.000699758C23.1222 0.0290496 25.3268 1.05805 26.8284 2.97695C27.5388 3.88487 27.5405 5.97651 26.833 8.71587C26.1117 11.5088 24.7545 14.5103 23.1098 16.951C23.0362 17.0608 22.9151 17.1199 22.7919 17.1199ZM22.9745 19.5729C22.3647 19.5729 21.8182 19.4869 21.4909 19.2908C21.1546 19.0893 21.0904 18.8154 21.082 18.67C20.9902 17.0579 21.8797 16.7773 22.3333 16.6493C22.2701 16.5536 22.1802 16.4412 22.0872 16.3252C21.8227 15.9946 21.4604 15.5419 21.1812 14.8649C21.1375 14.7592 21.0006 14.5134 20.842 14.2287C19.9821 12.6868 18.193 9.47819 19.3423 7.8351C19.8743 7.0747 20.9335 6.77535 22.4942 6.94232C22.0351 5.54357 19.8488 1.16809 14.661 1.08304C13.1008 1.05709 11.8212 1.53688 10.8597 2.50774C8.70708 4.68178 8.78492 8.61544 8.78612 8.65484C8.78745 8.70517 8.77885 8.75526 8.76082 8.80226C8.74278 8.84926 8.71567 8.89224 8.68102 8.92877C8.64637 8.96529 8.60487 8.99463 8.55889 9.01511C8.5129 9.03559 8.46333 9.04681 8.41301 9.04814C8.36269 9.04946 8.3126 9.04086 8.2656 9.02283C8.2186 9.0048 8.17561 8.97768 8.13909 8.94304C8.10257 8.90839 8.07323 8.86689 8.05275 8.8209C8.03227 8.77492 8.02104 8.72535 8.01972 8.67503C8.01491 8.50036 7.93467 4.37234 10.3151 1.96813C11.4291 0.843026 12.8956 0.287562 14.6738 0.316632C17.9926 0.37117 20.1289 2.05846 21.3364 3.46418C22.6528 4.99628 23.2981 6.68621 23.3512 7.25033C23.3909 7.66981 23.0898 7.75366 23.029 7.76615L22.8906 7.76927C21.359 7.52398 20.3764 7.69431 19.9701 8.27477C19.0959 9.52432 20.7884 12.5594 21.5111 13.8556C21.6956 14.1862 21.8287 14.4252 21.8898 14.5728C22.1271 15.1484 22.4368 15.5352 22.6855 15.8461C22.9043 16.1195 23.0939 16.3566 23.1616 16.6348C23.1931 16.6901 23.6398 17.3508 26.29 16.8037C26.9543 16.6668 27.3526 16.7838 27.4744 17.1521C27.714 17.8765 26.37 18.7214 25.6259 19.0669C24.9592 19.3768 23.8951 19.5729 22.9745 19.5729ZM21.8463 18.6068C21.9304 18.6916 22.351 18.838 23.2222 18.8005C23.9968 18.7673 24.8136 18.5989 25.3037 18.3714C25.9306 18.0802 26.3491 17.7547 26.5658 17.5324L26.4457 17.5545C24.7512 17.9043 23.5525 17.8577 22.8832 17.4159C22.8382 17.3862 22.7949 17.3541 22.7535 17.3196C22.6809 17.3482 22.6139 17.3669 22.5661 17.3803C22.1865 17.4868 21.7939 17.5971 21.8463 18.6068ZM10.8999 20.7487C10.4789 20.7487 10.0359 20.6913 9.58352 20.5781C9.11479 20.4609 8.3246 20.1079 8.33661 19.5282C8.35031 18.8778 9.29618 18.6828 9.65223 18.6095C10.9385 18.3445 11.0224 18.2383 11.4243 17.7278C11.5416 17.579 11.6874 17.3938 11.8863 17.1718C12.1816 16.8412 12.5043 16.6738 12.8454 16.6738C13.083 16.6738 13.2779 16.7542 13.4067 16.8078C13.817 16.9779 14.1594 17.3892 14.3002 17.881C14.4273 18.3248 14.3665 18.7519 14.1296 19.0837C13.3519 20.1728 12.235 20.7487 10.8999 20.7487ZM9.16476 19.5611C9.28032 19.6505 9.51193 19.7699 9.76972 19.8343C10.1616 19.9323 10.5417 19.982 10.9001 19.982C11.9923 19.982 12.8692 19.5299 13.5061 18.6381C13.639 18.4521 13.5991 18.2159 13.5636 18.0917C13.4891 17.8315 13.3041 17.5949 13.1136 17.5158C13.0102 17.4731 12.9245 17.4404 12.8457 17.4404C12.8034 17.4404 12.6746 17.4404 12.4579 17.6828C12.3083 17.851 12.1646 18.0242 12.0269 18.2023C11.5262 18.838 11.2968 19.0537 9.8072 19.3605C9.4437 19.435 9.25726 19.5109 9.16476 19.5611ZM12.1124 17.7929C12.0209 17.7927 11.9325 17.7598 11.8631 17.7002C11.7937 17.6405 11.7479 17.558 11.734 17.4676C11.7244 17.4039 11.718 17.3399 11.7148 17.2756C10.7384 17.2573 9.79639 16.8383 9.08115 16.0921C8.17684 15.1486 7.76529 13.8414 7.95221 12.5059C8.15522 11.0555 8.0793 9.77514 8.03846 9.0873C8.02717 8.89606 8.019 8.75791 8.01948 8.66229C8.0202 8.54097 8.0226 8.21927 9.09797 7.67413C9.48045 7.48025 10.2473 7.14197 11.0851 7.05524C12.473 6.91181 13.3879 7.52998 13.6618 8.79611C14.4011 12.2144 13.7204 13.7263 13.2234 14.8305C13.1309 15.0362 13.0434 15.2303 12.9735 15.4184L12.9117 15.5842C12.6491 16.2884 12.4221 16.8967 12.4918 17.351C12.4994 17.4008 12.4972 17.4516 12.4852 17.5005C12.4732 17.5494 12.4517 17.5954 12.422 17.636C12.3922 17.6766 12.3547 17.7109 12.3116 17.737C12.2686 17.7631 12.2208 17.7804 12.171 17.7881L12.1124 17.7929ZM8.78853 8.76848L8.80342 9.04213C8.84571 9.75664 8.92451 11.0862 8.71116 12.6123C8.55716 13.7138 8.89352 14.789 9.63446 15.5616C10.22 16.1724 10.9904 16.5094 11.7823 16.5094H11.7987C11.8873 16.1358 12.0346 15.7413 12.1931 15.3163L12.2544 15.1515C12.3335 14.9391 12.426 14.7335 12.524 14.5158C13.0023 13.4529 13.5979 12.1299 12.912 8.95828C12.7762 8.33002 12.4469 7.96652 11.9056 7.84663C10.7937 7.6011 9.13665 8.43742 8.78853 8.76848ZM11.1022 8.60583C11.0829 8.74134 11.3503 9.10316 11.6992 9.15145C12.0473 9.20022 12.3452 8.9172 12.3642 8.7817C12.3832 8.6462 12.116 8.49676 11.7672 8.44823C11.4183 8.3997 11.1207 8.47033 11.1022 8.60583ZM11.7792 9.28479L11.6814 9.27806C11.4652 9.24803 11.2466 9.11181 11.0969 8.91336C11.0443 8.84368 10.9585 8.70866 10.9755 8.58805C10.9998 8.41123 11.2156 8.30528 11.5522 8.30528C11.6274 8.30528 11.7057 8.3108 11.7845 8.32185C11.9685 8.34732 12.1393 8.40042 12.2655 8.47081C12.4841 8.59286 12.5002 8.72908 12.4903 8.79948C12.4634 8.9948 12.1528 9.28479 11.7792 9.28479ZM11.2293 8.62842C11.2401 8.71202 11.4472 8.98784 11.7167 9.02507L11.7794 9.0294C12.0283 9.0294 12.2143 8.83359 12.2362 8.76945C12.2131 8.72572 12.0531 8.61712 11.7496 8.57484C11.6843 8.56561 11.6184 8.56087 11.5524 8.56067C11.3573 8.56067 11.2538 8.60463 11.2293 8.62842ZM21.7055 8.3293C21.7245 8.4648 21.4573 8.82663 21.1087 8.87516C20.7603 8.92369 20.4622 8.64091 20.4429 8.50541C20.4247 8.36991 20.6919 8.22023 21.0402 8.17194C21.3886 8.12317 21.6863 8.19404 21.7055 8.3293ZM21.0282 8.94435C20.6928 8.94435 20.4033 8.68344 20.3795 8.51406C20.3519 8.3108 20.6866 8.15632 21.0311 8.10851C21.107 8.09794 21.1822 8.09265 21.2545 8.09265C21.552 8.09265 21.749 8.17987 21.7687 8.32065C21.7814 8.41171 21.7115 8.55226 21.5911 8.67911C21.5116 8.76248 21.3446 8.90687 21.1171 8.93834L21.0282 8.94435ZM21.2548 8.22047C21.1881 8.22047 21.1196 8.22535 21.0491 8.23512C20.7029 8.28341 20.4963 8.42228 20.5064 8.49676C20.5179 8.57869 20.7389 8.81677 21.0284 8.81677L21.0998 8.81173C21.2889 8.78554 21.4309 8.66205 21.4986 8.59094C21.6051 8.47922 21.6473 8.37399 21.6423 8.33819C21.6356 8.29062 21.5077 8.22047 21.2548 8.22047ZM22.2074 16.1111C22.1379 16.1111 22.0698 16.0923 22.0102 16.0566C21.9506 16.0208 21.9019 15.9696 21.8692 15.9083C21.8365 15.847 21.8211 15.778 21.8247 15.7087C21.8282 15.6393 21.8505 15.5722 21.8893 15.5145C22.7056 14.2953 22.5562 13.052 22.4118 11.8495C22.3501 11.3373 22.2866 10.8075 22.303 10.2991C22.3198 9.7761 22.3864 9.34461 22.4505 8.92729C22.5267 8.43285 22.5987 7.9658 22.5689 7.4113C22.5662 7.36104 22.5734 7.31073 22.5902 7.26326C22.6069 7.21579 22.6328 7.17208 22.6664 7.13462C22.7001 7.09716 22.7407 7.06669 22.7861 7.04495C22.8315 7.02321 22.8807 7.01063 22.931 7.00791C22.9813 7.0052 23.0316 7.01241 23.079 7.02914C23.1265 7.04587 23.1702 7.07178 23.2077 7.1054C23.2833 7.1733 23.3289 7.26847 23.3344 7.36997C23.3685 8.00376 23.2871 8.53232 23.2083 9.04381C23.1475 9.43855 23.0845 9.84674 23.0694 10.3236C23.0547 10.7739 23.1122 11.252 23.1729 11.7579C23.3267 13.0366 23.5009 14.4858 22.5264 15.941C22.4913 15.9933 22.4438 16.0362 22.3881 16.0659C22.3325 16.0956 22.2704 16.1111 22.2074 16.1111Z" fill="white"/>
</svg>
