<svg width="29" height="28" viewBox="0 0 29 28" fill="none" xmlns="http://www.w3.org/2000/svg">
<g clip-path="url(#clip0_126_879)">
<path d="M28.3855 15.7777C29.3654 8.10709 23.9482 1.0943 16.2917 0.114516C8.63509 -0.865375 1.5943 4.55175 0.614516 12.2083C-0.365375 19.8649 5.05175 26.8917 12.7083 27.8855C20.3789 28.8654 27.3917 23.4482 28.3855 15.7777Z" fill="#FF6C37"/>
<path d="M19.5531 8.98885L13.6461 14.8959L11.9803 13.2301C17.7894 7.42117 18.3634 7.92506 19.5531 8.98885Z" fill="white"/>
<path d="M13.6461 15.0358C13.6041 15.0358 13.5761 15.0218 13.5481 14.9938L11.8684 13.3281C11.8552 13.3155 11.8446 13.3003 11.8374 13.2834C11.8302 13.2666 11.8265 13.2485 11.8265 13.2302C11.8265 13.2118 11.8302 13.1937 11.8374 13.1769C11.8446 13.16 11.8552 13.1448 11.8684 13.1322C17.7753 7.22519 18.3912 7.78508 19.637 8.90486C19.665 8.93286 19.679 8.96086 19.679 9.00286C19.679 9.04486 19.665 9.07286 19.637 9.10086L13.7301 14.9938C13.7161 15.0218 13.6741 15.0358 13.6461 15.0358ZM12.1764 13.2301L13.6461 14.6999L19.3431 9.00286C18.3073 8.07908 17.6073 7.79897 12.1764 13.2301Z" fill="#FF6C37"/>
<path d="M15.3398 16.5896L13.7301 14.9798L19.637 9.07288C21.2188 10.6687 18.8532 13.2581 15.3398 16.5896Z" fill="white"/>
<path d="M15.3398 16.7296C15.2978 16.7296 15.2698 16.7156 15.2419 16.6876L13.6321 15.0778C13.6041 15.0498 13.6041 15.0218 13.6041 14.9798C13.6041 14.9379 13.6181 14.9098 13.6461 14.8819L19.5531 8.97488C19.5658 8.9616 19.581 8.95103 19.5978 8.94381C19.6147 8.93659 19.6328 8.93286 19.6511 8.93286C19.6695 8.93286 19.6876 8.93659 19.7045 8.94381C19.7213 8.95103 19.7365 8.9616 19.7491 8.97488C19.9279 9.14026 20.0691 9.34203 20.1632 9.56658C20.2574 9.79114 20.3023 10.0333 20.295 10.2767C20.267 11.8304 18.5035 13.804 15.4519 16.6876C15.4099 16.7156 15.3679 16.7296 15.3399 16.7296M13.9262 14.9798C14.822 15.8897 15.2 16.2536 15.3399 16.3936C17.6915 14.154 19.973 11.8584 19.9871 10.2767C20.0011 9.91277 19.8611 9.54877 19.6231 9.26888L13.9262 14.9798Z" fill="#FF6C37"/>
<path d="M12.0084 13.2721L13.1982 14.4619C13.2262 14.4899 13.2262 14.5179 13.1982 14.5459C13.1842 14.5599 13.1842 14.5599 13.1702 14.5599L10.7067 15.0918C10.5807 15.1058 10.4687 15.0218 10.4407 14.8959C10.4267 14.8259 10.4547 14.7559 10.4967 14.7139L11.9244 13.2861C11.9524 13.2581 11.9944 13.2441 12.0084 13.2721Z" fill="white"/>
<path d="M10.6647 15.2318C10.4547 15.2318 10.3008 15.0638 10.3008 14.8539C10.3008 14.7559 10.3428 14.6579 10.4128 14.5879L11.8405 13.1601C11.9245 13.0901 12.0365 13.0901 12.1205 13.1601L13.3102 14.3499C13.3942 14.4199 13.3942 14.5459 13.3102 14.6299C13.2822 14.6579 13.2542 14.6719 13.2122 14.6859L10.7487 15.2178C10.7207 15.2178 10.6927 15.2318 10.6647 15.2318ZM11.9665 13.4261L10.5947 14.7979C10.5667 14.8259 10.5527 14.8679 10.5807 14.9099C10.5947 14.9519 10.6367 14.9658 10.6787 14.9519L12.9882 14.4479L11.9665 13.4261Z" fill="#FF6C37"/>
<path d="M22.6745 5.71353C21.7787 4.84564 20.3369 4.87364 19.4691 5.78353C18.6013 6.69332 18.6293 8.1211 19.5391 8.98888C19.8983 9.33584 20.3621 9.55421 20.8584 9.60993C21.3546 9.66564 21.8554 9.55557 22.2825 9.29688L20.6867 7.7011L22.6745 5.71353Z" fill="white"/>
<path d="M21.1068 9.75879C19.777 9.75879 18.6992 8.68101 18.6992 7.35123C18.6992 6.02145 19.777 4.94366 21.1068 4.94366C21.7226 4.94366 22.3246 5.18166 22.7726 5.61555C22.8005 5.64355 22.8145 5.67155 22.8145 5.71355C22.8145 5.75555 22.8005 5.78355 22.7725 5.81155L20.8828 7.70112L22.3666 9.1849C22.4226 9.2409 22.4226 9.3249 22.3666 9.3809L22.3386 9.4089C21.9746 9.63279 21.5407 9.75879 21.1068 9.75879ZM21.1068 5.23777C19.931 5.23777 18.9791 6.18955 18.9931 7.36534C18.9931 8.54112 19.945 9.49301 21.1208 9.47901C21.4427 9.47901 21.7647 9.40901 22.0586 9.25501L20.5889 7.79923C20.5609 7.77123 20.5469 7.74323 20.5469 7.70123C20.5469 7.65934 20.5609 7.63123 20.5889 7.60334L22.4646 5.72756C22.0866 5.40566 21.6107 5.23777 21.1068 5.23777Z" fill="#FF6C37"/>
<path d="M22.7165 5.75554L22.6885 5.72754L20.6869 7.7011L22.2686 9.28288C22.4226 9.18488 22.5765 9.07288 22.7025 8.94688C22.9145 8.73917 23.0833 8.49143 23.1989 8.21802C23.3145 7.94461 23.3747 7.65098 23.376 7.35413C23.3773 7.05729 23.3197 6.76314 23.2065 6.48873C23.0932 6.21432 22.9267 5.96511 22.7165 5.75554Z" fill="white"/>
<path d="M22.2825 9.43685C22.2405 9.43685 22.2125 9.42285 22.1845 9.39485L20.5888 7.79907C20.5609 7.77107 20.5469 7.74307 20.5469 7.70107C20.5469 7.65917 20.5609 7.63107 20.5889 7.60317L22.5764 5.6155C22.5891 5.60223 22.6043 5.59166 22.6211 5.58443C22.638 5.57721 22.6561 5.57349 22.6744 5.57349C22.6928 5.57349 22.7109 5.57721 22.7278 5.58443C22.7446 5.59166 22.7598 5.60223 22.7724 5.6155L22.8144 5.6435C23.7523 6.58128 23.7523 8.09307 22.8284 9.04485C22.6884 9.18485 22.5345 9.31085 22.3665 9.40885C22.3245 9.42285 22.2965 9.43685 22.2825 9.43685ZM20.8828 7.70107L22.2965 9.11485C22.4085 9.04485 22.5205 8.94685 22.6044 8.86296C23.4023 8.06506 23.4443 6.76328 22.6744 5.92339L20.8828 7.70107Z" fill="#FF6C37"/>
<path d="M19.791 9.2409C19.6294 9.07961 19.4104 8.98901 19.1821 8.98901C18.9538 8.98901 18.7348 9.07961 18.5732 9.2409L13.2962 14.5179L14.178 15.3998L19.763 10.5007C20.127 10.1927 20.1549 9.6468 19.847 9.2829C19.819 9.2689 19.805 9.2549 19.791 9.2409Z" fill="white"/>
<path d="M14.164 15.5398C14.122 15.5398 14.094 15.5258 14.066 15.4978L13.1842 14.6159C13.171 14.6033 13.1604 14.5881 13.1532 14.5712C13.1459 14.5544 13.1422 14.5362 13.1422 14.5179C13.1422 14.4996 13.1459 14.4814 13.1532 14.4646C13.1604 14.4477 13.171 14.4325 13.1842 14.4199L18.4612 9.14288C18.5539 9.04972 18.664 8.9758 18.7853 8.92535C18.9067 8.87491 19.0367 8.84894 19.1681 8.84894C19.2995 8.84894 19.4296 8.87491 19.5509 8.92535C19.6722 8.9758 19.7824 9.04972 19.875 9.14288C19.9682 9.23553 20.0421 9.34567 20.0926 9.46699C20.143 9.5883 20.169 9.71839 20.169 9.84977C20.169 9.98116 20.143 10.1112 20.0926 10.2326C20.0421 10.3539 19.9682 10.464 19.875 10.5567L19.833 10.5987L14.248 15.4978C14.234 15.5258 14.206 15.5398 14.164 15.5398ZM13.4921 14.5179L14.178 15.2038L19.665 10.3887C19.973 10.1367 20.001 9.67477 19.749 9.36688C19.4971 9.05888 19.0351 9.03088 18.7272 9.28288C18.7132 9.29688 18.6992 9.31088 18.6712 9.32488L13.4921 14.5179Z" fill="#FF6C37"/>
<path d="M9.25089 20.5228C9.195 20.5508 9.167 20.6068 9.18089 20.6628L9.41889 21.6706C9.47489 21.8106 9.39089 21.9786 9.23689 22.0206C9.125 22.0626 8.999 22.0206 8.929 21.9366L7.38922 20.4108L12.4143 15.3858L14.1501 15.4138L15.3259 16.5896C15.0459 16.8275 13.3522 18.4653 9.25089 20.5228Z" fill="white"/>
<path d="M9.13895 22.1605C9.02695 22.1605 8.91495 22.1186 8.84495 22.0346L7.31917 20.5088C7.29128 20.4808 7.27728 20.4528 7.27728 20.4109C7.27728 20.3689 7.29128 20.3409 7.31928 20.3129L12.3443 15.2878C12.3723 15.2598 12.4143 15.2458 12.4423 15.2458L14.1781 15.2738C14.22 15.2738 14.2481 15.2878 14.276 15.3158L15.4518 16.4916C15.4798 16.5196 15.4938 16.5616 15.4938 16.6036C15.4938 16.6456 15.4798 16.6736 15.4378 16.7016L15.3398 16.7855C13.8561 18.0872 11.8404 19.389 9.33485 20.6348L9.57285 21.6287C9.61485 21.8106 9.53084 22.0066 9.36284 22.1045C9.27884 22.1466 9.20885 22.1605 9.13895 22.1605ZM7.59917 20.411L9.04095 21.8387C9.08295 21.9087 9.16695 21.9367 9.23684 21.8947C9.30684 21.8527 9.33484 21.7687 9.29284 21.6987L9.05495 20.6909C9.02695 20.5649 9.08295 20.4529 9.19495 20.397C11.6724 19.1512 13.6741 17.8635 15.1439 16.5897L14.1081 15.5539L12.4983 15.5259L7.59917 20.411Z" fill="#FF6C37"/>
<path d="M6.19951 21.6147L7.40318 20.4109L9.19496 22.2025L6.3394 22.0066C6.2134 21.9926 6.1294 21.8806 6.14351 21.7546C6.14351 21.6986 6.15751 21.6426 6.1994 21.6146" fill="white"/>
<path d="M9.19496 22.3284L6.32539 22.1325C6.11539 22.1185 5.97539 21.9365 5.9895 21.7265C6.0035 21.6425 6.0315 21.5587 6.1015 21.5027L7.30528 20.2989C7.31792 20.2856 7.33312 20.2751 7.34995 20.2678C7.36679 20.2606 7.38491 20.2569 7.40323 20.2569C7.42155 20.2569 7.43967 20.2606 7.45651 20.2678C7.47334 20.2751 7.48854 20.2856 7.50117 20.2989L9.29285 22.0904C9.33485 22.1325 9.34885 22.1885 9.32085 22.2444C9.29285 22.3004 9.25088 22.3284 9.19496 22.3284ZM7.40317 20.6069L6.29739 21.7127C6.25539 21.7405 6.25539 21.8105 6.29739 21.8385C6.31139 21.8525 6.32539 21.8665 6.35339 21.8665L8.83096 22.0345L7.40317 20.6069ZM11.9244 16.0296C11.8404 16.0296 11.7844 15.9596 11.7844 15.8896C11.7844 15.8476 11.7984 15.8196 11.8264 15.7916L13.1842 14.4339C13.1968 14.4206 13.212 14.41 13.2289 14.4028C13.2457 14.3956 13.2639 14.3918 13.2822 14.3918C13.3005 14.3918 13.3187 14.3956 13.3355 14.4028C13.3523 14.41 13.3676 14.4206 13.3802 14.4339L14.262 15.3158C14.304 15.3578 14.318 15.3998 14.304 15.4558C14.29 15.4978 14.248 15.5398 14.192 15.5538L11.9524 16.0295L11.9244 16.0296ZM13.2822 14.7279L12.3583 15.6516L13.8701 15.3298L13.2822 14.7279Z" fill="#FF6C37"/>
<path d="M14.15 15.4138L12.6103 15.7497C12.4983 15.7777 12.3863 15.7077 12.3583 15.5957C12.3443 15.5257 12.3583 15.4557 12.4143 15.3998L13.2682 14.5459L14.15 15.4138Z" fill="white"/>
<path d="M12.5823 15.8897C12.5362 15.8901 12.4905 15.8814 12.4479 15.8639C12.4052 15.8465 12.3664 15.8207 12.3339 15.7881C12.3013 15.7556 12.2755 15.7168 12.2581 15.6741C12.2406 15.6315 12.2319 15.5858 12.2323 15.5397C12.2323 15.4418 12.2743 15.3578 12.3303 15.2878L13.1842 14.4339C13.1968 14.4206 13.212 14.41 13.2289 14.4028C13.2457 14.3956 13.2639 14.3919 13.2822 14.3919C13.3005 14.3919 13.3187 14.3956 13.3355 14.4028C13.3524 14.41 13.3676 14.4206 13.3802 14.4339L14.262 15.3158C14.304 15.3578 14.318 15.3998 14.304 15.4558C14.29 15.4978 14.248 15.5398 14.192 15.5538L12.6523 15.8897H12.5823ZM13.2822 14.7279L12.5263 15.4837C12.4983 15.5118 12.4983 15.5398 12.5123 15.5677C12.5263 15.5957 12.5543 15.6097 12.5963 15.6097L13.8841 15.3297L13.2822 14.7279ZM22.7305 7.09921C22.7025 7.01532 22.6045 6.97332 22.5205 7.00132C22.4366 7.02932 22.3946 7.12721 22.4226 7.21132C22.4226 7.22521 22.4366 7.23921 22.4366 7.25321C22.5206 7.42121 22.4926 7.63121 22.3806 7.7851C22.3246 7.8551 22.3386 7.9531 22.3946 8.0091C22.4646 8.0651 22.5625 8.0511 22.6185 7.9811C22.8285 7.7151 22.8705 7.37921 22.7305 7.09921Z" fill="#FF6C37"/>
</g>
<defs>
<clipPath id="clip0_126_879">
<rect width="28" height="28" fill="white" transform="translate(0.5)"/>
</clipPath>
</defs>
</svg>
