<svg width="28" height="28" viewBox="0 0 28 28" fill="none" xmlns="http://www.w3.org/2000/svg">
<path d="M21.8969 8.37813L19.8844 10.3906C23.1875 13.6938 23.1875 19.0094 19.8844 22.2688C16.5812 25.5719 11.2656 25.5719 8.00623 22.2688C4.7031 18.9656 4.7031 13.65 8.00623 10.3906L13.2562 5.14063L14 4.39688V0.4375L6.08123 8.35625C1.68435 12.7531 1.68435 19.8625 6.08123 24.2813C10.4781 28.7 17.5875 28.6781 21.9187 24.2813C26.3156 19.8625 26.3156 12.7969 21.8969 8.37813Z" fill="#EE4C2C"/>
<path d="M19.4183 6.45171C19.4333 5.64243 18.7894 4.97423 17.9801 4.95924C17.1708 4.94425 16.5026 5.58815 16.4876 6.39743C16.4727 7.20671 17.1166 7.87491 17.9258 7.8899C18.7351 7.90489 19.4033 7.26099 19.4183 6.45171Z" fill="#EE4C2C"/>
</svg>
