<svg width="32" height="28" viewBox="0 0 32 28" fill="none" xmlns="http://www.w3.org/2000/svg">
<g clip-path="url(#clip0_126_840)">
<path d="M26.1295 9.06608C25.7949 8.95132 25.4575 8.84497 25.1176 8.74715C25.1747 8.51382 25.2272 8.28331 25.2739 8.05686C26.04 4.33814 25.5392 1.34226 23.8286 0.355873C22.1885 -0.589741 19.5063 0.396277 16.7974 2.7538C16.5304 2.98655 16.2694 3.22602 16.0145 3.47198C15.8439 3.30843 15.6702 3.14806 15.4937 2.99094C12.6546 0.470207 9.80893 -0.592197 8.10019 0.397014C6.46158 1.34558 5.97637 4.16191 6.66605 7.68622C6.73467 8.03527 6.81214 8.38252 6.8984 8.72763C6.4956 8.84208 6.10691 8.96391 5.73493 9.09359C2.40637 10.2541 0.280701 12.0728 0.280701 13.9592C0.280701 15.9075 2.5627 17.8618 6.02954 19.0467C6.31061 19.1424 6.59402 19.231 6.87949 19.3126C6.78681 19.6843 6.70449 20.0585 6.63265 20.4348C5.97514 23.898 6.4886 26.6478 8.12279 27.5903C9.81065 28.5637 12.6436 27.5633 15.4019 25.152C15.6256 24.9559 15.8443 24.7543 16.058 24.5474C16.334 24.8137 16.6174 25.0723 16.9078 25.3228C19.5798 27.622 22.2187 28.5504 23.8513 27.6053C25.5376 26.6291 26.0856 23.6751 25.3741 20.0811C25.3181 19.7996 25.2552 19.5194 25.1856 19.2409C25.3845 19.1819 25.5798 19.1213 25.7702 19.0582C29.3743 17.8641 31.7193 15.9336 31.7193 13.9592C31.7193 12.0659 29.525 10.235 26.1295 9.06608ZM25.3478 17.7834C25.1757 17.8402 24.9997 17.8953 24.8198 17.9486C24.4219 16.689 23.8849 15.3496 23.2278 13.9657C23.8549 12.6148 24.3711 11.2926 24.7579 10.0412C25.0795 10.1343 25.3915 10.2324 25.6924 10.3359C28.6017 11.3375 30.3763 12.8182 30.3763 13.9592C30.3763 15.1745 28.4598 16.7522 25.3478 17.7834ZM24.0566 20.342C24.3713 21.9311 24.4161 23.3679 24.2077 24.4913C24.0205 25.5006 23.644 26.1735 23.1783 26.443C22.1876 27.0165 20.0688 26.2711 17.7838 24.3047C17.5137 24.0718 17.25 23.8314 16.9933 23.5838C17.8792 22.615 18.7645 21.4888 19.6286 20.2378C21.1484 20.103 22.5843 19.8824 23.8864 19.5814C23.9507 19.8403 24.0074 20.0938 24.0566 20.342ZM10.9988 26.3439C10.0308 26.6857 9.25986 26.6955 8.79381 26.4268C7.80214 25.8549 7.38988 23.647 7.95221 20.6853C8.01906 20.3354 8.0956 19.9873 8.18174 19.6416C9.46949 19.9265 10.8949 20.1314 12.4183 20.2549C13.2883 21.4789 14.1992 22.604 15.1171 23.5891C14.922 23.7779 14.7223 23.9618 14.5182 24.1408C13.2984 25.207 12.0761 25.9635 10.9988 26.3439ZM6.46403 17.7759C4.93103 17.2519 3.66502 16.5709 2.79726 15.8278C2.01744 15.1601 1.62384 14.4971 1.62384 13.9592C1.62384 12.8144 3.33049 11.3542 6.17703 10.3618C6.52249 10.2415 6.88403 10.1279 7.25921 10.0213C7.65268 11.3009 8.16872 12.6389 8.79147 13.9919C8.16061 15.3649 7.63721 16.7242 7.23993 18.019C6.97935 17.9443 6.72064 17.8633 6.46403 17.7759ZM7.98414 7.42821C7.39331 4.40875 7.78568 2.13105 8.77317 1.55938C9.82489 0.950505 12.1506 1.81863 14.602 3.99526C14.7618 4.13751 14.9191 4.28265 15.0737 4.43061C14.1602 5.41147 13.2577 6.52815 12.3955 7.74493C10.9169 7.88198 9.50154 8.10205 8.20028 8.39691C8.12009 8.07592 8.04802 7.75283 7.98414 7.42821ZM21.5453 10.777C21.238 10.2461 20.9192 9.72191 20.5893 9.20473C21.5924 9.33159 22.5535 9.49996 23.456 9.70579C23.1851 10.5743 22.8474 11.4822 22.4498 12.4131C22.1593 11.8618 21.8577 11.3163 21.5453 10.777ZM16.0151 5.39059C16.6345 6.06173 17.255 6.81098 17.8652 7.62396C16.6273 7.56549 15.3873 7.56524 14.1494 7.62322C14.7603 6.81773 15.386 6.06947 16.0151 5.39059ZM10.4494 10.7861C10.1409 11.321 9.84499 11.8631 9.56184 12.4118C9.17082 11.4843 8.83617 10.5722 8.56293 9.69142C9.45991 9.49075 10.4165 9.32668 11.4132 9.20215C11.0796 9.7225 10.7582 10.2507 10.4494 10.7861ZM11.4418 18.8117C10.412 18.6967 9.44112 18.5411 8.54439 18.3459C8.82193 17.4494 9.16395 16.5179 9.56344 15.5704C9.84771 16.1196 10.1449 16.662 10.4546 17.1971C10.7732 17.7473 11.1031 18.2862 11.4418 18.8117ZM16.0522 22.6224C15.4156 21.9356 14.7806 21.1758 14.1606 20.3587C14.7626 20.3823 15.3763 20.3943 16 20.3943C16.6408 20.3943 17.2742 20.3799 17.8977 20.3522C17.2855 21.1841 16.6675 21.945 16.0522 22.6224ZM22.4625 15.522C22.8827 16.4799 23.2369 17.4065 23.5181 18.2877C22.6066 18.4957 21.6225 18.6632 20.5855 18.7876C20.9178 18.2608 21.2396 17.7275 21.5506 17.1879C21.8669 16.6395 22.1709 16.084 22.4625 15.522ZM20.3873 16.5169C19.911 17.3442 19.408 18.1557 18.8791 18.9503C17.9209 19.0182 16.9606 19.0519 16 19.0514C15.0216 19.0514 14.07 19.0209 13.1536 18.9615C12.6108 18.1688 12.0982 17.3558 11.6169 16.5243C11.1378 15.6972 10.6905 14.8522 10.2756 13.9911C10.6894 13.1299 11.1355 12.2845 11.613 11.4568L11.6128 11.4569C12.09 10.6289 12.5985 9.81942 13.1372 9.0301C14.0722 8.95936 15.0309 8.92252 15.9999 8.92252C16.9732 8.92252 17.9334 8.95973 18.868 9.03096C19.4013 9.8191 19.9066 10.6258 20.3829 11.4496C20.8618 12.2756 21.3138 13.1168 21.7382 13.9721C21.3182 14.8361 20.8676 15.6849 20.3873 16.5169ZM23.1578 1.51922C24.2105 2.12638 24.6199 4.57479 23.9585 7.78557C23.9161 7.99058 23.869 8.19894 23.8173 8.41066C22.5128 8.10954 21.0965 7.88566 19.6136 7.74652C18.7498 6.51636 17.8546 5.39796 16.9561 4.42975C17.1916 4.20275 17.4327 3.98163 17.6791 3.76659C20.0002 1.74679 22.1695 0.949277 23.1578 1.51922ZM16 11.1518C17.5504 11.1518 18.8074 12.4088 18.8074 13.9592C18.8074 15.5096 17.5504 16.7666 16 16.7666C14.4496 16.7666 13.1926 15.5096 13.1926 13.9592C13.1926 12.4088 14.4496 11.1518 16 11.1518Z" fill="#00D8FF"/>
</g>
<defs>
<clipPath id="clip0_126_840">
<rect width="31.4386" height="28" fill="white" transform="translate(0.280701)"/>
</clipPath>
</defs>
</svg>
