<svg width="38" height="28" viewBox="0 0 38 28" fill="none" xmlns="http://www.w3.org/2000/svg">
<g clip-path="url(#clip0_126_860)">
<path d="M32.4577 16.1166C31.1589 16.1233 30.03 16.4361 29.0849 16.8986C28.7379 16.2117 28.3911 15.5998 28.33 15.1509C28.2619 14.6274 28.1804 14.3077 28.2619 13.6821C28.3436 13.0565 28.7108 12.1656 28.7039 12.0976C28.6971 12.0296 28.6223 11.71 27.8743 11.7033C27.1263 11.6966 26.4803 11.846 26.4055 12.0432C26.3306 12.2404 26.1879 12.6893 26.0926 13.1515C25.9634 13.8317 24.5967 16.2593 23.8147 17.5309C23.563 17.0346 23.3454 16.5993 23.2978 16.2525C23.2298 15.729 23.1481 15.4093 23.2298 14.7837C23.3115 14.1581 23.6787 13.2673 23.6718 13.1992C23.665 13.1313 23.5901 12.8116 22.8422 12.8049C22.094 12.798 21.448 12.9477 21.3733 13.1448C21.2985 13.3421 21.2169 13.8044 21.0605 14.2533C20.9042 14.7022 19.0884 18.7552 18.6124 19.8023C18.42 20.2261 18.2183 20.6456 18.0072 21.0604C18.0072 21.0604 18.0004 21.0808 17.9799 21.1148C17.9136 21.2448 17.8457 21.3741 17.7761 21.5024V21.5091C17.674 21.6929 17.5652 21.8627 17.5108 21.8627C17.47 21.8627 17.3951 21.3732 17.5244 20.7067C17.7963 19.2991 18.4424 17.1095 18.4357 17.0346C18.4357 16.9938 18.558 16.613 18.0141 16.4157C17.4835 16.2186 17.2932 16.5449 17.2455 16.5449C17.1978 16.5449 17.1639 16.6606 17.1639 16.6606C17.1639 16.6606 17.7556 14.1989 16.0351 14.1989C14.9608 14.1989 13.4782 15.3754 12.7438 16.4361C11.9089 16.8905 11.0748 17.3461 10.2413 17.803C9.84025 18.0275 9.42536 18.2519 9.03773 18.4626C9.01046 18.4355 8.98334 18.4014 8.95607 18.3743C6.87517 16.1506 3.02634 14.5797 3.18953 11.5945C3.25078 10.5064 3.62469 7.65027 10.5814 4.18221C16.3071 1.36004 20.8634 2.142 21.6522 3.8761C22.7809 6.35148 19.2109 10.9484 13.2946 11.6148C11.037 11.8665 9.85367 10.996 9.55457 10.6696C9.24175 10.3295 9.19407 10.3091 9.07842 10.3772C8.88811 10.4793 9.01046 10.7853 9.07842 10.962C9.25532 11.4243 9.98288 12.2404 11.2137 12.6417C12.3018 12.9952 14.947 13.1925 18.15 11.9548C21.7337 10.5675 24.5354 6.71183 23.7127 3.48177C22.8897 0.204021 17.4495 -0.877187 12.3018 0.952001C9.24175 2.04021 5.92317 3.75375 3.53632 5.98427C0.700588 8.63625 0.251713 10.9416 0.435317 11.9073C1.09507 15.3345 5.82123 17.565 7.71167 19.2175C7.61644 19.2719 7.52792 19.3196 7.45325 19.3604C6.50796 19.8295 2.90384 21.7131 2.00623 23.7056C0.986275 25.9633 2.16957 27.5819 2.95153 27.7993C5.37921 28.4726 7.87486 27.2622 9.21448 25.2629C10.5541 23.2636 10.3909 20.6659 9.77215 19.4759C9.7653 19.4623 9.75859 19.4486 9.74488 19.4351C9.98973 19.2923 10.2413 19.1427 10.4862 18.9999C10.9362 18.7339 11.3919 18.4776 11.853 18.2314C11.6218 18.8638 11.4517 19.6187 11.3702 20.7067C11.2681 21.9852 11.7916 23.6444 12.4785 24.2971C12.7846 24.583 13.145 24.5897 13.3763 24.5897C14.1786 24.5897 14.5392 23.9232 14.9403 23.1344C15.4299 22.1689 15.8719 21.0468 15.8719 21.0468C15.8719 21.0468 15.3211 24.0797 16.8172 24.0797C17.3612 24.0797 17.912 23.3724 18.1568 23.0121V23.0188C18.1568 23.0188 18.1704 22.9984 18.1977 22.9508C18.2521 22.8624 18.286 22.8079 18.286 22.8079V22.7945C18.5036 22.4136 18.9933 21.5499 19.7209 20.1151C20.6593 18.2655 21.5638 15.9534 21.5638 15.9534C21.5638 15.9534 21.6455 16.5178 21.9241 17.4563C22.0875 18.0071 22.4273 18.6123 22.6994 19.1971C22.4818 19.5032 22.3458 19.6731 22.3458 19.6731L22.3526 19.6799C22.1757 19.9111 21.9854 20.1626 21.7745 20.4076C21.0333 21.2915 20.1494 22.3049 20.0269 22.5972C19.8839 22.944 19.9181 23.1957 20.1902 23.3997C20.3874 23.5493 20.7409 23.5696 21.1014 23.5493C21.7678 23.5016 22.237 23.3384 22.4681 23.2365C22.8286 23.1073 23.2502 22.91 23.6445 22.6176C24.3723 22.0803 24.8141 21.3119 24.7734 20.2988C24.753 19.7412 24.5694 19.1835 24.345 18.6598C24.4131 18.5647 24.4742 18.4695 24.5423 18.3743C25.6915 16.6946 26.5824 14.8517 26.5824 14.8517C26.5824 14.8517 26.664 15.416 26.9427 16.3546C27.0788 16.8306 27.3576 17.3475 27.6023 17.8506C26.5211 18.7279 25.8547 19.7479 25.6167 20.4143C25.1883 21.652 25.5214 22.2095 26.1539 22.3387C26.4394 22.4 26.8475 22.2639 27.1467 22.1347C27.5275 22.0124 27.9764 21.8016 28.4048 21.4887C29.1325 20.9516 29.8328 20.2035 29.792 19.1904C29.7716 18.7279 29.6492 18.2722 29.4792 17.8302C30.3972 17.4495 31.5805 17.2387 33.09 17.4154C36.3271 17.7962 36.9663 19.8158 36.8438 20.666C36.7214 21.516 36.0414 21.9784 35.8171 22.1212C35.5925 22.2641 35.5179 22.3116 35.5383 22.4136C35.5654 22.5632 35.6742 22.5565 35.8647 22.5292C36.1299 22.4817 37.5648 21.8423 37.6259 20.2783C37.728 18.279 35.8238 16.0962 32.4577 16.1166ZM7.48723 24.5353C6.41273 25.7049 4.91678 26.1469 4.27073 25.773C3.57715 25.3716 3.84913 23.6444 5.16834 22.4069C5.97071 21.652 7.00438 20.9514 7.69125 20.5231C7.84759 20.4279 8.07888 20.292 8.35771 20.1219C8.40525 20.0947 8.43253 20.0811 8.43253 20.0811L8.59571 19.979C9.07842 21.7471 8.61613 23.3045 7.48723 24.5353ZM15.3075 19.2175C14.9335 20.1288 14.1515 22.4612 13.6755 22.332C13.2675 22.2232 13.0158 20.4552 13.5939 18.7075C13.8863 17.8302 14.505 16.7829 14.8655 16.375C15.4503 15.7221 16.0964 15.5044 16.2527 15.7698C16.45 16.1166 15.5387 18.6462 15.3075 19.2175ZM21.761 22.3048C21.6045 22.3864 21.455 22.4408 21.3869 22.4C21.3394 22.3727 21.455 22.2639 21.455 22.2639C21.455 22.2639 22.2642 21.3936 22.5838 20.9991C22.7675 20.768 22.9849 20.496 23.2162 20.1899V20.2783C23.2162 21.3188 22.2097 22.0192 21.7608 22.3048M26.7385 21.1692C26.6229 21.0875 26.6433 20.8155 27.0309 19.9655C27.1806 19.6322 27.5341 19.0747 28.1394 18.5375C28.2074 18.755 28.2551 18.9659 28.2482 19.1631C28.2414 20.4756 27.3031 20.9651 26.7385 21.1692Z" fill="#CD6799"/>
</g>
<defs>
<clipPath id="clip0_126_860">
<rect width="37.3333" height="28" fill="white" transform="translate(0.333374)"/>
</clipPath>
</defs>
</svg>
