<svg width="29" height="28" viewBox="0 0 29 28" fill="none" xmlns="http://www.w3.org/2000/svg">
<path d="M21.9769 19.2784C25.396 15.8615 25.9647 10.8872 23.2456 8.1703C20.5266 5.45342 15.5522 6.02217 12.1331 9.43905C8.71409 12.8559 9.70284 19.3878 10.8644 20.5472C11.8028 21.4856 18.5578 22.6953 21.9769 19.2784Z" fill="#F89939"/>
<path d="M7.94625 14.3412C5.96219 12.3594 3.07469 12.0291 1.4975 13.6041C-0.0796872 15.1812 0.250625 18.0666 2.23469 20.0484C4.21875 22.0325 8.00969 21.4572 8.68344 20.7856C9.22812 20.2409 9.9325 16.3231 7.94625 14.3412Z" fill="#3499CD"/>
<path d="M27.5856 18.7425C27.4587 18.7425 27.3953 18.6659 27.3953 18.5106C27.3953 18.3947 27.4718 18.1409 27.6228 17.7538C27.8437 17.1872 27.9553 16.7803 27.9553 16.5331C27.9553 16.3844 27.9115 16.2597 27.824 16.1613C27.7365 16.0628 27.6271 16.0125 27.4959 16.0125C27.3034 16.0125 27.0824 16.1022 26.8331 16.2838C26.5837 16.4653 26.249 16.7913 25.8268 17.2638C25.8881 16.9575 26.0193 16.5375 26.2162 16.0038L25.2734 16.1853C25.059 16.6491 24.9037 17.0669 24.8075 17.4388C24.7593 17.6203 24.7243 17.8084 24.7003 17.9988C24.4049 18.2853 24.2124 18.4581 24.1293 18.5216C24.044 18.585 23.9543 18.6156 23.8625 18.6156C23.7771 18.6156 23.7093 18.5828 23.659 18.5194C23.6087 18.4559 23.5846 18.3684 23.5846 18.2613C23.5846 18.1453 23.6065 18.0119 23.6503 17.8609C23.7159 17.6345 23.7903 17.4256 23.9412 17.0078L24.3 16.0191L23.9478 16.0344C23.6284 16.6425 23.2543 16.9706 22.8256 17.0166C22.9415 16.7147 23.0006 16.4828 23.0006 16.3209C23.0006 16.1153 22.9 16.0125 22.6987 16.0125C22.4603 16.0125 22.2743 16.1241 22.1409 16.3494C22.0053 16.5747 21.9375 16.7869 21.9375 16.9859C21.9375 17.2845 22.049 17.325 22.2699 17.4234C22.1256 17.6356 21.9637 17.8347 21.7887 18.0228C21.5809 18.2284 21.419 18.3859 21.3009 18.4888C21.1806 18.5959 21.069 18.6484 20.9684 18.6484C20.8109 18.6484 20.7321 18.5369 20.7321 18.3159C20.7321 18.095 20.8196 17.7144 20.9946 17.1456L21.3359 16.0125H21.1193L20.3296 16.45C20.2006 16.1547 19.9753 16.0059 19.6537 16.0059C19.3978 16.0059 19.1046 16.1153 18.7721 16.3319C18.4396 16.5484 18.1662 16.8306 17.954 17.1828C17.79 17.4541 17.6893 17.7384 17.6521 18.0316C17.3546 18.3291 17.1315 18.5216 16.9828 18.6113C16.8275 18.7031 16.6656 18.7491 16.495 18.7491C16.0596 18.7491 15.7906 18.4975 15.6878 17.9944C16.8231 17.6619 17.3896 17.2288 17.3896 16.695C17.3896 16.4938 17.3175 16.3319 17.1731 16.2072C17.0287 16.0825 16.8362 16.0213 16.5978 16.0213C16.1362 16.0213 15.7162 16.2422 15.3378 16.6841C14.9943 17.0844 14.8084 17.5284 14.7756 18.0163C14.4628 18.3247 14.2265 18.5281 14.0734 18.6266C13.9159 18.7272 13.7671 18.7775 13.6293 18.7775C13.4915 18.7775 13.3821 18.7119 13.3012 18.5806C13.2181 18.4494 13.1765 18.2722 13.1765 18.0469C13.1765 17.9463 13.1875 17.7625 13.2071 17.4934C13.7234 16.9334 14.1018 16.4084 14.3446 15.9163C14.5875 15.4241 14.7078 14.9144 14.7078 14.3894C14.7078 14.2034 14.6837 14.0569 14.6356 13.9475C14.5875 13.8381 14.5262 13.7834 14.4518 13.7834C14.4365 13.7834 14.4125 13.7878 14.3818 13.7988L13.3996 14.1619C13.065 14.8006 12.7784 15.4984 12.5443 16.2575C12.3103 17.0144 12.1921 17.6641 12.1921 18.2044C12.1921 18.5653 12.2753 18.8519 12.4459 19.0663C12.6143 19.2806 12.8375 19.3878 13.1131 19.3878C13.3537 19.3878 13.6053 19.3113 13.87 19.1581C14.1346 19.005 14.4409 18.7666 14.7931 18.445C15.1453 18.1234 14.7931 18.4406 14.7931 18.4406C14.8346 18.6834 14.9353 18.8869 15.0928 19.0531C15.3093 19.2763 15.5915 19.39 15.9415 19.39C16.2565 19.39 16.5431 19.3134 16.8034 19.1603C17.055 19.0138 17.3371 18.7841 17.6521 18.48C17.6784 18.7075 17.7528 18.9044 17.8775 19.0728C18.0371 19.285 18.2296 19.3922 18.455 19.3922C18.6803 19.3922 18.9121 19.3047 19.1309 19.1297C19.3496 18.9547 19.5859 18.6813 19.844 18.3138C19.82 19.0334 20.0124 19.3922 20.4193 19.3922C20.5812 19.3922 20.7518 19.3331 20.929 19.215C21.1062 19.0969 21.4015 18.8409 21.815 18.4494C22.1737 18.095 22.4362 17.7625 22.6046 17.4519C22.8321 17.4125 23.04 17.3447 23.2303 17.2463C22.8409 17.8566 22.6462 18.3444 22.6462 18.7075C22.6462 18.9044 22.7009 19.0684 22.8081 19.1997C22.9153 19.3309 23.0487 19.3988 23.2062 19.3988C23.5496 19.3988 24.0375 19.0903 24.6675 18.48C24.6675 18.5281 24.6631 18.5741 24.6631 18.6222C24.6631 18.7928 24.6784 19.0509 24.7046 19.3988L25.5599 19.1975C25.5599 18.9656 25.5643 18.7819 25.5709 18.6441C25.584 18.4603 25.6103 18.2591 25.6474 18.0403C25.6715 17.9113 25.7306 17.7888 25.8246 17.6728L26.0412 17.4213C26.12 17.3294 26.1965 17.2463 26.2643 17.1741C26.3453 17.0888 26.4174 17.0166 26.4809 16.9575C26.5531 16.8941 26.6165 16.8416 26.6712 16.8066C26.7303 16.7716 26.7784 16.7519 26.8134 16.7519C26.8768 16.7519 26.9096 16.7934 26.9096 16.8766C26.9096 16.9597 26.8484 17.1522 26.7281 17.4563C26.5006 18.0228 26.3868 18.445 26.3868 18.7206C26.3868 18.9241 26.4393 19.0859 26.5465 19.2084C26.6515 19.3288 26.7915 19.39 26.9643 19.39C27.3887 19.39 27.9006 19.075 28.4956 18.4472V18.0031C28.0734 18.4997 27.7693 18.7491 27.5812 18.7491L27.5856 18.7425ZM13.31 16.9291C13.485 16.0738 13.6643 15.4109 13.8459 14.9363C14.0275 14.4616 14.1675 14.2231 14.2615 14.2231C14.3053 14.2231 14.3425 14.2516 14.3709 14.3106C14.3993 14.3675 14.4125 14.4463 14.4125 14.5403C14.4125 14.8663 14.3118 15.2534 14.1062 15.7063C13.9028 16.1569 13.6359 16.5659 13.31 16.9291ZM15.889 16.7147C16.0443 16.4544 16.2062 16.3253 16.3768 16.3253C16.5562 16.3253 16.6481 16.45 16.6481 16.6972C16.6481 17.1981 16.3178 17.5394 15.6571 17.7253C15.6571 17.3097 15.7337 16.9728 15.889 16.7147ZM19.7128 17.9944C19.4853 18.4341 19.2403 18.6528 18.9843 18.6528C18.8793 18.6528 18.7918 18.6091 18.724 18.5238C18.6562 18.4384 18.6212 18.3247 18.6212 18.1847C18.6212 17.8172 18.7371 17.4125 18.9668 16.975C19.1965 16.5375 19.4415 16.3188 19.6996 16.3188C19.8068 16.3188 19.8943 16.3581 19.9578 16.4413C20.0212 16.5222 20.054 16.6359 20.054 16.7803C20.054 17.1522 19.9403 17.5569 19.7128 17.9966V17.9944Z" fill="#010101"/>
<path d="M17.0069 14.1925C17.0397 14.2385 17.055 14.2975 17.055 14.3675C17.055 14.4375 17.0353 14.501 16.9959 14.56C16.9565 14.6191 16.8997 14.6672 16.8231 14.7C16.7487 14.7328 16.6634 14.7503 16.5694 14.7503C16.4119 14.7503 16.2937 14.7175 16.2106 14.6519C16.1275 14.5863 16.075 14.49 16.0531 14.361L16.2565 14.3281C16.2675 14.4091 16.3003 14.4725 16.3506 14.5141C16.4031 14.5578 16.4753 14.5797 16.5694 14.5797C16.6634 14.5797 16.7334 14.56 16.7794 14.5228C16.8253 14.4856 16.8472 14.4397 16.8472 14.3872C16.8472 14.3413 16.8275 14.3041 16.7859 14.2778C16.7575 14.2603 16.6875 14.2363 16.5759 14.2078C16.425 14.1706 16.3222 14.1378 16.2631 14.1094C16.204 14.081 16.1603 14.0438 16.1319 13.9935C16.1034 13.9431 16.0859 13.8906 16.0859 13.8316C16.0859 13.7769 16.099 13.7288 16.1231 13.6828C16.1472 13.6369 16.1822 13.5997 16.2237 13.5691C16.2565 13.545 16.2981 13.5253 16.3528 13.51C16.4075 13.4947 16.4665 13.486 16.53 13.486C16.624 13.486 16.7072 13.4991 16.7794 13.5275C16.8515 13.5538 16.904 13.591 16.939 13.6391C16.974 13.685 16.9959 13.7485 17.009 13.8272L16.8078 13.8535C16.799 13.7922 16.7728 13.7419 16.729 13.7069C16.6853 13.6719 16.624 13.6544 16.5431 13.6544C16.449 13.6544 16.3812 13.6697 16.3419 13.7003C16.3025 13.731 16.2806 13.7681 16.2806 13.8097C16.2806 13.836 16.2894 13.86 16.3047 13.8819C16.3222 13.9038 16.3484 13.9213 16.3834 13.9366C16.4031 13.9431 16.4644 13.9606 16.565 13.9891C16.7094 14.0285 16.81 14.0591 16.869 14.0831C16.9259 14.1072 16.9719 14.1444 17.0047 14.1903L17.0069 14.1925ZM17.9847 14.5075C17.93 14.5578 17.8644 14.5819 17.7834 14.5819C17.6828 14.5819 17.6019 14.5447 17.5406 14.4725C17.4794 14.4003 17.4465 14.28 17.4465 14.1181C17.4465 13.9563 17.4794 13.8403 17.5428 13.7681C17.6062 13.696 17.6915 13.6566 17.7944 13.6566C17.8622 13.6566 17.9212 13.6763 17.9694 13.7178C18.0175 13.7594 18.0503 13.8206 18.07 13.9016L18.269 13.871C18.245 13.7485 18.1925 13.6544 18.1094 13.5888C18.0262 13.5231 17.919 13.4903 17.7878 13.4903C17.6828 13.4903 17.5887 13.5144 17.499 13.5647C17.4115 13.6128 17.3437 13.6872 17.3022 13.7856C17.2584 13.8841 17.2365 13.9978 17.2365 14.1291C17.2365 14.3303 17.2869 14.4856 17.3875 14.5928C17.4881 14.7 17.6215 14.7547 17.7856 14.7547C17.9169 14.7547 18.0284 14.7153 18.1203 14.6366C18.21 14.5578 18.2669 14.4485 18.2887 14.3106L18.0875 14.2844C18.0722 14.3872 18.0394 14.4616 17.9847 14.5119V14.5075ZM18.4637 14.7219H18.6694V13.5144H18.4637V14.7219ZM18.4637 13.2891H18.6694V13.0528H18.4637V13.2891ZM19.9359 13.5122H19.6712L19.1856 14.0044V13.0528H18.98V14.7197H19.1856V14.2406L19.33 14.1028L19.7303 14.7197H19.984L19.4744 13.9606L19.9359 13.5122ZM20.1459 13.2891H20.3515V13.0528H20.1459V13.2891ZM20.1459 14.7219H20.3515V13.5144H20.1459V14.7219ZM21.1106 14.5381C21.0734 14.5425 21.0428 14.5469 21.0209 14.5469C20.9903 14.5469 20.9662 14.5425 20.9509 14.5316C20.9356 14.5206 20.9225 14.5075 20.9159 14.4922C20.9094 14.4747 20.905 14.4375 20.905 14.3806V13.6741H21.1106V13.5144H20.905V13.0922L20.7015 13.2147V13.5144H20.5506V13.6741H20.7015V14.3697C20.7015 14.4922 20.7103 14.5731 20.7256 14.6103C20.7431 14.6497 20.7715 14.6803 20.8109 14.7022C20.8525 14.7263 20.9094 14.7372 20.9837 14.7372C21.0297 14.7372 21.08 14.7306 21.139 14.7197L21.1084 14.5381H21.1106Z" fill="white"/>
</svg>
