<svg width="29" height="28" viewBox="0 0 29 28" fill="none" xmlns="http://www.w3.org/2000/svg">
<g clip-path="url(#clip0_118_524)">
<path d="M14.5987 0.261749C10.9814 0.261749 7.5122 1.69872 4.95438 4.25654C2.39656 6.81436 0.959595 10.2835 0.959595 13.9008C0.959653 17.5181 2.39665 20.9872 4.95446 23.5449C7.51228 26.1027 10.9814 27.5397 14.5987 27.5397C18.1859 27.5396 21.6287 26.1263 24.1813 23.6059C26.7339 21.0855 28.1908 17.6609 28.2364 14.074L28.2375 13.9007L28.2364 13.7275C28.1908 10.1405 26.7339 6.71592 24.1813 4.19551C21.6287 1.6751 18.1859 0.261805 14.5987 0.261749Z" fill="white"/>
<path d="M11.4843 8.09155C11.5532 8.09155 11.6215 8.07796 11.6853 8.05156C11.749 8.02516 11.8069 7.98647 11.8557 7.93769C11.9045 7.88891 11.9432 7.83099 11.9696 7.76726C11.996 7.70352 12.0096 7.63521 12.0096 7.56622C12.0096 7.49724 11.996 7.42893 11.9696 7.36519C11.9432 7.30145 11.9045 7.24354 11.8557 7.19476C11.8069 7.14598 11.749 7.10728 11.6853 7.08088C11.6215 7.05448 11.5532 7.0409 11.4843 7.0409C11.3449 7.0409 11.2113 7.09624 11.1128 7.19476C11.0143 7.29328 10.9589 7.4269 10.9589 7.56622C10.9589 7.70555 11.0143 7.83917 11.1128 7.93769C11.2113 8.03621 11.3449 8.09155 11.4843 8.09155ZM10.353 8.88365C10.4879 8.88365 10.6173 8.83004 10.7128 8.73462C10.8082 8.6392 10.8618 8.50978 10.8618 8.37483C10.8618 8.23989 10.8082 8.11047 10.7128 8.01505C10.6173 7.91963 10.4879 7.86602 10.353 7.86602C10.218 7.86602 10.0886 7.91963 9.9932 8.01505C9.89778 8.11047 9.84417 8.23989 9.84417 8.37483C9.84417 8.50978 9.89778 8.6392 9.9932 8.73462C10.0886 8.83004 10.218 8.88365 10.353 8.88365ZM9.26481 9.38765C9.39187 9.38765 9.51372 9.33717 9.60356 9.24733C9.6934 9.15749 9.74388 9.03564 9.74388 8.90858C9.74388 8.78153 9.6934 8.65968 9.60356 8.56984C9.51372 8.47999 9.39187 8.42952 9.26481 8.42952C9.13776 8.42952 9.01591 8.47999 8.92607 8.56984C8.83622 8.65968 8.78575 8.78153 8.78575 8.90858C8.78575 9.03564 8.83622 9.15749 8.92607 9.24733C9.01591 9.33717 9.13776 9.38765 9.26481 9.38765ZM12.4385 7.46571C12.5105 7.46716 12.582 7.45423 12.6489 7.4277C12.7158 7.40117 12.7767 7.36157 12.8281 7.3112C12.8795 7.26083 12.9203 7.20072 12.9482 7.13438C12.976 7.06804 12.9904 6.99681 12.9904 6.92485C12.9904 6.85289 12.976 6.78166 12.9482 6.71532C12.9203 6.64898 12.8795 6.58887 12.8281 6.5385C12.7767 6.48813 12.7158 6.44852 12.6489 6.42199C12.582 6.39546 12.5105 6.38254 12.4385 6.38399C12.297 6.38684 12.1622 6.44507 12.0631 6.54619C11.964 6.64731 11.9085 6.78326 11.9085 6.92485C11.9085 7.06644 11.964 7.20239 12.0631 7.30351C12.1622 7.40463 12.297 7.46286 12.4385 7.46571ZM8.44833 8.25168C8.54472 8.25168 8.63717 8.21339 8.70533 8.14522C8.77349 8.07706 8.81178 7.98462 8.81178 7.88822C8.81178 7.79183 8.77349 7.69938 8.70533 7.63122C8.63717 7.56306 8.54472 7.52477 8.44833 7.52477C8.35194 7.52477 8.25949 7.56306 8.19133 7.63122C8.12317 7.69938 8.08488 7.79183 8.08488 7.88822C8.08488 7.98462 8.12317 8.07706 8.19133 8.14522C8.25949 8.21339 8.35194 8.25168 8.44833 8.25168ZM7.55091 10.2427C7.66543 10.2427 7.77526 10.1972 7.85625 10.1163C7.93723 10.0353 7.98272 9.92545 7.98272 9.81093C7.98272 9.6964 7.93723 9.58657 7.85625 9.50559C7.77526 9.42461 7.66543 9.37911 7.55091 9.37911C7.43638 9.37911 7.32655 9.42461 7.24557 9.50559C7.16459 9.58657 7.11909 9.6964 7.11909 9.81093C7.11909 9.92545 7.16459 10.0353 7.24557 10.1163C7.32655 10.1972 7.43638 10.2427 7.55091 10.2427ZM8.10019 6.82368C8.23819 6.82368 8.37055 6.76885 8.46813 6.67127C8.56572 6.57368 8.62054 6.44133 8.62054 6.30333C8.62054 6.16532 8.56572 6.03297 8.46813 5.93538C8.37055 5.8378 8.23819 5.78297 8.10019 5.78297C7.96218 5.78297 7.82983 5.8378 7.73224 5.93538C7.63466 6.03297 7.57984 6.16532 7.57984 6.30333C7.57984 6.44133 7.63466 6.57368 7.73224 6.67127C7.82983 6.76885 7.96218 6.82368 8.10019 6.82368ZM9.50424 7.79733C9.55787 7.79858 9.61121 7.7891 9.66112 7.76944C9.71104 7.74978 9.75652 7.72034 9.79489 7.68285C9.83327 7.64536 9.86376 7.60058 9.88458 7.55114C9.90539 7.5017 9.91612 7.44859 9.91612 7.39494C9.91612 7.3413 9.90539 7.28819 9.88458 7.23875C9.86376 7.1893 9.83327 7.14452 9.79489 7.10703C9.75652 7.06954 9.71104 7.0401 9.66112 7.02044C9.61121 7.00078 9.55787 6.9913 9.50424 6.99255C9.39865 6.99429 9.29798 7.03746 9.22392 7.11274C9.14987 7.18803 9.10837 7.2894 9.10837 7.395C9.10837 7.5006 9.14987 7.60197 9.22392 7.67725C9.29798 7.75254 9.39865 7.79559 9.50424 7.79733ZM16.4434 6.5964C16.5682 6.5964 16.6879 6.54682 16.7762 6.45856C16.8644 6.37031 16.914 6.25062 16.914 6.12581C16.914 6.001 16.8644 5.88131 16.7762 5.79306C16.6879 5.7048 16.5682 5.65522 16.4434 5.65522C16.3186 5.65522 16.1989 5.7048 16.1107 5.79306C16.0224 5.88131 15.9728 6.001 15.9728 6.12581C15.9728 6.25062 16.0224 6.37031 16.1107 6.45856C16.1989 6.54682 16.3186 6.5964 16.4434 6.5964ZM6.57419 9.0908C6.64984 9.0908 6.7224 9.06075 6.77589 9.00725C6.82939 8.95376 6.85944 8.88121 6.85944 8.80555C6.85944 8.7299 6.82939 8.65734 6.77589 8.60385C6.7224 8.55036 6.64984 8.5203 6.57419 8.5203C6.49854 8.5203 6.42598 8.55036 6.37249 8.60385C6.31899 8.65734 6.28894 8.7299 6.28894 8.80555C6.28894 8.88121 6.31899 8.95376 6.37249 9.00725C6.42598 9.06075 6.49854 9.0908 6.57419 9.0908ZM7.52192 8.82218C7.56688 8.82299 7.61155 8.81483 7.65332 8.79818C7.6951 8.78154 7.73313 8.75673 7.76521 8.72522C7.79729 8.69372 7.82278 8.65613 7.84017 8.61466C7.85756 8.5732 7.86652 8.52868 7.86652 8.48372C7.86652 8.43875 7.85756 8.39423 7.84017 8.35277C7.82278 8.3113 7.79729 8.27372 7.76521 8.24221C7.73313 8.2107 7.6951 8.1859 7.65332 8.16925C7.61155 8.1526 7.56688 8.14445 7.52192 8.14526C7.43214 8.14526 7.34604 8.18092 7.28256 8.2444C7.21907 8.30789 7.18341 8.39399 7.18341 8.48377C7.18341 8.57355 7.21907 8.65965 7.28256 8.72314C7.34604 8.78662 7.43214 8.82218 7.52192 8.82218ZM5.79369 7.74965C5.8532 7.75057 5.91231 7.73966 5.96756 7.71752C6.02282 7.69539 6.07312 7.66249 6.11553 7.62073C6.15795 7.57897 6.19163 7.52919 6.21463 7.47429C6.23762 7.41938 6.24946 7.36046 6.24946 7.30094C6.24946 7.24141 6.23762 7.18248 6.21463 7.12758C6.19163 7.07268 6.15795 7.0229 6.11553 6.98114C6.07312 6.93938 6.02282 6.90648 5.96756 6.88435C5.91231 6.86221 5.8532 6.85129 5.79369 6.85222C5.6759 6.85406 5.56355 6.90215 5.4809 6.9861C5.39825 7.07005 5.35193 7.18313 5.35193 7.30094C5.35193 7.41874 5.39825 7.53182 5.4809 7.61577C5.56355 7.69972 5.6759 7.74781 5.79369 7.74965ZM7.55911 7.5519C7.59025 7.55257 7.62121 7.54702 7.65018 7.53557C7.67915 7.52411 7.70554 7.50699 7.7278 7.48521C7.75006 7.46342 7.76775 7.43741 7.77983 7.40869C7.7919 7.37998 7.79812 7.34915 7.79812 7.318C7.79812 7.28685 7.7919 7.25601 7.77983 7.2273C7.76775 7.19859 7.75006 7.17258 7.7278 7.15079C7.70554 7.129 7.67915 7.11188 7.65018 7.10043C7.62121 7.08898 7.59025 7.08343 7.55911 7.0841C7.49795 7.08542 7.43975 7.11065 7.39696 7.15437C7.35417 7.19809 7.33022 7.25683 7.33022 7.318C7.33022 7.37917 7.35417 7.43791 7.39696 7.48163C7.43975 7.52535 7.49795 7.55057 7.55911 7.5519ZM10.6911 7.18724C10.7484 7.18724 10.8052 7.17594 10.8582 7.154C10.9112 7.13205 10.9593 7.09989 10.9998 7.05934C11.0404 7.01879 11.0726 6.97065 11.0945 6.91767C11.1164 6.86469 11.1277 6.80791 11.1277 6.75056C11.1277 6.69321 11.1164 6.63643 11.0945 6.58345C11.0726 6.53047 11.0404 6.48233 10.9998 6.44178C10.9593 6.40123 10.9112 6.36907 10.8582 6.34712C10.8052 6.32518 10.7484 6.31388 10.6911 6.31388C10.5752 6.31388 10.4642 6.35989 10.3823 6.44178C10.3004 6.52367 10.2544 6.63475 10.2544 6.75056C10.2544 6.86637 10.3004 6.97745 10.3823 7.05934C10.4642 7.14123 10.5752 7.18724 10.6911 7.18724ZM14.0084 7.44001C14.0584 7.44086 14.1081 7.43174 14.1546 7.41318C14.2011 7.39463 14.2434 7.36701 14.2791 7.33193C14.3147 7.29685 14.3431 7.25502 14.3624 7.20887C14.3818 7.16273 14.3917 7.11319 14.3917 7.06315C14.3917 7.01312 14.3818 6.96358 14.3624 6.91744C14.3431 6.87129 14.3147 6.82946 14.2791 6.79438C14.2434 6.7593 14.2011 6.73168 14.1546 6.71312C14.1081 6.69457 14.0584 6.68545 14.0084 6.6863C13.91 6.68867 13.8165 6.72941 13.7478 6.79982C13.6791 6.87022 13.6406 6.96471 13.6406 7.0631C13.6406 7.16149 13.6791 7.25598 13.7478 7.32638C13.8165 7.39679 13.91 7.43764 14.0084 7.44001ZM14.6982 5.08877C14.7636 5.08877 14.8264 5.06279 14.8726 5.01653C14.9189 4.97028 14.9449 4.90754 14.9449 4.84213C14.9449 4.77672 14.9189 4.71398 14.8726 4.66773C14.8264 4.62148 14.7636 4.59549 14.6982 4.59549C14.6328 4.59549 14.5701 4.62148 14.5238 4.66773C14.4776 4.71398 14.4516 4.77672 14.4516 4.84213C14.4516 4.90754 14.4776 4.97028 14.5238 5.01653C14.5701 5.06279 14.6328 5.08877 14.6982 5.08877ZM15.5001 6.50868C15.6094 6.50868 15.7142 6.46526 15.7915 6.38797C15.8688 6.31068 15.9122 6.20585 15.9122 6.09655C15.9122 5.98725 15.8688 5.88242 15.7915 5.80514C15.7142 5.72785 15.6094 5.68443 15.5001 5.68443C15.3908 5.68443 15.2859 5.72785 15.2086 5.80514C15.1314 5.88242 15.0879 5.98725 15.0879 6.09655C15.0879 6.20585 15.1314 6.31068 15.2086 6.38797C15.2859 6.46526 15.3908 6.50868 15.5001 6.50868ZM11.3829 6.26827C11.4952 6.26827 11.6029 6.22365 11.6823 6.14423C11.7617 6.06481 11.8064 5.95709 11.8064 5.84477C11.8064 5.73245 11.7617 5.62473 11.6823 5.54531C11.6029 5.46589 11.4952 5.42127 11.3829 5.42127C11.2705 5.42127 11.1628 5.46589 11.0834 5.54531C11.004 5.62473 10.9594 5.73245 10.9594 5.84477C10.9594 5.95709 11.004 6.06481 11.0834 6.14423C11.1628 6.22365 11.2705 6.26827 11.3829 6.26827ZM6.07795 10.3382C6.1691 10.3382 6.25651 10.302 6.32096 10.2376C6.3854 10.1731 6.42161 10.0857 6.42161 9.99457C6.42161 9.90342 6.3854 9.81601 6.32096 9.75157C6.25651 9.68712 6.1691 9.65091 6.07795 9.65091C5.98681 9.65091 5.8994 9.68712 5.83495 9.75157C5.7705 9.81601 5.7343 9.90342 5.7343 9.99457C5.7343 10.0857 5.7705 10.1731 5.83495 10.2376C5.8994 10.302 5.98681 10.3382 6.07795 10.3382Z" fill="#AFDAD2" stroke="white" stroke-width="0.015625"/>
<path d="M17.3963 6.68631C17.5351 6.68631 17.6682 6.63117 17.7664 6.53302C17.8645 6.43487 17.9197 6.30175 17.9197 6.16295C17.9197 6.02415 17.8645 5.89103 17.7664 5.79288C17.6682 5.69473 17.5351 5.63959 17.3963 5.63959C17.2575 5.63959 17.1244 5.69473 17.0262 5.79288C16.9281 5.89103 16.8729 6.02415 16.8729 6.16295C16.8729 6.30175 16.9281 6.43487 17.0262 6.53302C17.1244 6.63117 17.2575 6.68631 17.3963 6.68631ZM12.3463 6.33183C12.4094 6.33183 12.4719 6.3194 12.5302 6.29526C12.5885 6.27112 12.6414 6.23573 12.686 6.19113C12.7306 6.14652 12.766 6.09356 12.7901 6.03528C12.8143 5.977 12.8267 5.91453 12.8267 5.85145C12.8267 5.78837 12.8143 5.7259 12.7901 5.66762C12.766 5.60934 12.7306 5.55638 12.686 5.51177C12.6414 5.46717 12.5885 5.43178 12.5302 5.40764C12.4719 5.3835 12.4094 5.37108 12.3463 5.37108C12.2189 5.37108 12.0968 5.42169 12.0067 5.51177C11.9166 5.60186 11.866 5.72405 11.866 5.85145C11.866 5.97885 11.9166 6.10104 12.0067 6.19113C12.0968 6.28122 12.2189 6.33183 12.3463 6.33183ZM6.76504 6.71901C6.88316 6.71901 6.99645 6.67209 7.07997 6.58857C7.16349 6.50504 7.21042 6.39176 7.21042 6.27364C7.21042 6.15552 7.16349 6.04223 7.07997 5.95871C6.99645 5.87519 6.88316 5.82826 6.76504 5.82826C6.64692 5.82826 6.53364 5.87519 6.45012 5.95871C6.36659 6.04223 6.31967 6.15552 6.31967 6.27364C6.31967 6.39176 6.36659 6.50504 6.45012 6.58857C6.53364 6.67209 6.64692 6.71901 6.76504 6.71901ZM9.2437 5.56915C9.38027 5.56915 9.51125 5.5149 9.60781 5.41833C9.70438 5.32176 9.75864 5.19079 9.75864 5.05422C9.75864 4.91765 9.70438 4.78667 9.60781 4.6901C9.51125 4.59353 9.38027 4.53928 9.2437 4.53928C9.10713 4.53928 8.97615 4.59353 8.87958 4.6901C8.78301 4.78667 8.72876 4.91765 8.72876 5.05422C8.72876 5.19079 8.78301 5.32176 8.87958 5.41833C8.97615 5.5149 9.10713 5.56915 9.2437 5.56915ZM18.9042 6.26259C18.9886 6.26259 19.0695 6.22908 19.1292 6.16943C19.1888 6.10978 19.2223 6.02888 19.2223 5.94453C19.2223 5.86017 19.1888 5.77927 19.1292 5.71962C19.0695 5.65998 18.9886 5.62647 18.9042 5.62647C18.8199 5.62647 18.739 5.65998 18.6793 5.71962C18.6197 5.77927 18.5862 5.86017 18.5862 5.94453C18.5862 6.02888 18.6197 6.10978 18.6793 6.16943C18.739 6.22908 18.8199 6.26259 18.9042 6.26259ZM7.82565 4.96365C7.87957 4.96491 7.9332 4.95537 7.98339 4.9356C8.03357 4.91583 8.07929 4.88623 8.11787 4.84854C8.15645 4.81085 8.18711 4.76582 8.20804 4.71611C8.22897 4.6664 8.23975 4.61301 8.23975 4.55908C8.23975 4.50514 8.22897 4.45175 8.20804 4.40204C8.18711 4.35233 8.15645 4.3073 8.11787 4.26961C8.07929 4.23192 8.03357 4.20232 7.98339 4.18255C7.9332 4.16278 7.87957 4.15324 7.82565 4.1545C7.71998 4.15696 7.61946 4.20066 7.5456 4.27626C7.47173 4.35187 7.43037 4.45338 7.43037 4.55908C7.43037 4.66478 7.47173 4.76628 7.5456 4.84189C7.61946 4.91749 7.71998 4.9612 7.82565 4.96365ZM9.65014 6.77578C9.74145 6.77578 9.82903 6.7395 9.8936 6.67493C9.95817 6.61036 9.99445 6.52278 9.99445 6.43147C9.99445 6.34015 9.95817 6.25257 9.8936 6.188C9.82903 6.12343 9.74145 6.08715 9.65014 6.08715C9.55882 6.08715 9.47124 6.12343 9.40667 6.188C9.3421 6.25257 9.30582 6.34015 9.30582 6.43147C9.30582 6.52278 9.3421 6.61036 9.40667 6.67493C9.47124 6.7395 9.55882 6.77578 9.65014 6.77578ZM10.475 6.02853C10.5215 6.02934 10.5677 6.02089 10.6108 6.00368C10.654 5.98646 10.6933 5.96081 10.7264 5.92824C10.7596 5.89567 10.7859 5.85682 10.8039 5.81397C10.8218 5.77111 10.8311 5.72511 10.8311 5.67864C10.8311 5.63217 10.8218 5.58617 10.8038 5.54332C10.7858 5.50047 10.7595 5.46163 10.7263 5.42907C10.6932 5.3965 10.6539 5.37087 10.6107 5.35367C10.5676 5.33646 10.5214 5.32803 10.4749 5.32886C10.3832 5.33048 10.2958 5.36805 10.2315 5.43348C10.1672 5.49891 10.1312 5.58697 10.1312 5.67869C10.1312 5.77042 10.1672 5.85848 10.2315 5.92391C10.2958 5.98934 10.3833 6.02691 10.475 6.02853ZM5.07214 6.9172C5.16554 6.9172 5.25512 6.8801 5.32117 6.81405C5.38722 6.748 5.42432 6.65842 5.42432 6.56501C5.42432 6.47161 5.38722 6.38203 5.32117 6.31598C5.25512 6.24993 5.16554 6.21283 5.07214 6.21283C4.97873 6.21283 4.88915 6.24993 4.8231 6.31598C4.75705 6.38203 4.71995 6.47161 4.71995 6.56501C4.71995 6.65842 4.75705 6.748 4.8231 6.81405C4.88915 6.8801 4.97873 6.9172 5.07214 6.9172ZM6.04207 5.54772C6.12776 5.54772 6.20994 5.51368 6.27054 5.45308C6.33113 5.39249 6.36517 5.31031 6.36517 5.22462C6.36517 5.13893 6.33113 5.05675 6.27054 4.99616C6.20994 4.93557 6.12776 4.90153 6.04207 4.90153C5.95638 4.90153 5.8742 4.93557 5.81361 4.99616C5.75302 5.05675 5.71898 5.13893 5.71898 5.22462C5.71898 5.31031 5.75302 5.39249 5.81361 5.45308C5.8742 5.51368 5.95638 5.54772 6.04207 5.54772ZM13.4964 6.55079C13.5683 6.55079 13.6372 6.52226 13.6879 6.47146C13.7387 6.42066 13.7673 6.35177 13.7673 6.27993C13.7673 6.20809 13.7387 6.13919 13.6879 6.0884C13.6372 6.0376 13.5683 6.00906 13.4964 6.00906C13.4246 6.00906 13.3557 6.0376 13.3049 6.0884C13.2541 6.13919 13.2256 6.20809 13.2256 6.27993C13.2256 6.35177 13.2541 6.42066 13.3049 6.47146C13.3557 6.52226 13.4246 6.55079 13.4964 6.55079ZM4.82364 8.70012C4.94235 8.70012 5.05621 8.65296 5.14015 8.56902C5.22409 8.48507 5.27125 8.37122 5.27125 8.25251C5.27125 8.13379 5.22409 8.01994 5.14015 7.93599C5.05621 7.85205 4.94235 7.80489 4.82364 7.80489C4.70492 7.80489 4.59107 7.85205 4.50712 7.93599C4.42318 8.01994 4.37602 8.13379 4.37602 8.25251C4.37602 8.37122 4.42318 8.48507 4.50712 8.56902C4.59107 8.65296 4.70492 8.70012 4.82364 8.70012ZM3.82395 7.94543C3.86865 7.94624 3.91306 7.93813 3.95459 7.92158C3.99612 7.90504 4.03394 7.88038 4.06584 7.84905C4.09773 7.81773 4.12307 7.78036 4.14036 7.73913C4.15766 7.69791 4.16656 7.65365 4.16656 7.60894C4.16656 7.56424 4.15766 7.51998 4.14036 7.47875C4.12307 7.43753 4.09773 7.40016 4.06584 7.36883C4.03394 7.33751 3.99612 7.31285 3.95459 7.2963C3.91306 7.27975 3.86865 7.27164 3.82395 7.27245C3.73576 7.27404 3.65171 7.31019 3.58991 7.37312C3.5281 7.43605 3.49347 7.52074 3.49347 7.60894C3.49347 7.69715 3.5281 7.78183 3.58991 7.84476C3.65171 7.90769 3.73576 7.94384 3.82395 7.94543ZM14.4201 6.47215C14.5099 6.47215 14.596 6.43649 14.6595 6.373C14.7229 6.30952 14.7586 6.22342 14.7586 6.13364C14.7586 6.04386 14.7229 5.95776 14.6595 5.89427C14.596 5.83079 14.5099 5.79512 14.4201 5.79512C14.3303 5.79512 14.2442 5.83079 14.1807 5.89427C14.1172 5.95776 14.0816 6.04386 14.0816 6.13364C14.0816 6.22342 14.1172 6.30952 14.1807 6.373C14.2442 6.43649 14.3303 6.47215 14.4201 6.47215ZM6.72501 8.2297C6.86341 8.2297 6.99614 8.17472 7.094 8.07686C7.19186 7.979 7.24684 7.84627 7.24684 7.70787C7.24684 7.56948 7.19186 7.43675 7.094 7.33888C6.99614 7.24102 6.86341 7.18604 6.72501 7.18604C6.58661 7.18604 6.45389 7.24102 6.35602 7.33888C6.25816 7.43675 6.20318 7.56948 6.20318 7.70787C6.20318 7.84627 6.25816 7.979 6.35602 8.07686C6.45389 8.17472 6.58661 8.2297 6.72501 8.2297Z" fill="#AFDAD2" stroke="white" stroke-width="0.015625"/>
<path d="M18.2199 5.85726C18.2892 5.85826 18.358 5.84547 18.4224 5.81963C18.4867 5.79379 18.5453 5.75542 18.5947 5.70675C18.6441 5.65808 18.6833 5.60008 18.71 5.53611C18.7368 5.47215 18.7506 5.40351 18.7506 5.33417C18.7506 5.26483 18.7368 5.19619 18.71 5.13223C18.6833 5.06827 18.6441 5.01026 18.5947 4.96159C18.5453 4.91292 18.4867 4.87455 18.4224 4.84871C18.358 4.82287 18.2892 4.81008 18.2199 4.81108C18.0825 4.81307 17.9513 4.86906 17.8549 4.96694C17.7584 5.06482 17.7043 5.19673 17.7043 5.33417C17.7043 5.47161 17.7584 5.60352 17.8549 5.7014C17.9513 5.79928 18.0825 5.85527 18.2199 5.85726ZM5.10111 10.7862C5.18164 10.7862 5.25887 10.7543 5.31581 10.6973C5.37275 10.6404 5.40474 10.5631 5.40474 10.4826C5.40474 10.4021 5.37275 10.3249 5.31581 10.2679C5.25887 10.211 5.18164 10.179 5.10111 10.179C5.02058 10.179 4.94336 10.211 4.88642 10.2679C4.82947 10.3249 4.79749 10.4021 4.79749 10.4826C4.79749 10.5631 4.82947 10.6404 4.88642 10.6973C4.94336 10.7543 5.02058 10.7862 5.10111 10.7862ZM12.6852 4.86391C12.7406 4.86481 12.7956 4.85467 12.847 4.8341C12.8984 4.81352 12.9453 4.78292 12.9847 4.74407C13.0242 4.70522 13.0556 4.6589 13.077 4.60781C13.0984 4.55672 13.1094 4.50188 13.1094 4.44648C13.1094 4.39109 13.0984 4.33625 13.077 4.28516C13.0556 4.23407 13.0242 4.18775 12.9847 4.1489C12.9453 4.11005 12.8984 4.07944 12.847 4.05887C12.7956 4.03829 12.7406 4.02816 12.6852 4.02905C12.5756 4.03083 12.4712 4.07559 12.3943 4.15368C12.3175 4.23177 12.2744 4.33693 12.2744 4.44648C12.2744 4.55604 12.3175 4.6612 12.3943 4.73929C12.4712 4.81738 12.5756 4.86214 12.6852 4.86391ZM21.358 5.43879C21.414 5.43879 21.4694 5.42776 21.5212 5.40633C21.5729 5.38489 21.6199 5.35348 21.6595 5.31388C21.6991 5.27428 21.7305 5.22727 21.7519 5.17553C21.7734 5.12379 21.7844 5.06834 21.7844 5.01233C21.7844 4.95633 21.7734 4.90088 21.7519 4.84914C21.7305 4.7974 21.6991 4.75039 21.6595 4.71079C21.6199 4.67119 21.5729 4.63977 21.5212 4.61834C21.4694 4.59691 21.414 4.58588 21.358 4.58588C21.2449 4.58588 21.1364 4.63081 21.0564 4.71079C20.9764 4.79076 20.9315 4.89923 20.9315 5.01233C20.9315 5.12544 20.9764 5.23391 21.0564 5.31388C21.1364 5.39386 21.2449 5.43879 21.358 5.43879ZM15.6854 5.22157C15.7755 5.22157 15.8619 5.18579 15.9256 5.1221C15.9893 5.05841 16.025 4.97203 16.025 4.88196C16.025 4.79189 15.9893 4.70551 15.9256 4.64182C15.8619 4.57813 15.7755 4.54235 15.6854 4.54235C15.5954 4.54235 15.509 4.57813 15.4453 4.64182C15.3816 4.70551 15.3458 4.79189 15.3458 4.88196C15.3458 4.97203 15.3816 5.05841 15.4453 5.1221C15.509 5.18579 15.5954 5.22157 15.6854 5.22157ZM8.28294 9.7008C8.40035 9.7008 8.51295 9.65416 8.59597 9.57114C8.67899 9.48812 8.72563 9.37552 8.72563 9.25811C8.72563 9.1407 8.67899 9.0281 8.59597 8.94508C8.51295 8.86205 8.40035 8.81541 8.28294 8.81541C8.16553 8.81541 8.05293 8.86205 7.96991 8.94508C7.88688 9.0281 7.84024 9.1407 7.84024 9.25811C7.84024 9.37552 7.88688 9.48812 7.96991 9.57114C8.05293 9.65416 8.16553 9.7008 8.28294 9.7008ZM16.8369 5.36769C16.9493 5.36769 17.0571 5.32304 17.1366 5.24356C17.2161 5.16407 17.2608 5.05627 17.2608 4.94387C17.2608 4.83146 17.2161 4.72366 17.1366 4.64417C17.0571 4.56469 16.9493 4.52004 16.8369 4.52004C16.7245 4.52004 16.6167 4.56469 16.5372 4.64417C16.4578 4.72366 16.4131 4.83146 16.4131 4.94387C16.4131 5.05627 16.4578 5.16407 16.5372 5.24356C16.6167 5.32304 16.7245 5.36769 16.8369 5.36769ZM19.838 5.7808C19.8841 5.7808 19.9298 5.77172 19.9724 5.75407C20.015 5.73641 20.0537 5.71054 20.0863 5.67792C20.119 5.6453 20.1448 5.60658 20.1625 5.56397C20.1801 5.52135 20.1892 5.47567 20.1892 5.42954C20.1892 5.38342 20.1801 5.33774 20.1625 5.29512C20.1448 5.25251 20.119 5.21379 20.0863 5.18117C20.0537 5.14855 20.015 5.12268 19.9724 5.10503C19.9298 5.08737 19.8841 5.07829 19.838 5.07829C19.7448 5.07829 19.6555 5.11529 19.5896 5.18117C19.5237 5.24704 19.4867 5.33639 19.4867 5.42954C19.4867 5.5227 19.5237 5.61205 19.5896 5.67792C19.6555 5.7438 19.7448 5.7808 19.838 5.7808ZM23.1536 6.54205C23.2375 6.54205 23.3181 6.50869 23.3775 6.44931C23.4368 6.38993 23.4702 6.30939 23.4702 6.22541C23.4702 6.14143 23.4368 6.0609 23.3775 6.00151C23.3181 5.94213 23.2375 5.90877 23.1536 5.90877C23.0696 5.90877 22.989 5.94213 22.9297 6.00151C22.8703 6.0609 22.8369 6.14143 22.8369 6.22541C22.8369 6.30939 22.8703 6.38993 22.9297 6.44931C22.989 6.50869 23.0696 6.54205 23.1536 6.54205ZM11.3065 4.21576C11.3789 4.21576 11.4483 4.18701 11.4995 4.13583C11.5506 4.08465 11.5794 4.01524 11.5794 3.94287C11.5794 3.87049 11.5506 3.80108 11.4995 3.7499C11.4483 3.69873 11.3789 3.66997 11.3065 3.66997C11.2341 3.66997 11.1647 3.69873 11.1135 3.7499C11.0624 3.80108 11.0336 3.87049 11.0336 3.94287C11.0336 4.01524 11.0624 4.08465 11.1135 4.13583C11.1647 4.18701 11.2341 4.21576 11.3065 4.21576ZM13.7875 3.46676C13.8934 3.46676 13.995 3.42467 14.0699 3.34975C14.1449 3.27483 14.1869 3.17322 14.1869 3.06726C14.1869 2.96131 14.1449 2.8597 14.0699 2.78478C13.995 2.70986 13.8934 2.66777 13.7875 2.66777C13.6815 2.66777 13.5799 2.70986 13.505 2.78478C13.4301 2.8597 13.388 2.96131 13.388 3.06726C13.388 3.17322 13.4301 3.27483 13.505 3.34975C13.5799 3.42467 13.6815 3.46676 13.7875 3.46676ZM23.0829 5.6081C23.2225 5.6081 23.3564 5.55265 23.4551 5.45395C23.5538 5.35524 23.6092 5.22137 23.6092 5.08179C23.6092 4.9422 23.5538 4.80833 23.4551 4.70963C23.3564 4.61093 23.2225 4.55547 23.0829 4.55547C22.9433 4.55547 22.8095 4.61093 22.7107 4.70963C22.612 4.80833 22.5566 4.9422 22.5566 5.08179C22.5566 5.22137 22.612 5.35524 22.7107 5.45395C22.8095 5.55265 22.9433 5.6081 23.0829 5.6081ZM13.1847 5.82313C13.3166 5.82313 13.4431 5.77073 13.5364 5.67745C13.6297 5.58417 13.6821 5.45766 13.6821 5.32575C13.6821 5.19383 13.6297 5.06732 13.5364 4.97405C13.4431 4.88077 13.3166 4.82837 13.1847 4.82837C13.0528 4.82837 12.9263 4.88076 12.833 4.97403C12.7398 5.0673 12.6874 5.19379 12.6874 5.32569C12.6874 5.45759 12.7398 5.58409 12.833 5.67736C12.9263 5.77062 13.0528 5.82302 13.1847 5.82302V5.82313ZM15.0247 3.95927C15.1563 3.95927 15.2825 3.907 15.3755 3.81396C15.4686 3.72092 15.5208 3.59473 15.5208 3.46315C15.5208 3.33157 15.4686 3.20538 15.3755 3.11233C15.2825 3.01929 15.1563 2.96702 15.0247 2.96702C14.8931 2.96702 14.7669 3.01929 14.6739 3.11233C14.5808 3.20538 14.5286 3.33157 14.5286 3.46315C14.5286 3.59473 14.5808 3.72092 14.6739 3.81396C14.7669 3.907 14.8931 3.95927 15.0247 3.95927ZM19.3257 4.56368C19.3938 4.56467 19.4614 4.55211 19.5247 4.52673C19.5879 4.50134 19.6455 4.46364 19.694 4.41581C19.7425 4.36798 19.7811 4.31098 19.8074 4.24812C19.8337 4.18527 19.8472 4.11781 19.8472 4.04967C19.8472 3.98153 19.8337 3.91407 19.8074 3.85122C19.7811 3.78836 19.7425 3.73136 19.694 3.68353C19.6455 3.6357 19.5879 3.598 19.5247 3.57261C19.4614 3.54723 19.3938 3.53467 19.3257 3.53566C19.1906 3.53763 19.0618 3.59265 18.967 3.68883C18.8722 3.78501 18.8191 3.91463 18.8191 4.04967C18.8191 4.18471 18.8722 4.31433 18.967 4.41051C19.0618 4.50669 19.1906 4.56171 19.3257 4.56368ZM24.6466 7.79472C24.7114 7.7961 24.7758 7.78453 24.836 7.76069C24.8963 7.73685 24.9512 7.70123 24.9975 7.65591C25.0437 7.61058 25.0805 7.55648 25.1056 7.49676C25.1307 7.43703 25.1437 7.3729 25.1437 7.30812C25.1437 7.24333 25.1307 7.1792 25.1056 7.11948C25.0805 7.05975 25.0437 7.00565 24.9975 6.96032C24.9512 6.915 24.8963 6.87938 24.836 6.85554C24.7758 6.8317 24.7114 6.82013 24.6466 6.82151C24.5194 6.8242 24.3982 6.87666 24.3092 6.96762C24.2201 7.05858 24.1702 7.18082 24.1702 7.30812C24.1702 7.43541 24.2201 7.55765 24.3092 7.64861C24.3982 7.73957 24.5194 7.79203 24.6466 7.79472ZM13.6751 1.90368C13.7488 1.90368 13.8195 1.87441 13.8716 1.82231C13.9237 1.77021 13.9529 1.69955 13.9529 1.62587C13.9529 1.55219 13.9237 1.48152 13.8716 1.42942C13.8195 1.37732 13.7488 1.34805 13.6751 1.34805C13.6014 1.34805 13.5308 1.37732 13.4787 1.42942C13.4266 1.48152 13.3973 1.55219 13.3973 1.62587C13.3973 1.69955 13.4266 1.77021 13.4787 1.82231C13.5308 1.87441 13.6014 1.90368 13.6751 1.90368Z" fill="#AFDAD2" stroke="white" stroke-width="0.015625"/>
<path d="M18.1118 4.85286C18.1737 4.85381 18.2351 4.84244 18.2925 4.81942C18.35 4.7964 18.4022 4.76219 18.4463 4.71877C18.4904 4.67535 18.5254 4.6236 18.5493 4.56653C18.5732 4.50946 18.5855 4.4482 18.5855 4.38632C18.5855 4.32445 18.5732 4.26319 18.5493 4.20612C18.5254 4.14904 18.4904 4.09729 18.4463 4.05388C18.4022 4.01046 18.35 3.97625 18.2925 3.95323C18.2351 3.9302 18.1737 3.91884 18.1118 3.91978C17.9893 3.92166 17.8724 3.97164 17.7865 4.05893C17.7005 4.14622 17.6523 4.26381 17.6523 4.38632C17.6523 4.50883 17.7005 4.62643 17.7865 4.71372C17.8724 4.80101 17.9893 4.85099 18.1118 4.85286ZM17.4876 3.95675C17.5875 3.95675 17.6832 3.91708 17.7539 3.84646C17.8245 3.77583 17.8642 3.68005 17.8642 3.58018C17.8642 3.4803 17.8245 3.38452 17.7539 3.31389C17.6832 3.24327 17.5875 3.2036 17.4876 3.2036C17.3877 3.2036 17.2919 3.24327 17.2213 3.31389C17.1507 3.38452 17.111 3.4803 17.111 3.58018C17.111 3.68005 17.1507 3.77583 17.2213 3.84646C17.2919 3.91708 17.3877 3.95675 17.4876 3.95675ZM15.5952 3.13688C15.6586 3.13688 15.7215 3.12438 15.7801 3.1001C15.8387 3.07581 15.892 3.04022 15.9369 2.99535C15.9817 2.95048 16.0173 2.89721 16.0416 2.83858C16.0659 2.77995 16.0784 2.71712 16.0784 2.65366C16.0784 2.5902 16.0659 2.52737 16.0416 2.46874C16.0173 2.41011 15.9817 2.35684 15.9369 2.31197C15.892 2.2671 15.8387 2.23151 15.7801 2.20722C15.7215 2.18294 15.6586 2.17044 15.5952 2.17044C15.467 2.17044 15.3441 2.22135 15.2535 2.31197C15.1629 2.40259 15.112 2.5255 15.112 2.65366C15.112 2.78182 15.1629 2.90473 15.2535 2.99535C15.3441 3.08597 15.467 3.13688 15.5952 3.13688ZM10.2652 5.10727C10.3364 5.10727 10.4068 5.09326 10.4725 5.06604C10.5382 5.03881 10.5979 4.99891 10.6482 4.94861C10.6985 4.89831 10.7384 4.8386 10.7657 4.77288C10.7929 4.70716 10.8069 4.63672 10.8069 4.56559C10.8069 4.49445 10.7929 4.42402 10.7657 4.3583C10.7384 4.29258 10.6985 4.23286 10.6482 4.18256C10.5979 4.13226 10.5382 4.09236 10.4725 4.06514C10.4068 4.03792 10.3364 4.02391 10.2652 4.02391C10.1216 4.02391 9.98378 4.08098 9.8822 4.18256C9.78061 4.28415 9.72354 4.42193 9.72354 4.56559C9.72354 4.70925 9.78061 4.84703 9.8822 4.94861C9.98378 5.0502 10.1216 5.10727 10.2652 5.10727ZM6.92349 4.30971C6.96222 4.30971 7.00058 4.30208 7.03637 4.28725C7.07216 4.27243 7.10468 4.2507 7.13207 4.22331C7.15946 4.19592 7.18119 4.1634 7.19602 4.12761C7.21084 4.09182 7.21847 4.05346 7.21847 4.01472C7.21847 3.97598 7.21084 3.93763 7.19602 3.90184C7.18119 3.86605 7.15946 3.83353 7.13207 3.80614C7.10468 3.77874 7.07216 3.75702 7.03637 3.74219C7.00058 3.72737 6.96222 3.71974 6.92349 3.71974C6.84525 3.71974 6.77022 3.75082 6.7149 3.80614C6.65958 3.86146 6.6285 3.93649 6.6285 4.01472C6.6285 4.09296 6.65958 4.16799 6.7149 4.22331C6.77022 4.27863 6.84525 4.30971 6.92349 4.30971ZM8.32578 4.11185C8.376 4.11185 8.42572 4.10196 8.47211 4.08274C8.5185 4.06352 8.56066 4.03536 8.59616 3.99985C8.63167 3.96435 8.65984 3.92219 8.67905 3.8758C8.69827 3.82941 8.70816 3.77969 8.70816 3.72947C8.70816 3.67926 8.69827 3.62954 8.67905 3.58314C8.65984 3.53675 8.63167 3.4946 8.59616 3.45909C8.56066 3.42359 8.5185 3.39542 8.47211 3.3762C8.42572 3.35699 8.376 3.3471 8.32578 3.3471C8.22437 3.3471 8.12711 3.38738 8.0554 3.45909C7.9837 3.5308 7.94341 3.62806 7.94341 3.72947C7.94341 3.83088 7.9837 3.92814 8.0554 3.99985C8.12711 4.07156 8.22437 4.11185 8.32578 4.11185ZM21.1736 6.42852C21.2361 6.42947 21.2982 6.41798 21.3562 6.39472C21.4142 6.37146 21.4671 6.33689 21.5116 6.29303C21.5561 6.24917 21.5915 6.19688 21.6156 6.13922C21.6398 6.08156 21.6522 6.01968 21.6522 5.95717C21.6522 5.89466 21.6398 5.83277 21.6156 5.77511C21.5915 5.71745 21.5561 5.66517 21.5116 5.6213C21.4671 5.57744 21.4142 5.54287 21.3562 5.51961C21.2982 5.49635 21.2361 5.48486 21.1736 5.48582C21.0499 5.4877 20.9318 5.53819 20.8449 5.62638C20.7581 5.71457 20.7094 5.83339 20.7094 5.95717C20.7094 6.08095 20.7581 6.19976 20.8449 6.28795C20.9318 6.37614 21.0499 6.42663 21.1736 6.42852ZM16.0026 3.94407C16.072 3.94407 16.1386 3.91649 16.1877 3.86741C16.2368 3.81832 16.2643 3.75175 16.2643 3.68233C16.2643 3.61292 16.2368 3.54634 16.1877 3.49726C16.1386 3.44817 16.072 3.4206 16.0026 3.4206C15.9332 3.4206 15.8666 3.44817 15.8175 3.49726C15.7684 3.54634 15.7409 3.61292 15.7409 3.68233C15.7409 3.75175 15.7684 3.81832 15.8175 3.86741C15.8666 3.91649 15.9332 3.94407 16.0026 3.94407ZM10.4448 3.99678C10.51 3.99678 10.5746 3.98394 10.6348 3.95899C10.695 3.93404 10.7498 3.89748 10.7959 3.85138C10.842 3.80528 10.8785 3.75055 10.9035 3.69032C10.9284 3.63008 10.9413 3.56553 10.9413 3.50033C10.9413 3.43514 10.9284 3.37058 10.9035 3.31035C10.8785 3.25011 10.842 3.19539 10.7959 3.14929C10.7498 3.10319 10.695 3.06662 10.6348 3.04167C10.5746 3.01672 10.51 3.00388 10.4448 3.00388C10.3131 3.00388 10.1869 3.05618 10.0938 3.14929C10.0007 3.24239 9.94836 3.36866 9.94836 3.50033C9.94836 3.632 10.0007 3.75827 10.0938 3.85138C10.1869 3.94448 10.3131 3.99678 10.4448 3.99678ZM3.16066 10.082C3.21734 10.082 3.27346 10.0708 3.32582 10.0491C3.37819 10.0274 3.42576 9.99564 3.46584 9.95556C3.50592 9.91548 3.53771 9.8679 3.5594 9.81554C3.58109 9.76318 3.59225 9.70706 3.59225 9.65038C3.59225 9.5937 3.58109 9.53758 3.5594 9.48521C3.53771 9.43285 3.50592 9.38527 3.46584 9.3452C3.42576 9.30512 3.37819 9.27333 3.32582 9.25164C3.27346 9.22995 3.21734 9.21878 3.16066 9.21878C3.04619 9.21878 2.93642 9.26426 2.85548 9.3452C2.77454 9.42613 2.72906 9.53591 2.72906 9.65038C2.72906 9.76484 2.77454 9.87462 2.85548 9.95556C2.93642 10.0365 3.04619 10.082 3.16066 10.082ZM4.31041 10.2309C4.44341 10.2309 4.57097 10.1781 4.66501 10.0841C4.75906 9.99001 4.81189 9.86246 4.81189 9.72946C4.81189 9.59645 4.75906 9.4689 4.66501 9.37485C4.57097 9.28081 4.44341 9.22797 4.31041 9.22797C4.17741 9.22797 4.04985 9.28081 3.95581 9.37485C3.86176 9.4689 3.80892 9.59645 3.80892 9.72946C3.80892 9.86246 3.86176 9.99001 3.95581 10.0841C4.04985 10.1781 4.17741 10.2309 4.31041 10.2309ZM8.36264 5.81C8.42601 5.81 8.48877 5.79752 8.54731 5.77327C8.60586 5.74902 8.65906 5.71347 8.70387 5.66866C8.74868 5.62385 8.78422 5.57066 8.80847 5.51211C8.83272 5.45356 8.84521 5.39081 8.84521 5.32744C8.84521 5.26407 8.83272 5.20132 8.80847 5.14277C8.78422 5.08422 8.74868 5.03103 8.70387 4.98622C8.65906 4.94141 8.60586 4.90586 8.54731 4.88161C8.48877 4.85736 8.42601 4.84488 8.36264 4.84488C8.23465 4.84488 8.11189 4.89573 8.02138 4.98623C7.93087 5.07674 7.88003 5.1995 7.88003 5.3275C7.88003 5.45549 7.93087 5.57825 8.02138 5.66876C8.11189 5.75927 8.23465 5.81 8.36264 5.81ZM3.30252 9.00769C3.40173 9.00769 3.49687 8.96828 3.56702 8.89813C3.63717 8.82798 3.67658 8.73284 3.67658 8.63363C3.67658 8.53442 3.63717 8.43928 3.56702 8.36913C3.49687 8.29898 3.40173 8.25957 3.30252 8.25957C3.20331 8.25957 3.10817 8.29898 3.03802 8.36913C2.96787 8.43928 2.92846 8.53442 2.92846 8.63363C2.92846 8.73284 2.96787 8.82798 3.03802 8.89813C3.10817 8.96828 3.20331 9.00769 3.30252 9.00769ZM18.3843 3.57799C18.4929 3.57799 18.597 3.53486 18.6738 3.4581C18.7506 3.38133 18.7937 3.27721 18.7937 3.16865C18.7937 3.06009 18.7506 2.95597 18.6738 2.87921C18.597 2.80244 18.4929 2.75932 18.3843 2.75932C18.2758 2.75932 18.1717 2.80244 18.0949 2.87921C18.0181 2.95597 17.975 3.06009 17.975 3.16865C17.975 3.27721 18.0181 3.38133 18.0949 3.4581C18.1717 3.53486 18.2758 3.57799 18.3843 3.57799ZM6.98966 5.29671C7.08845 5.29671 7.18319 5.25746 7.25304 5.18761C7.32289 5.11776 7.36214 5.02302 7.36214 4.92423C7.36214 4.82544 7.32289 4.7307 7.25304 4.66085C7.18319 4.591 7.08845 4.55175 6.98966 4.55175C6.89089 4.55175 6.79616 4.59099 6.72632 4.66083C6.65647 4.73068 6.61724 4.8254 6.61724 4.92418C6.61724 5.02295 6.65647 5.11767 6.72632 5.18752C6.79616 5.25736 6.89089 5.29671 6.98966 5.29671Z" fill="#AFDAD2" stroke="white" stroke-width="0.015625"/>
<path d="M5.18404 9.78305C5.25264 9.78305 5.32058 9.76953 5.38396 9.74328C5.44735 9.71702 5.50494 9.67854 5.55345 9.63003C5.60196 9.58152 5.64045 9.52393 5.6667 9.46054C5.69295 9.39716 5.70647 9.32922 5.70647 9.26062C5.70647 9.19201 5.69295 9.12408 5.6667 9.06069C5.64045 8.99731 5.60196 8.93972 5.55345 8.8912C5.50494 8.84269 5.44735 8.80421 5.38396 8.77795C5.32058 8.7517 5.25264 8.73819 5.18404 8.73819C5.04548 8.73819 4.9126 8.79323 4.81462 8.8912C4.71665 8.98918 4.66161 9.12206 4.66161 9.26062C4.66161 9.39917 4.71665 9.53206 4.81462 9.63003C4.9126 9.72801 5.04548 9.78305 5.18404 9.78305ZM22.1655 6.22814C22.2333 6.22913 22.3007 6.21663 22.3637 6.19135C22.4266 6.16607 22.4839 6.12853 22.5323 6.08091C22.5806 6.03328 22.619 5.97652 22.6452 5.91393C22.6714 5.85134 22.6848 5.78417 22.6848 5.71632C22.6848 5.64847 22.6714 5.5813 22.6452 5.51871C22.619 5.45612 22.5806 5.39936 22.5323 5.35173C22.4839 5.30411 22.4266 5.26657 22.3637 5.24129C22.3007 5.21601 22.2333 5.20351 22.1655 5.2045C22.0297 5.2045 21.8995 5.25843 21.8035 5.35442C21.7075 5.45042 21.6536 5.58062 21.6536 5.71637C21.6536 5.85213 21.7075 5.98233 21.8035 6.07833C21.8995 6.17432 22.0297 6.22814 22.1655 6.22814ZM24.0108 6.16722C24.0575 6.16804 24.104 6.15955 24.1474 6.14223C24.1908 6.1249 24.2304 6.09911 24.2637 6.06634C24.2971 6.03357 24.3236 5.99448 24.3416 5.95136C24.3597 5.90824 24.369 5.86195 24.369 5.81519C24.369 5.76844 24.3597 5.72215 24.3416 5.67903C24.3236 5.63591 24.2971 5.59682 24.2637 5.56405C24.2304 5.53128 24.1908 5.50549 24.1474 5.48816C24.104 5.47084 24.0575 5.46235 24.0108 5.46317C23.9185 5.4648 23.8305 5.5026 23.7658 5.56844C23.7011 5.63428 23.6649 5.72289 23.6649 5.81519C23.6649 5.9075 23.7011 5.99611 23.7658 6.06195C23.8305 6.12779 23.9185 6.16559 24.0108 6.16722ZM11.841 5.29594C11.945 5.29594 12.0448 5.25463 12.1183 5.18109C12.1918 5.10756 12.2331 5.00782 12.2331 4.90383C12.2331 4.79983 12.1918 4.7001 12.1183 4.62656C12.0448 4.55303 11.945 4.51172 11.841 4.51172C11.737 4.51172 11.6373 4.55303 11.5638 4.62656C11.4902 4.7001 11.4489 4.79983 11.4489 4.90383C11.4489 5.00782 11.4902 5.10756 11.5638 5.18109C11.6373 5.25463 11.737 5.29594 11.841 5.29594ZM20.4481 4.85516C20.4917 4.85595 20.5351 4.84805 20.5756 4.8319C20.6161 4.81575 20.6531 4.79169 20.6842 4.76112C20.7153 4.73054 20.7401 4.69407 20.757 4.65383C20.7738 4.6136 20.7825 4.5704 20.7825 4.52676C20.7825 4.48312 20.7738 4.43992 20.757 4.39968C20.7401 4.35944 20.7153 4.32297 20.6842 4.2924C20.6531 4.26182 20.6161 4.23776 20.5756 4.22161C20.5351 4.20547 20.4917 4.19756 20.4481 4.19836C20.362 4.19993 20.28 4.23522 20.2197 4.29663C20.1594 4.35805 20.1256 4.44068 20.1256 4.52676C20.1256 4.61283 20.1594 4.69546 20.2197 4.75688C20.28 4.8183 20.362 4.85359 20.4481 4.85516ZM20.307 4.03233C20.449 4.03233 20.5853 3.9759 20.6857 3.87545C20.7862 3.77501 20.8426 3.63877 20.8426 3.49672C20.8426 3.35467 20.7862 3.21843 20.6857 3.11799C20.5853 3.01754 20.449 2.96111 20.307 2.96111C20.1649 2.96111 20.0287 3.01754 19.9283 3.11799C19.8278 3.21843 19.7714 3.35467 19.7714 3.49672C19.7714 3.63877 19.8278 3.77501 19.9283 3.87545C20.0287 3.9759 20.1649 4.03233 20.307 4.03233ZM13.7036 4.94517C13.8306 4.94517 13.9524 4.89472 14.0422 4.80491C14.132 4.71509 14.1825 4.59328 14.1825 4.46627C14.1825 4.33926 14.132 4.21745 14.0422 4.12764C13.9524 4.03783 13.8306 3.98737 13.7036 3.98737C13.5766 3.98737 13.4548 4.03783 13.365 4.12764C13.2751 4.21745 13.2247 4.33926 13.2247 4.46627C13.2247 4.59328 13.2751 4.71509 13.365 4.80491C13.4548 4.89472 13.5766 4.94517 13.7036 4.94517ZM23.8226 7.25987C23.8766 7.25987 23.93 7.24925 23.9798 7.2286C24.0297 7.20796 24.075 7.1777 24.1131 7.13955C24.1513 7.1014 24.1815 7.05612 24.2022 7.00627C24.2228 6.95643 24.2334 6.90301 24.2334 6.84906C24.2334 6.79511 24.2228 6.74169 24.2022 6.69185C24.1815 6.64201 24.1513 6.59672 24.1131 6.55857C24.075 6.52043 24.0297 6.49017 23.9798 6.46952C23.93 6.44888 23.8766 6.43825 23.8226 6.43825C23.7137 6.43825 23.6092 6.48153 23.5321 6.55857C23.4551 6.63562 23.4118 6.74011 23.4118 6.84906C23.4118 6.95802 23.4551 7.06251 23.5321 7.13955C23.6092 7.21659 23.7137 7.25987 23.8226 7.25987ZM4.21202 10.969C4.27593 10.969 4.33721 10.9436 4.3824 10.8984C4.42759 10.8532 4.45298 10.792 4.45298 10.728C4.45298 10.6641 4.42759 10.6029 4.3824 10.5577C4.33721 10.5125 4.27593 10.4871 4.21202 10.4871C4.14812 10.4871 4.08683 10.5125 4.04164 10.5577C3.99646 10.6029 3.97107 10.6641 3.97107 10.728C3.97107 10.792 3.99646 10.8532 4.04164 10.8984C4.08683 10.9436 4.14812 10.969 4.21202 10.969ZM9.27554 4.28816C9.39485 4.28816 9.50927 4.24076 9.59364 4.1564C9.678 4.07203 9.7254 3.95761 9.7254 3.8383C9.7254 3.71899 9.678 3.60456 9.59364 3.5202C9.50927 3.43583 9.39485 3.38844 9.27554 3.38844C9.15623 3.38844 9.0418 3.43583 8.95744 3.5202C8.87307 3.60456 8.82568 3.71899 8.82568 3.8383C8.82568 3.95761 8.87307 4.07203 8.95744 4.1564C9.0418 4.24076 9.15623 4.28816 9.27554 4.28816ZM12.559 3.55469C12.6442 3.55469 12.7259 3.52083 12.7862 3.46057C12.8465 3.4003 12.8803 3.31857 12.8803 3.23334C12.8803 3.14812 12.8465 3.06638 12.7862 3.00612C12.7259 2.94586 12.6442 2.912 12.559 2.912C12.4737 2.912 12.392 2.94586 12.3318 3.00612C12.2715 3.06638 12.2376 3.14812 12.2376 3.23334C12.2376 3.31857 12.2715 3.4003 12.3318 3.46057C12.392 3.52083 12.4737 3.55469 12.559 3.55469ZM21.8836 4.54409C21.9909 4.54409 22.0937 4.5015 22.1695 4.42568C22.2453 4.34985 22.2879 4.24702 22.2879 4.13979C22.2879 4.03256 22.2453 3.92972 22.1695 3.8539C22.0937 3.77808 21.9909 3.73548 21.8836 3.73548C21.7764 3.73548 21.6736 3.77808 21.5977 3.8539C21.5219 3.92972 21.4793 4.03256 21.4793 4.13979C21.4793 4.24702 21.5219 4.34985 21.5977 4.42568C21.6736 4.5015 21.7764 4.54409 21.8836 4.54409ZM11.661 2.90588C11.7943 2.90588 11.9222 2.85291 12.0165 2.75863C12.1108 2.66434 12.1637 2.53647 12.1637 2.40313C12.1637 2.2698 12.1108 2.14192 12.0165 2.04764C11.9222 1.95336 11.7943 1.90039 11.661 1.90039C11.5277 1.90039 11.3998 1.95336 11.3055 2.04764C11.2112 2.14192 11.1583 2.2698 11.1583 2.40313C11.1583 2.53647 11.2112 2.66434 11.3055 2.75863C11.3998 2.85291 11.5277 2.90588 11.661 2.90588Z" fill="#AFDAD2" stroke="white" stroke-width="0.015625"/>
<path d="M19.5478 3.38604C19.6711 3.38604 19.7894 3.33706 19.8765 3.24987C19.9637 3.16268 20.0127 3.04444 20.0127 2.92114C20.0127 2.79784 19.9637 2.67959 19.8765 2.5924C19.7894 2.50522 19.6711 2.45624 19.5478 2.45624C19.4245 2.45624 19.3063 2.50521 19.2191 2.59239C19.1319 2.67956 19.083 2.7978 19.083 2.92108C19.083 3.04437 19.1319 3.1626 19.2191 3.24978C19.3063 3.33695 19.4245 3.38604 19.5478 3.38604ZM9.39519 2.89035C9.49396 2.89035 9.58869 2.85111 9.65853 2.78127C9.72837 2.71143 9.76761 2.6167 9.76761 2.51793C9.76761 2.41915 9.72837 2.32443 9.65853 2.25458C9.58869 2.18474 9.49396 2.1455 9.39519 2.1455C9.29642 2.1455 9.20169 2.18474 9.13185 2.25458C9.062 2.32443 9.02277 2.41915 9.02277 2.51793C9.02277 2.6167 9.062 2.71143 9.13185 2.78127C9.20169 2.85111 9.29642 2.89035 9.39519 2.89035ZM10.2894 2.60247C10.3434 2.60247 10.3968 2.59185 10.4467 2.5712C10.4965 2.55055 10.5418 2.52029 10.58 2.48213C10.6181 2.44398 10.6484 2.39869 10.669 2.34884C10.6897 2.29899 10.7003 2.24556 10.7003 2.19161C10.7003 2.13765 10.6897 2.08422 10.669 2.03437C10.6484 1.98453 10.6181 1.93923 10.58 1.90108C10.5418 1.86293 10.4965 1.83266 10.4467 1.81201C10.3968 1.79137 10.3434 1.78074 10.2894 1.78074C10.1805 1.78074 10.076 1.82403 9.99891 1.90108C9.92186 1.97813 9.87857 2.08264 9.87857 2.19161C9.87857 2.30057 9.92186 2.40508 9.99891 2.48213C10.076 2.55919 10.1805 2.60247 10.2894 2.60247ZM16.6218 2.08754C16.7497 2.08754 16.8723 2.03675 16.9626 1.94636C17.053 1.85596 17.1038 1.73336 17.1038 1.60552C17.1038 1.47768 17.053 1.35508 16.9626 1.26468C16.8723 1.17429 16.7497 1.1235 16.6218 1.1235C16.494 1.1235 16.3714 1.17429 16.281 1.26468C16.1906 1.35508 16.1398 1.47768 16.1398 1.60552C16.1398 1.73336 16.1906 1.85596 16.281 1.94636C16.3714 2.03675 16.494 2.08754 16.6218 2.08754ZM14.6851 2.18969C14.7344 2.18969 14.7832 2.17999 14.8287 2.16114C14.8742 2.14228 14.9155 2.11465 14.9504 2.07981C14.9852 2.04497 15.0129 2.00362 15.0317 1.9581C15.0506 1.91259 15.0603 1.8638 15.0603 1.81454C15.0603 1.76527 15.0506 1.71649 15.0317 1.67097C15.0129 1.62545 14.9852 1.5841 14.9504 1.54926C14.9155 1.51442 14.8742 1.48679 14.8287 1.46794C14.7832 1.44908 14.7344 1.43938 14.6851 1.43938C14.5856 1.43938 14.4902 1.4789 14.4198 1.54926C14.3495 1.61962 14.31 1.71504 14.31 1.81454C14.31 1.91403 14.3495 2.00946 14.4198 2.07981C14.4902 2.15017 14.5856 2.18969 14.6851 2.18969ZM17.5844 2.64754C17.6605 2.64754 17.7335 2.61731 17.7873 2.56351C17.8411 2.50971 17.8713 2.43673 17.8713 2.36065C17.8713 2.28456 17.8411 2.21159 17.7873 2.15778C17.7335 2.10398 17.6605 2.07375 17.5844 2.07375C17.5083 2.07375 17.4354 2.10398 17.3816 2.15778C17.3278 2.21159 17.2975 2.28456 17.2975 2.36065C17.2975 2.43673 17.3278 2.50971 17.3816 2.56351C17.4354 2.61731 17.5083 2.64754 17.5844 2.64754Z" fill="#AFDAD2" stroke="white" stroke-width="0.015625"/>
<path d="M16.6265 3.08787C16.697 3.08888 16.767 3.07587 16.8324 3.04959C16.8978 3.02331 16.9574 2.98429 17.0076 2.93479C17.0578 2.88529 17.0977 2.82631 17.1249 2.76127C17.1521 2.69623 17.1661 2.62643 17.1661 2.55592C17.1661 2.48542 17.1521 2.41562 17.1249 2.35057C17.0977 2.28553 17.0578 2.22655 17.0076 2.17705C16.9574 2.12756 16.8978 2.08854 16.8324 2.06226C16.767 2.03598 16.697 2.02297 16.6265 2.02398C16.4867 2.02598 16.3534 2.08291 16.2553 2.18245C16.1571 2.28199 16.1021 2.41615 16.1021 2.55592C16.1021 2.6957 16.1571 2.82986 16.2553 2.9294C16.3534 3.02894 16.4867 3.08586 16.6265 3.08787ZM18.7378 2.57173C18.8353 2.57173 18.9288 2.53299 18.9977 2.46404C19.0667 2.39509 19.1054 2.30157 19.1054 2.20406C19.1054 2.10655 19.0667 2.01304 18.9977 1.94409C18.9288 1.87514 18.8353 1.8364 18.7378 1.8364C18.6403 1.8364 18.5467 1.87514 18.4778 1.94409C18.4088 2.01304 18.3701 2.10655 18.3701 2.20406C18.3701 2.30157 18.4088 2.39509 18.4778 2.46404C18.5467 2.53299 18.6403 2.57173 18.7378 2.57173ZM2.24193 11.5392C2.3644 11.5392 2.48186 11.4905 2.56846 11.4039C2.65506 11.3173 2.70371 11.1999 2.70371 11.0774C2.70371 10.9549 2.65506 10.8375 2.56846 10.7509C2.48186 10.6643 2.3644 10.6156 2.24193 10.6156C2.11946 10.6156 2.002 10.6643 1.9154 10.7509C1.8288 10.8375 1.78015 10.9549 1.78015 11.0774C1.78015 11.1999 1.8288 11.3173 1.9154 11.4039C2.002 11.4905 2.11946 11.5392 2.24193 11.5392ZM12.7196 2.54001C12.7856 2.54001 12.8488 2.51382 12.8954 2.46719C12.942 2.42057 12.9682 2.35733 12.9682 2.2914C12.9682 2.22546 12.942 2.16223 12.8954 2.11561C12.8488 2.06898 12.7856 2.04279 12.7196 2.04279C12.6537 2.04279 12.5904 2.06898 12.5438 2.11561C12.4972 2.16223 12.471 2.22546 12.471 2.2914C12.471 2.35733 12.4972 2.42057 12.5438 2.46719C12.5904 2.51382 12.6537 2.54001 12.7196 2.54001ZM21.2605 3.67827C21.3401 3.67827 21.4164 3.64666 21.4727 3.59039C21.529 3.53411 21.5606 3.45779 21.5606 3.3782C21.5606 3.29862 21.529 3.2223 21.4727 3.16602C21.4164 3.10975 21.3401 3.07813 21.2605 3.07813C21.1809 3.07813 21.1046 3.10974 21.0484 3.16601C20.9921 3.22227 20.9605 3.29858 20.9605 3.37815C20.9605 3.45772 20.9921 3.53403 21.0484 3.59029C21.1046 3.64656 21.1809 3.67827 21.2605 3.67827ZM15.6531 2.17732C15.7681 2.17732 15.8785 2.13161 15.9599 2.05024C16.0412 1.96887 16.0869 1.85851 16.0869 1.74343C16.0869 1.62836 16.0412 1.51799 15.9599 1.43662C15.8785 1.35525 15.7681 1.30954 15.6531 1.30954C15.538 1.30954 15.4276 1.35525 15.3463 1.43662C15.2649 1.51799 15.2192 1.62836 15.2192 1.74343C15.2192 1.85851 15.2649 1.96887 15.3463 2.05024C15.4276 2.13161 15.538 2.17732 15.6531 2.17732ZM5.74456 8.76607C5.81021 8.76607 5.87522 8.75314 5.93588 8.72801C5.99654 8.70289 6.05165 8.66606 6.09808 8.61964C6.1445 8.57321 6.18133 8.5181 6.20645 8.45744C6.23158 8.39678 6.24451 8.33177 6.24451 8.26612C6.24451 8.20046 6.23158 8.13545 6.20645 8.07479C6.18133 8.01414 6.1445 7.95902 6.09808 7.9126C6.05165 7.86617 5.99654 7.82935 5.93588 7.80422C5.87522 7.7791 5.81021 7.76616 5.74456 7.76616C5.61196 7.76616 5.4848 7.81884 5.39104 7.9126C5.29728 8.00636 5.2446 8.13352 5.2446 8.26612C5.2446 8.39871 5.29728 8.52588 5.39104 8.61964C5.4848 8.7134 5.61196 8.76607 5.74456 8.76607Z" fill="#AFDAD2" stroke="white" stroke-width="0.015625"/>
<path d="M19.5688 6.40501L19.0529 6.39276L18.5368 6.40457L18.0209 6.44045L17.5052 6.49984L16.99 6.5822L16.4753 6.68621L15.9615 6.8109L15.4484 6.95462L14.9361 7.11584L14.4247 7.29259L13.9142 7.48301L13.4045 7.68514L12.8956 7.89689L12.3875 8.11618L11.8802 8.34106L11.3735 8.56932L10.3622 9.0287L9.85759 9.25631L9.35337 9.48031L8.8497 9.69928L8.34657 9.91201L7.84389 10.1174L7.34153 10.3144L6.8395 10.5025L6.33779 10.6808L5.83631 10.849L5.33504 11.007L4.834 11.1544L4.33284 11.2913L3.8319 11.418L3.33086 11.5344L2.8297 11.6409L2.32854 11.7378L1.82717 11.8257L1.27723 11.9127L1.25295 12.08C1.08892 13.2122 1.07069 14.3608 1.1987 15.4976L1.2337 15.8085L1.95995 15.4862L2.46636 15.2578L3.47764 14.7984L3.98229 14.5709L4.48629 14.3476L4.98964 14.1304L5.49211 13.9213L5.99392 13.7222L6.49486 13.5354L6.99492 13.3626L7.49411 13.2054L7.99253 13.0657L8.49007 12.9451L8.98675 12.8445L9.48276 12.7654L9.97823 12.7083L10.4732 12.6738L10.9679 12.6625L11.4624 12.6744L11.957 12.7092L12.4521 12.7667L12.9475 12.8462L13.4434 12.9469L13.9402 13.0678L14.4378 13.2075L14.9361 13.3645L15.4353 13.5372L15.9354 13.7239L16.4364 13.9227L16.9381 14.1316L17.4407 14.3485L17.9439 14.5716L18.4479 14.7987L19.458 15.2575L19.9638 15.4857L20.4702 15.7106L20.9773 15.9311L21.4848 16.1457L21.9926 16.3532L22.5009 16.5526L23.0095 16.7431L23.5185 16.9242L24.0277 17.0951L24.537 17.2557L25.0465 17.4056L25.5562 17.545L26.0657 17.6738L26.5753 17.7923L27.292 17.9448L27.3515 17.7403C27.6893 16.5796 27.8683 15.3785 27.8837 14.1698L27.8848 14.0011L27.8837 13.8311L27.8802 13.6491C27.8372 12.0099 27.4933 10.3925 26.8658 8.87743L26.8196 8.76696L26.7369 8.57578L26.2159 8.3415L25.7095 8.11706L25.2021 7.89809L24.6941 7.68656L24.1852 7.48476L23.6755 7.29445L23.165 7.11781L22.6536 6.9567L22.1413 6.81298L21.6283 6.68818L21.1142 6.58384L20.5997 6.50126L20.0846 6.44143L19.5688 6.40501ZM19.0475 6.62212L19.5528 6.63393L20.0581 6.66926L20.5634 6.72778L21.0687 6.80871L21.5741 6.91109L22.0794 7.03381L22.5847 7.17545L23.09 7.33459L23.5953 7.50937L24.1006 7.69793L24.6059 7.89842L25.1112 8.10864L25.6166 8.32684L26.1219 8.55073L26.562 8.7487C27.2366 10.2986 27.6063 11.9639 27.6508 13.6536L27.6543 13.8326L27.6554 13.9997L27.6543 14.1668C27.6392 15.3548 27.4632 16.5353 27.1312 17.6761L26.6272 17.5689L26.1219 17.4514L25.6166 17.3237L25.1112 17.1856L24.6059 17.0368L24.1006 16.8777L23.5953 16.708L23.09 16.5283L22.5847 16.3391L22.0794 16.1408L21.5741 15.9344L21.0687 15.7208L20.5634 15.501L20.0581 15.2765L19.5528 15.0487L18.5422 14.5895L18.0369 14.3618L17.5316 14.1379L17.0262 13.9198L16.5209 13.7095L16.0156 13.509L15.5103 13.3205L15.005 13.1457L14.4997 12.9867L13.9944 12.8449L13.4891 12.7222L12.9837 12.6198L12.4784 12.5389L11.9731 12.4804L11.4678 12.445L10.9625 12.4332L10.4572 12.445L9.95187 12.4804L9.44656 12.5389L8.94125 12.6198L8.43593 12.7222L7.93062 12.8449L7.42531 12.9867L6.92 13.1457L6.41468 13.3205L5.90937 13.509L5.40406 13.7095L4.89875 13.9198L4.39343 14.1379L3.88812 14.3618L3.38281 14.5895L2.37218 15.0487L1.86687 15.2765L1.42664 15.472C1.30082 14.3546 1.31876 13.2257 1.48001 12.1129L1.86676 12.0517L2.37207 11.9631L2.87739 11.8652L3.3827 11.7577L3.88801 11.6404L4.39332 11.5126L4.89864 11.3745L5.40395 11.2257L5.90926 11.0665L6.41457 10.8969L6.91989 10.7172L7.4252 10.528L7.93051 10.3297L8.43582 10.1233L8.94114 9.9096L9.44645 9.68998L9.95176 9.46543L10.4571 9.2376L11.4677 8.77845L11.973 8.55073L12.4783 8.32684L12.9836 8.10864L13.4889 7.89842L13.9943 7.69793L14.4996 7.50937L15.0049 7.33459L15.5102 7.17545L16.0155 7.03381L16.5208 6.91109L17.0261 6.8086L17.5316 6.72767L18.0369 6.66926L18.5422 6.63393L19.0475 6.62212Z" fill="white"/>
<path d="M19.0475 6.56741L19.5553 6.57923L20.0631 6.61477L20.5708 6.67351L21.0785 6.75477L21.586 6.85759L22.0932 6.98085L22.6003 7.12304L23.1071 7.28273L23.6138 7.45784L24.1208 7.64705L24.6269 7.84787L25.1329 8.05841L25.6387 8.27684L26.1444 8.50084L26.6039 8.70788C27.2957 10.2905 27.6705 11.9934 27.7071 13.7202L27.709 13.8322L27.7101 14L27.709 14.1674C27.6936 15.3774 27.512 16.5794 27.1694 17.74L26.6149 17.6222L26.1085 17.5045L25.6021 17.3765L25.0958 17.238L24.5894 17.089L24.0832 16.9295L23.577 16.7595L23.0708 16.5795L22.5647 16.3899L22.0587 16.1914L21.5527 15.9847L21.047 15.7709L20.5412 15.551L20.0357 15.3264L19.5301 15.0984L18.5197 14.6394L18.0146 14.4119L17.5099 14.1881L17.0052 13.9702L16.5008 13.7602L15.9966 13.5603L15.4918 13.372L14.9878 13.1976L14.484 13.039L13.9805 12.8978L13.4771 12.7755L12.974 12.6736L12.4709 12.593L11.9681 12.5348L11.4652 12.4997L10.9625 12.4879L10.4597 12.4997L9.95687 12.5348L9.45397 12.593L8.95084 12.6736L8.44772 12.7755L7.94437 12.8978L7.44081 13.0389L6.93703 13.1976L6.43314 13.372L5.92947 13.5599L5.42503 13.76L4.92037 13.97L4.4155 14.1879L3.91051 14.4117L3.40531 14.6393L2.39458 15.0986L1.88905 15.3265L1.38078 15.5524C1.24358 14.3928 1.26068 13.2203 1.43164 12.0653L1.85733 11.9978L2.36165 11.9093L2.86609 11.8117L3.37031 11.7045L3.87464 11.5873L4.37886 11.4599L4.88319 11.3221L5.38751 11.1735L5.89195 11.0146L6.39628 10.8454L6.90072 10.666L7.40526 10.477L7.90992 10.2791L8.41458 10.0729L8.91934 9.85949L9.42433 9.63998L9.92931 9.41554L10.4345 9.18771L11.4452 8.72855L11.9509 8.50073L12.4567 8.27651L12.9627 8.0582L13.4688 7.84754L13.9752 7.64673L14.4812 7.45784L14.9878 7.28262L15.4946 7.12304L16.0017 6.98085L16.509 6.85769L17.0165 6.75488L17.524 6.67351L18.0318 6.61477L18.5396 6.57923L19.0475 6.56741Z" fill="#7DB0BC" stroke="white" stroke-width="0.0625"/>
<path d="M10.9625 12.6859L11.4678 12.6977L11.9731 12.733L12.4784 12.7915L12.9837 12.8724L13.489 12.9748L13.9943 13.0975L14.4997 13.2393L15.005 13.3983L15.5103 13.5731L16.0156 13.7617L16.5209 13.9621L17.0262 14.1725L17.5315 14.3906L18.0368 14.6145L18.5422 14.8422L19.0475 15.0718L19.5528 15.3013L20.0581 15.5292L20.5634 15.7537L21.0687 15.9734L21.574 16.1871L22.0793 16.3934L22.5847 16.5917L23.09 16.781L23.5953 16.9607L24.1006 17.1302L24.6059 17.2896L25.1112 17.4383L25.6165 17.5763L26.1218 17.7041L26.6272 17.8216L27.0597 17.9134C26.486 19.7546 25.5145 21.4472 24.214 22.8712C22.9135 24.2953 21.3158 25.416 19.5341 26.154C16.3105 27.4891 12.6887 27.489 9.4652 26.1538C6.24172 24.8186 3.68065 22.2575 2.34536 19.0341C1.90475 17.9703 1.60568 16.8533 1.45581 15.7117L1.86673 15.5292L2.37204 15.3013L2.87736 15.0716L3.38267 14.8422L3.88798 14.6145L4.39329 14.3906L4.89861 14.1725L5.40392 13.9621L5.90923 13.7617L6.41454 13.5731L6.91986 13.3983L7.42517 13.2393L7.93048 13.0975L8.4358 12.9748L8.94111 12.8724L9.44642 12.7915L9.95173 12.733L10.457 12.6977L10.9625 12.6859Z" fill="#5C7DA2"/>
<path d="M11.9731 16.0923V17.7869H15.005V20.1271H18.0369V21.7277H21.0687V22.4033H24.1006V22.9938C22.2717 24.9461 19.8912 26.2944 17.2763 26.8591C14.6615 27.4237 11.9366 27.1777 9.46515 26.154C6.63968 24.9836 4.31025 22.8654 2.87738 20.1635V18.5848H5.90926V16.473H8.94113V16.0923H11.9731Z" fill="#444876"/>
<path d="M12.0766 15.9889V17.6834H15.1084V20.0235H18.1403V21.6242H21.1722V22.2998H24.2041L24.2043 22.8819C24.136 22.9563 24.067 23.03 23.997 23.1032L23.9969 22.5066H21.1722V25.3376C21.1035 25.378 21.0345 25.4179 20.965 25.457V21.8311L18.1403 21.831V26.6415C18.0714 26.6615 18.0024 26.6807 17.9332 26.6994V20.2304H15.1084V27.1413C15.0394 27.1444 14.9703 27.1471 14.9013 27.1493V17.8903H12.0766V26.9302C12.0074 26.9173 11.9383 26.9038 11.8693 26.8897L11.8694 16.1957H9.04459V16.3696L9.0447 25.9711C8.97528 25.9395 8.90619 25.9073 8.83743 25.8745L8.83754 16.5765H6.01271V18.4812V24.0517C5.94308 23.9929 5.87406 23.9334 5.80567 23.8733V18.6882H2.98084L2.98073 20.3547C2.90956 20.2257 2.84055 20.0955 2.77368 19.9641L2.7739 18.4812H5.80578V16.3696H8.83765V15.9889H12.0766Z" fill="white"/>
<path d="M14.4997 0C18.1818 0.000104164 21.7156 1.45078 24.3357 4.03781C26.9558 6.62484 28.4513 10.1399 28.4981 13.8217L28.4992 13.9997L28.4981 14.1775C28.4513 17.8593 26.9558 21.3744 24.3357 23.9614C21.7156 26.5485 18.1818 27.9991 14.4997 27.9992C10.7868 27.9991 7.22601 26.5242 4.60058 23.8988C1.97516 21.2734 0.500145 17.7127 0.5 13.9998C0.500058 10.2868 1.97503 6.726 4.60047 4.10054C7.2259 1.47509 10.7867 8.70215e-05 14.4997 0ZM14.4997 0.459703C10.9087 0.45979 7.46478 1.88635 4.92556 4.42556C2.38635 6.96478 0.95979 10.4087 0.959703 13.9997C0.959819 17.5906 2.38639 21.0345 4.9256 23.5737C7.46482 26.1129 10.9087 27.5394 14.4997 27.5395C18.0608 27.5394 21.4786 26.1364 24.0127 23.6343C26.5467 21.1322 27.9931 17.7326 28.0384 14.1717L28.0395 13.9997L28.0384 13.8276C27.9931 10.2667 26.5468 6.86706 24.0127 4.36497C21.4786 1.86287 18.0608 0.459817 14.4997 0.459703Z" fill="#444876"/>
</g>
<defs>
<clipPath id="clip0_118_524">
<rect width="28" height="28" fill="white" transform="translate(0.5)"/>
</clipPath>
</defs>
</svg>
