<svg width="27" height="28" viewBox="0 0 27 28" fill="none" xmlns="http://www.w3.org/2000/svg">
<path d="M24.6055 6.30894e-05C24.6392 -0.00208513 24.6727 0.00519674 24.7024 0.0210802C24.732 0.0369637 24.7566 0.0608111 24.7733 0.0899091C24.79 0.119007 24.7982 0.152188 24.7969 0.185675C24.7956 0.219163 24.7849 0.251613 24.7659 0.279334L17.8299 9.6533C17.8047 9.68151 17.7739 9.7041 17.7393 9.71957C17.7048 9.73504 17.6673 9.74304 17.6294 9.74304C17.5915 9.74304 17.5541 9.73504 17.5195 9.71957C17.4849 9.7041 17.4541 9.68151 17.429 9.6533L14.9833 6.94084C14.9538 6.91039 14.9178 6.88692 14.878 6.87216C14.8381 6.8574 14.7955 6.85173 14.7531 6.85557C14.7108 6.85941 14.6699 6.87265 14.6334 6.89433C14.5969 6.916 14.5658 6.94556 14.5423 6.98081L13.0588 8.85556C13.0358 8.90738 13.0273 8.96445 13.0344 9.02067C13.0415 9.07689 13.0638 9.13013 13.099 9.1747L17.5091 13.722C17.5342 13.7503 17.5651 13.7729 17.5997 13.7884C17.6342 13.8038 17.6717 13.8118 17.7096 13.8118C17.7475 13.8118 17.785 13.8038 17.8195 13.7884C17.8541 13.7729 17.885 13.7503 17.9101 13.722L26.57 4.02904C26.595 4.00228 26.6274 3.98351 26.6631 3.97512C26.6989 3.96673 26.7363 3.9691 26.7707 3.98193C26.8051 3.99476 26.8348 4.01747 26.8562 4.04717C26.8776 4.07688 26.8896 4.11223 26.8908 4.14875V27.7234C26.8924 27.75 26.8883 27.7767 26.8788 27.8016C26.8693 27.8265 26.8546 27.8492 26.8356 27.868C26.8166 27.8869 26.7939 27.9015 26.7688 27.911C26.7437 27.9204 26.7169 27.9245 26.6902 27.9228H0.309429C0.282675 27.9245 0.255879 27.9204 0.230813 27.911C0.205747 27.9015 0.182983 27.8869 0.164025 27.868C0.145066 27.8492 0.130347 27.8265 0.12084 27.8016C0.111332 27.7767 0.107253 27.75 0.108873 27.7234V0.199602C0.107238 0.172975 0.111305 0.146305 0.120806 0.121359C0.130306 0.0964123 0.145023 0.0737577 0.163983 0.054894C0.182943 0.0360304 0.205713 0.0213879 0.230787 0.0119355C0.25586 0.00248314 0.282665 -0.0015636 0.309429 6.30894e-05H24.6055ZM17.7898 15.916C17.1991 15.9057 16.6125 16.0145 16.0652 16.2358C15.5179 16.4572 15.0214 16.7866 14.6055 17.204C14.1897 17.6215 13.8631 18.1184 13.6455 18.6649C13.4279 19.2113 13.3238 19.796 13.3395 20.3835C13.3395 23.136 15.3441 24.8911 17.9501 24.8911C19.1565 24.921 20.3395 24.5567 21.318 23.854C21.3619 23.8143 21.3901 23.7604 21.3975 23.7018C21.4048 23.6433 21.3908 23.584 21.358 23.5348L20.6364 22.4578C20.5972 22.4132 20.5428 22.3844 20.4836 22.377C20.4245 22.3697 20.3647 22.3843 20.3156 22.418C19.6884 22.8442 18.9502 23.0798 18.1908 23.0961C16.7874 23.0961 15.9054 22.2185 15.7451 21.1814C15.7465 21.1607 15.7554 21.1412 15.7702 21.1266C15.7849 21.1119 15.8045 21.1031 15.8252 21.1017H21.8793C21.9417 21.0975 22.0005 21.0709 22.0447 21.0269C22.0889 20.9829 22.1156 20.9244 22.1198 20.8622V20.6228C22.1198 17.8307 20.3557 15.9159 17.7898 15.9159M11.816 14.4001C10.5982 13.4097 9.05737 12.8987 7.48591 12.9641C4.75963 12.9641 3.07578 14.5596 3.07578 16.4744C3.07578 20.8223 9.73115 19.4261 9.73115 21.4606C9.73115 22.0987 9.08963 22.737 7.72654 22.737C6.43191 22.7476 5.18287 22.2619 4.23852 21.3807C4.21065 21.3548 4.17754 21.3351 4.14139 21.3229C4.10524 21.3107 4.0669 21.3064 4.02893 21.3102C3.99096 21.3139 3.95424 21.3257 3.92123 21.3448C3.88821 21.3638 3.85967 21.3897 3.83751 21.4206L2.79519 22.8567C2.76241 22.9059 2.74844 22.9651 2.75582 23.0237C2.76319 23.0822 2.79141 23.1362 2.83536 23.1758C3.91786 24.173 5.44144 24.8513 7.56626 24.8513C10.6934 24.8513 12.217 23.2556 12.2972 21.1814C12.2972 16.8733 5.64178 18.1099 5.64178 16.275C5.64178 15.5969 6.24324 15.1182 7.28557 15.1182C8.43468 15.1025 9.55383 15.483 10.4529 16.1952C10.4791 16.2165 10.5093 16.2324 10.5417 16.242C10.5741 16.2515 10.6082 16.2545 10.6418 16.2508C10.6754 16.2471 10.7079 16.2368 10.7375 16.2204C10.767 16.204 10.7929 16.1819 10.8138 16.1553L11.8562 14.7592C11.8776 14.7332 11.8936 14.7031 11.9032 14.6709C11.9128 14.6386 11.9158 14.6047 11.9121 14.5713C11.9084 14.5378 11.898 14.5055 11.8815 14.4761C11.865 14.4467 11.8428 14.4209 11.8161 14.4002M17.83 17.6711C18.9204 17.6104 19.8619 18.4233 19.9549 19.5061C19.9535 19.5268 19.9446 19.5462 19.9298 19.5609C19.9151 19.5755 19.8955 19.5844 19.8748 19.5858H15.7852C15.7644 19.5844 15.7448 19.5755 15.7301 19.5609C15.7154 19.5462 15.7065 19.5268 15.705 19.5061C15.8392 18.4446 16.7549 17.6538 17.83 17.6711Z" fill="#2CB134"/>
</svg>
