<svg width="29" height="28" viewBox="0 0 29 28" fill="none" xmlns="http://www.w3.org/2000/svg">
<g clip-path="url(#clip0_126_857)">
<path d="M14.3342 5.60046C10.6008 5.60046 8.26829 7.4664 7.33423 11.1998C8.73379 9.33365 10.3676 8.63387 12.2338 9.10046C13.2993 9.36603 14.0608 10.1387 14.9041 10.9948C16.2765 12.3876 17.8651 14 21.3342 14C25.0674 14 27.4002 12.1339 28.3342 8.39959C26.9342 10.2667 25.301 10.9668 23.4344 10.5C22.3691 10.2342 21.6085 9.46184 20.7642 8.60565C19.3926 7.21287 17.8045 5.60046 14.3342 5.60046ZM7.33423 14C3.60104 14 1.26829 15.8662 0.334229 19.6005C1.73408 17.7334 3.36727 17.0332 5.23379 17.5C6.29932 17.7658 7.06079 18.5382 7.90407 19.3944C9.27651 20.7872 10.8651 22.3996 14.3342 22.3996C18.0674 22.3996 20.4002 20.5337 21.3342 16.8002C19.9342 18.6665 18.301 19.3663 16.4344 18.8996C15.3691 18.634 14.6085 17.8614 13.7642 17.0052C12.3926 15.6124 10.8045 14 7.33423 14Z" fill="#38BDF8"/>
</g>
<defs>
<clipPath id="clip0_126_857">
<rect width="28" height="28" fill="white" transform="translate(0.333374)"/>
</clipPath>
</defs>
</svg>
