<svg width="27" height="28" viewBox="0 0 27 28" fill="none" xmlns="http://www.w3.org/2000/svg">
<path d="M15.3114 4.29861V8.59774L22.757 12.8969V8.59774L15.3114 4.29861ZM0.419678 8.59774V12.8969L4.14245 15.0459V10.7473L0.419678 8.59774ZM11.5881 10.7473L7.86533 12.8968V25.7931L11.5881 27.9427V19.3449L15.3114 21.4945V17.1954L11.5881 15.0459V10.7473Z" fill="#E55B2D"/>
<path d="M15.3114 4.29861L4.14246 10.7473V15.0459L11.5881 10.7473V15.0459L15.3114 12.8969V4.29861ZM26.4803 6.44818L22.757 8.59774V12.8969L26.4803 10.7473V6.44818ZM19.0343 15.0459L15.3115 17.1955V21.4946L19.0343 19.3449V15.0459ZM15.3115 21.4946L11.5881 19.3449V27.9427L15.3114 25.7931L15.3115 21.4946Z" fill="#ED8E24"/>
<path d="M15.3114 0L0.419678 8.59774L4.14245 10.7473L15.3114 4.29861L22.757 8.59774L26.4803 6.44817L15.3114 0ZM15.3114 12.8968L11.5881 15.0458L15.3114 17.1955L19.0342 15.0459L15.3114 12.8968Z" fill="#F8BF3C"/>
</svg>
