<svg width="29" height="28" viewBox="0 0 29 28" fill="none" xmlns="http://www.w3.org/2000/svg">
<g clip-path="url(#clip0_126_836)">
<path d="M5.45908 10.2812H27.2619V26.3966H5.45908V10.2812Z" fill="white"/>
<path d="M0.828125 13.9803V27.6522H28.1719V0.308472H0.828125V13.9803ZM22.8628 12.8866C23.5177 13.0386 24.113 13.3811 24.5734 13.871C24.8269 14.1349 25.0473 14.4287 25.2297 14.746C25.2297 14.781 24.0484 15.5794 23.3288 16.0257C23.3025 16.0432 23.1975 15.9294 23.0816 15.7566C22.9502 15.5299 22.7635 15.3402 22.539 15.2051C22.3144 15.0701 22.0593 14.9942 21.7975 14.9844C20.9684 14.9275 20.4347 15.3628 20.4391 16.0782C20.4324 16.2562 20.4732 16.4329 20.5572 16.59C20.7388 16.9685 21.0778 17.1938 22.1409 17.6532C24.0988 18.4953 24.9366 19.051 25.4572 19.8407C26.0391 20.7157 26.1681 22.1288 25.7744 23.1744C25.3369 24.3119 24.265 25.0841 22.7491 25.34C22.0567 25.4194 21.3571 25.412 20.6666 25.3182C19.6082 25.1437 18.6332 24.6355 17.8841 23.8678C17.6325 23.59 17.1425 22.866 17.1731 22.8135C17.2528 22.754 17.3369 22.7006 17.4247 22.6538L18.4375 22.0938L19.2228 21.6388L19.3869 21.8816C19.6638 22.2776 20.0162 22.6151 20.4238 22.8747C21.2988 23.3341 22.4931 23.2707 23.0837 22.7391C23.2821 22.5443 23.4058 22.2861 23.4333 22.0096C23.4609 21.733 23.3906 21.4555 23.2347 21.2253C23.0159 20.9213 22.5784 20.6653 21.3556 20.1316C19.9447 19.5235 19.3366 19.1472 18.7809 18.5478C18.4342 18.1522 18.1781 17.6856 18.0306 17.1807C17.9207 16.6037 17.9045 16.0128 17.9825 15.4307C18.2734 14.0678 19.295 13.1163 20.7869 12.8341C21.4778 12.7487 22.1776 12.7679 22.8628 12.891V12.8866ZM16.4447 14.0328V15.1528H12.8944V25.2657H10.3766V15.1507H6.8175V14.0569C6.80634 13.6797 6.8151 13.3022 6.84375 12.926C6.86125 12.9063 9.03125 12.9063 11.6562 12.9063H16.4316L16.4447 14.0328Z" fill="#007ACC"/>
</g>
<defs>
<clipPath id="clip0_126_836">
<rect width="28" height="28" fill="white" transform="translate(0.5)"/>
</clipPath>
</defs>
</svg>
